%TF.GenerationSoftware,KiCad,Pcbnew,9.0.7*%
%TF.CreationDate,2026-02-23T13:49:48-08:00*%
%TF.ProjectId,phonev4,70686f6e-6576-4342-9e6b-696361645f70,rev?*%
%TF.SameCoordinates,Original*%
%TF.FileFunction,Soldermask,Bot*%
%TF.FilePolarity,Negative*%
%FSLAX46Y46*%
G04 Gerber Fmt 4.6, Leading zero omitted, Abs format (unit mm)*
G04 Created by KiCad (PCBNEW 9.0.7) date 2026-02-23 13:49:48*
%MOMM*%
%LPD*%
G01*
G04 APERTURE LIST*
G04 Aperture macros list*
%AMRoundRect*
0 Rectangle with rounded corners*
0 $1 Rounding radius*
0 $2 $3 $4 $5 $6 $7 $8 $9 X,Y pos of 4 corners*
0 Add a 4 corners polygon primitive as box body*
4,1,4,$2,$3,$4,$5,$6,$7,$8,$9,$2,$3,0*
0 Add four circle primitives for the rounded corners*
1,1,$1+$1,$2,$3*
1,1,$1+$1,$4,$5*
1,1,$1+$1,$6,$7*
1,1,$1+$1,$8,$9*
0 Add four rect primitives between the rounded corners*
20,1,$1+$1,$2,$3,$4,$5,0*
20,1,$1+$1,$4,$5,$6,$7,0*
20,1,$1+$1,$6,$7,$8,$9,0*
20,1,$1+$1,$8,$9,$2,$3,0*%
G04 Aperture macros list end*
%ADD10C,1.931200*%
%ADD11RoundRect,0.250000X0.600000X-0.600000X0.600000X0.600000X-0.600000X0.600000X-0.600000X-0.600000X0*%
%ADD12C,1.700000*%
%ADD13C,1.600000*%
%ADD14O,1.600000X1.600000*%
%ADD15R,1.600000X1.600000*%
%ADD16C,1.200000*%
%ADD17O,1.200000X1.800000*%
%ADD18C,2.750000*%
%ADD19RoundRect,0.102000X0.754000X-0.754000X0.754000X0.754000X-0.754000X0.754000X-0.754000X-0.754000X0*%
%ADD20C,1.712000*%
%ADD21R,2.000000X2.000000*%
%ADD22C,2.000000*%
%ADD23C,1.400000*%
%ADD24O,1.727200X1.727200*%
%ADD25C,1.016000*%
%ADD26R,1.727200X1.727200*%
%ADD27C,1.727200*%
%ADD28O,1.400000X1.400000*%
%ADD29C,3.250000*%
%ADD30RoundRect,0.250000X-0.650000X-0.650000X0.650000X-0.650000X0.650000X0.650000X-0.650000X0.650000X0*%
%ADD31C,1.800000*%
%ADD32R,1.524000X1.524000*%
G04 APERTURE END LIST*
D10*
%TO.C,U2*%
X172720000Y-96520000D03*
X175260000Y-96520000D03*
X177800000Y-96520000D03*
X180340000Y-96520000D03*
X180340000Y-88900000D03*
X177800000Y-88900000D03*
X175260000Y-88900000D03*
X172720000Y-88900000D03*
%TD*%
D11*
%TO.C,J3*%
X119380000Y-15240000D03*
D12*
X119380000Y-12700000D03*
X121920000Y-15240000D03*
X121920000Y-12700000D03*
X124460000Y-15240000D03*
X124460000Y-12700000D03*
X127000000Y-15240000D03*
X127000000Y-12700000D03*
X129540000Y-15240000D03*
X129540000Y-12700000D03*
X132080000Y-15240000D03*
X132080000Y-12700000D03*
X134620000Y-15240000D03*
X134620000Y-12700000D03*
X137160000Y-15240000D03*
X137160000Y-12700000D03*
X139700000Y-15240000D03*
X139700000Y-12700000D03*
X142240000Y-15240000D03*
X142240000Y-12700000D03*
X144780000Y-15240000D03*
X144780000Y-12700000D03*
X147320000Y-15240000D03*
X147320000Y-12700000D03*
X149860000Y-15240000D03*
X149860000Y-12700000D03*
%TD*%
D11*
%TO.C,J1*%
X175260000Y-2540000D03*
D12*
X175260000Y0D03*
X177800000Y-2540000D03*
X177800000Y0D03*
X180340000Y-2540000D03*
X180340000Y0D03*
X182880000Y-2540000D03*
X182880000Y0D03*
X185420000Y-2540000D03*
X185420000Y0D03*
%TD*%
D13*
%TO.C,C-raspi1*%
X162560000Y-85030000D03*
D14*
X162560000Y-77530000D03*
%TD*%
D13*
%TO.C,C-card1*%
X195580000Y-8950000D03*
D14*
X195580000Y-16450000D03*
%TD*%
D15*
%TO.C,C1*%
X189240000Y-93980000D03*
D13*
X193040000Y-93980000D03*
%TD*%
%TO.C,C-arduino1*%
X158690000Y-43180000D03*
D14*
X151190000Y-43180000D03*
%TD*%
D11*
%TO.C,J2*%
X119380000Y-2540000D03*
D12*
X119380000Y0D03*
X121920000Y-2540000D03*
X121920000Y0D03*
X124460000Y-2540000D03*
X124460000Y0D03*
X127000000Y-2540000D03*
X127000000Y0D03*
X129540000Y-2540000D03*
X129540000Y0D03*
X132080000Y-2540000D03*
X132080000Y0D03*
X134620000Y-2540000D03*
X134620000Y0D03*
X137160000Y-2540000D03*
X137160000Y0D03*
X139700000Y-2540000D03*
X139700000Y0D03*
X142240000Y-2540000D03*
X142240000Y0D03*
%TD*%
D13*
%TO.C,C-coin1*%
X195580000Y-6290000D03*
D14*
X195580000Y1210000D03*
%TD*%
D16*
%TO.C,J5*%
X195440000Y-111220000D03*
X195440000Y-105220000D03*
D17*
X193040000Y-109220000D03*
X197840000Y-111220000D03*
X197840000Y-104220000D03*
%TD*%
D18*
%TO.C,A3*%
X170180000Y-83400000D03*
X193180000Y-83400000D03*
X170180000Y-25400000D03*
X193180000Y-25400000D03*
D19*
X171450000Y-78530000D03*
D20*
X168910000Y-78530000D03*
X171450000Y-75990000D03*
X168910000Y-75990000D03*
X171450000Y-73450000D03*
X168910000Y-73450000D03*
X171450000Y-70910000D03*
X168910000Y-70910000D03*
X171450000Y-68370000D03*
X168910000Y-68370000D03*
X171450000Y-65830000D03*
X168910000Y-65830000D03*
X171450000Y-63290000D03*
X168910000Y-63290000D03*
X171450000Y-60750000D03*
X168910000Y-60750000D03*
X171450000Y-58210000D03*
X168910000Y-58210000D03*
X171450000Y-55670000D03*
X168910000Y-55670000D03*
X171450000Y-53130000D03*
X168910000Y-53130000D03*
X171450000Y-50590000D03*
X168910000Y-50590000D03*
X171450000Y-48050000D03*
X168910000Y-48050000D03*
X171450000Y-45510000D03*
X168910000Y-45510000D03*
X171450000Y-42970000D03*
X168910000Y-42970000D03*
X171450000Y-40430000D03*
X168910000Y-40430000D03*
X171450000Y-37890000D03*
X168910000Y-37890000D03*
X171450000Y-35350000D03*
X168910000Y-35350000D03*
X171450000Y-32810000D03*
X168910000Y-32810000D03*
X171450000Y-30270000D03*
X168910000Y-30270000D03*
%TD*%
D21*
%TO.C,C3*%
X158760000Y-93980000D03*
D22*
X162560000Y-93980000D03*
%TD*%
D23*
%TO.C,A1*%
X116840000Y-53340000D03*
X116840000Y-68580000D03*
D24*
X142240000Y-68580000D03*
X144780000Y-68580000D03*
D25*
X162560000Y-53340000D03*
D23*
X162560000Y-68580000D03*
D24*
X121920000Y-68580000D03*
X147320000Y-68580000D03*
X127000000Y-68580000D03*
X129540000Y-68580000D03*
X132080000Y-68580000D03*
X134620000Y-68580000D03*
X137160000Y-68580000D03*
X139700000Y-68580000D03*
X124460000Y-68580000D03*
X152400000Y-53340000D03*
X154940000Y-53340000D03*
X144780000Y-53340000D03*
X142240000Y-53340000D03*
X139700000Y-53340000D03*
X137160000Y-53340000D03*
X134620000Y-53340000D03*
X132080000Y-53340000D03*
X129540000Y-53340000D03*
X127000000Y-53340000D03*
X124460000Y-53340000D03*
X121920000Y-53340000D03*
X119380000Y-53340000D03*
X119380000Y-68580000D03*
D26*
X152400000Y-68580000D03*
X147320000Y-53340000D03*
D24*
X157480000Y-68580000D03*
D27*
X160020000Y-53340000D03*
D24*
X149860000Y-68580000D03*
X149860000Y-53340000D03*
X160020000Y-68580000D03*
X157480000Y-53340000D03*
X154940000Y-68580000D03*
%TD*%
D11*
%TO.C,J6*%
X170180000Y-15240000D03*
D12*
X170180000Y-12700000D03*
X172720000Y-15240000D03*
X172720000Y-12700000D03*
X175260000Y-15240000D03*
X175260000Y-12700000D03*
X177800000Y-15240000D03*
X177800000Y-12700000D03*
X180340000Y-15240000D03*
X180340000Y-12700000D03*
X182880000Y-15240000D03*
X182880000Y-12700000D03*
X185420000Y-15240000D03*
X185420000Y-12700000D03*
%TD*%
D23*
%TO.C,A2*%
X116840000Y-22860000D03*
X116840000Y-38100000D03*
D24*
X142240000Y-38100000D03*
X144780000Y-38100000D03*
D25*
X162560000Y-22860000D03*
D23*
X162560000Y-38100000D03*
D24*
X121920000Y-38100000D03*
X147320000Y-38100000D03*
X127000000Y-38100000D03*
X129540000Y-38100000D03*
X132080000Y-38100000D03*
X134620000Y-38100000D03*
X137160000Y-38100000D03*
X139700000Y-38100000D03*
X124460000Y-38100000D03*
X152400000Y-22860000D03*
X154940000Y-22860000D03*
X144780000Y-22860000D03*
X142240000Y-22860000D03*
X139700000Y-22860000D03*
X137160000Y-22860000D03*
X134620000Y-22860000D03*
X132080000Y-22860000D03*
X129540000Y-22860000D03*
X127000000Y-22860000D03*
X124460000Y-22860000D03*
X121920000Y-22860000D03*
X119380000Y-22860000D03*
X119380000Y-38100000D03*
D26*
X152400000Y-38100000D03*
X147320000Y-22860000D03*
D24*
X157480000Y-38100000D03*
D27*
X160020000Y-22860000D03*
D24*
X149860000Y-38100000D03*
X149860000Y-22860000D03*
X160020000Y-38100000D03*
X157480000Y-22860000D03*
X154940000Y-38100000D03*
%TD*%
D23*
%TO.C,R1*%
X144780000Y-41910000D03*
D28*
X144780000Y-49530000D03*
%TD*%
D13*
%TO.C,C4*%
X141030000Y-88900000D03*
D14*
X148530000Y-88900000D03*
%TD*%
D29*
%TO.C,J4*%
X172700000Y-109030000D03*
X180200000Y-109030000D03*
D30*
X174610000Y-102680000D03*
D31*
X175880000Y-100140000D03*
X177150000Y-102680000D03*
X178420000Y-100140000D03*
%TD*%
D23*
%TO.C,R2*%
X142240000Y-41910000D03*
D28*
X142240000Y-49530000D03*
%TD*%
D16*
%TO.C,J7*%
X187820000Y-111260000D03*
X187820000Y-105260000D03*
D17*
X185420000Y-109260000D03*
X190220000Y-111260000D03*
X190220000Y-104260000D03*
%TD*%
D13*
%TO.C,C-arduino-display1*%
X161230000Y-73660000D03*
D14*
X153730000Y-73660000D03*
%TD*%
D32*
%TO.C,U1*%
X115761900Y-113803300D03*
X132932300Y-113803300D03*
X132932300Y-74331700D03*
X115787300Y-74331700D03*
%TD*%
D15*
%TO.C,C2*%
X140980000Y-78740000D03*
D13*
X144780000Y-78740000D03*
%TD*%
M02*
