%TF.GenerationSoftware,KiCad,Pcbnew,9.0.7*%
%TF.CreationDate,2026-02-25T22:15:29-08:00*%
%TF.ProjectId,phonev4,70686f6e-6576-4342-9e6b-696361645f70,rev?*%
%TF.SameCoordinates,Original*%
%TF.FileFunction,Soldermask,Bot*%
%TF.FilePolarity,Negative*%
%FSLAX46Y46*%
G04 Gerber Fmt 4.6, Leading zero omitted, Abs format (unit mm)*
G04 Created by KiCad (PCBNEW 9.0.7) date 2026-02-25 22:15:29*
%MOMM*%
%LPD*%
G01*
G04 APERTURE LIST*
G04 Aperture macros list*
%AMRoundRect*
0 Rectangle with rounded corners*
0 $1 Rounding radius*
0 $2 $3 $4 $5 $6 $7 $8 $9 X,Y pos of 4 corners*
0 Add a 4 corners polygon primitive as box body*
4,1,4,$2,$3,$4,$5,$6,$7,$8,$9,$2,$3,0*
0 Add four circle primitives for the rounded corners*
1,1,$1+$1,$2,$3*
1,1,$1+$1,$4,$5*
1,1,$1+$1,$6,$7*
1,1,$1+$1,$8,$9*
0 Add four rect primitives between the rounded corners*
20,1,$1+$1,$2,$3,$4,$5,0*
20,1,$1+$1,$4,$5,$6,$7,0*
20,1,$1+$1,$6,$7,$8,$9,0*
20,1,$1+$1,$8,$9,$2,$3,0*%
G04 Aperture macros list end*
%ADD10C,2.000000*%
%ADD11RoundRect,0.250000X-0.550000X-0.550000X0.550000X-0.550000X0.550000X0.550000X-0.550000X0.550000X0*%
%ADD12C,1.600000*%
%ADD13RoundRect,0.250001X-0.949999X-0.949999X0.949999X-0.949999X0.949999X0.949999X-0.949999X0.949999X0*%
%ADD14C,2.400000*%
%ADD15R,1.800000X1.800000*%
%ADD16C,1.800000*%
%ADD17RoundRect,0.250000X0.600000X-0.600000X0.600000X0.600000X-0.600000X0.600000X-0.600000X-0.600000X0*%
%ADD18C,1.700000*%
%ADD19C,1.400000*%
%ADD20C,1.200000*%
%ADD21O,1.200000X1.800000*%
%ADD22RoundRect,0.250000X-0.750000X-0.750000X0.750000X-0.750000X0.750000X0.750000X-0.750000X0.750000X0*%
%ADD23RoundRect,0.250000X0.550000X0.550000X-0.550000X0.550000X-0.550000X-0.550000X0.550000X-0.550000X0*%
%ADD24C,2.750000*%
%ADD25RoundRect,0.102000X0.754000X-0.754000X0.754000X0.754000X-0.754000X0.754000X-0.754000X-0.754000X0*%
%ADD26C,1.712000*%
%ADD27O,1.727200X1.727200*%
%ADD28C,1.016000*%
%ADD29R,1.727200X1.727200*%
%ADD30C,1.727200*%
%ADD31C,3.250000*%
%ADD32RoundRect,0.250000X-0.650000X-0.650000X0.650000X-0.650000X0.650000X0.650000X-0.650000X0.650000X0*%
%ADD33R,1.905000X2.000000*%
%ADD34O,1.905000X2.000000*%
%ADD35R,1.524000X1.524000*%
G04 APERTURE END LIST*
D10*
%TO.C,TP2*%
X82000000Y-123250000D03*
%TD*%
D11*
%TO.C,U2*%
X73680000Y-148250000D03*
D12*
X73680000Y-150790000D03*
X73680000Y-153330000D03*
X73680000Y-155870000D03*
X81300000Y-155870000D03*
X81300000Y-153330000D03*
X81300000Y-150790000D03*
X81300000Y-148250000D03*
%TD*%
D13*
%TO.C,D3*%
X105920000Y-141250000D03*
D14*
X116080000Y-141250000D03*
%TD*%
D15*
%TO.C,D4*%
X74460000Y-48500000D03*
D16*
X77000000Y-48500000D03*
%TD*%
D17*
%TO.C,J3*%
X42500000Y-61040000D03*
D18*
X42500000Y-58500000D03*
X45040000Y-61040000D03*
X45040000Y-58500000D03*
X47580000Y-61040000D03*
X47580000Y-58500000D03*
X50120000Y-61040000D03*
X50120000Y-58500000D03*
X52660000Y-61040000D03*
X52660000Y-58500000D03*
X55200000Y-61040000D03*
X55200000Y-58500000D03*
X57740000Y-61040000D03*
X57740000Y-58500000D03*
X60280000Y-61040000D03*
X60280000Y-58500000D03*
X62820000Y-61040000D03*
X62820000Y-58500000D03*
X65360000Y-61040000D03*
X65360000Y-58500000D03*
X67900000Y-61040000D03*
X67900000Y-58500000D03*
X70440000Y-61040000D03*
X70440000Y-58500000D03*
X72980000Y-61040000D03*
X72980000Y-58500000D03*
%TD*%
D17*
%TO.C,J1*%
X90750000Y-50000000D03*
D18*
X90750000Y-47460000D03*
X93290000Y-50000000D03*
X93290000Y-47460000D03*
X95830000Y-50000000D03*
X95830000Y-47460000D03*
X98370000Y-50000000D03*
X98370000Y-47460000D03*
X100910000Y-50000000D03*
X100910000Y-47460000D03*
%TD*%
D10*
%TO.C,TP1*%
X61750000Y-130750000D03*
%TD*%
D19*
%TO.C,R4*%
X59190000Y-112500000D03*
X66810000Y-112500000D03*
%TD*%
D20*
%TO.C,J7*%
X107750000Y-154250000D03*
X107750000Y-148250000D03*
D21*
X105350000Y-152250000D03*
X110150000Y-154250000D03*
X110150000Y-147250000D03*
%TD*%
D19*
%TO.C,R3*%
X81750000Y-45000000D03*
X81750000Y-52620000D03*
%TD*%
D12*
%TO.C,C5*%
X82500000Y-118250000D03*
X82500000Y-110750000D03*
%TD*%
%TO.C,C3*%
X109660000Y-55960000D03*
X109660000Y-63460000D03*
%TD*%
%TO.C,C1*%
X77550000Y-135500000D03*
X70050000Y-135500000D03*
%TD*%
%TO.C,C9*%
X61250000Y-149750000D03*
X68750000Y-149750000D03*
%TD*%
D22*
%TO.C,F1*%
X72500000Y-125250000D03*
D10*
X77500000Y-125250000D03*
%TD*%
D23*
%TO.C,C11*%
X66300000Y-140500000D03*
D12*
X62500000Y-140500000D03*
%TD*%
D17*
%TO.C,J2*%
X42500000Y-50000000D03*
D18*
X42500000Y-47460000D03*
X45040000Y-50000000D03*
X45040000Y-47460000D03*
X47580000Y-50000000D03*
X47580000Y-47460000D03*
X50120000Y-50000000D03*
X50120000Y-47460000D03*
X52660000Y-50000000D03*
X52660000Y-47460000D03*
X55200000Y-50000000D03*
X55200000Y-47460000D03*
X57740000Y-50000000D03*
X57740000Y-47460000D03*
X60280000Y-50000000D03*
X60280000Y-47460000D03*
X62820000Y-50000000D03*
X62820000Y-47460000D03*
X65360000Y-50000000D03*
X65360000Y-47460000D03*
%TD*%
D13*
%TO.C,D1*%
X105920000Y-134250000D03*
D14*
X116080000Y-134250000D03*
%TD*%
D12*
%TO.C,C4*%
X109660000Y-52550000D03*
X109660000Y-45050000D03*
%TD*%
D20*
%TO.C,J5*%
X114250000Y-154250000D03*
X114250000Y-148250000D03*
D21*
X111850000Y-152250000D03*
X116650000Y-154250000D03*
X116650000Y-147250000D03*
%TD*%
D13*
%TO.C,D2*%
X59920000Y-117500000D03*
D14*
X70080000Y-117500000D03*
%TD*%
D10*
%TO.C,TP4*%
X49750000Y-87750000D03*
%TD*%
D24*
%TO.C,A3*%
X90480000Y-126500000D03*
X113480000Y-126500000D03*
X90480000Y-68500000D03*
X113480000Y-68500000D03*
D25*
X91750000Y-121630000D03*
D26*
X89210000Y-121630000D03*
X91750000Y-119090000D03*
X89210000Y-119090000D03*
X91750000Y-116550000D03*
X89210000Y-116550000D03*
X91750000Y-114010000D03*
X89210000Y-114010000D03*
X91750000Y-111470000D03*
X89210000Y-111470000D03*
X91750000Y-108930000D03*
X89210000Y-108930000D03*
X91750000Y-106390000D03*
X89210000Y-106390000D03*
X91750000Y-103850000D03*
X89210000Y-103850000D03*
X91750000Y-101310000D03*
X89210000Y-101310000D03*
X91750000Y-98770000D03*
X89210000Y-98770000D03*
X91750000Y-96230000D03*
X89210000Y-96230000D03*
X91750000Y-93690000D03*
X89210000Y-93690000D03*
X91750000Y-91150000D03*
X89210000Y-91150000D03*
X91750000Y-88610000D03*
X89210000Y-88610000D03*
X91750000Y-86070000D03*
X89210000Y-86070000D03*
X91750000Y-83530000D03*
X89210000Y-83530000D03*
X91750000Y-80990000D03*
X89210000Y-80990000D03*
X91750000Y-78450000D03*
X89210000Y-78450000D03*
X91750000Y-75910000D03*
X89210000Y-75910000D03*
X91750000Y-73370000D03*
X89210000Y-73370000D03*
%TD*%
D11*
%TO.C,C12*%
X85750000Y-153250000D03*
D12*
X89550000Y-153250000D03*
%TD*%
D19*
%TO.C,A1*%
X39250000Y-92750000D03*
X39250000Y-107990000D03*
D27*
X64650000Y-107990000D03*
X67190000Y-107990000D03*
D28*
X84970000Y-92750000D03*
D19*
X84970000Y-107990000D03*
D27*
X44330000Y-107990000D03*
X69730000Y-107990000D03*
X49410000Y-107990000D03*
X51950000Y-107990000D03*
X54490000Y-107990000D03*
X57030000Y-107990000D03*
X59570000Y-107990000D03*
X62110000Y-107990000D03*
X46870000Y-107990000D03*
X74810000Y-92750000D03*
X77350000Y-92750000D03*
X67190000Y-92750000D03*
X64650000Y-92750000D03*
X62110000Y-92750000D03*
X59570000Y-92750000D03*
X57030000Y-92750000D03*
X54490000Y-92750000D03*
X51950000Y-92750000D03*
X49410000Y-92750000D03*
X46870000Y-92750000D03*
X44330000Y-92750000D03*
X41790000Y-92750000D03*
X41790000Y-107990000D03*
D29*
X74810000Y-107990000D03*
X69730000Y-92750000D03*
D27*
X79890000Y-107990000D03*
D30*
X82430000Y-92750000D03*
D27*
X72270000Y-107990000D03*
X72270000Y-92750000D03*
X82430000Y-107990000D03*
X79890000Y-92750000D03*
X77350000Y-107990000D03*
%TD*%
D19*
%TO.C,R5*%
X68940000Y-112500000D03*
X76560000Y-112500000D03*
%TD*%
D17*
%TO.C,J6*%
X85870000Y-61000000D03*
D18*
X85870000Y-58460000D03*
X88410000Y-61000000D03*
X88410000Y-58460000D03*
X90950000Y-61000000D03*
X90950000Y-58460000D03*
X93490000Y-61000000D03*
X93490000Y-58460000D03*
X96030000Y-61000000D03*
X96030000Y-58460000D03*
X98570000Y-61000000D03*
X98570000Y-58460000D03*
X101110000Y-61000000D03*
X101110000Y-58460000D03*
%TD*%
D10*
%TO.C,TP5*%
X75750000Y-87750000D03*
%TD*%
D19*
%TO.C,A2*%
X39230000Y-69000000D03*
X39230000Y-84240000D03*
D27*
X64630000Y-84240000D03*
X67170000Y-84240000D03*
D28*
X84950000Y-69000000D03*
D19*
X84950000Y-84240000D03*
D27*
X44310000Y-84240000D03*
X69710000Y-84240000D03*
X49390000Y-84240000D03*
X51930000Y-84240000D03*
X54470000Y-84240000D03*
X57010000Y-84240000D03*
X59550000Y-84240000D03*
X62090000Y-84240000D03*
X46850000Y-84240000D03*
X74790000Y-69000000D03*
X77330000Y-69000000D03*
X67170000Y-69000000D03*
X64630000Y-69000000D03*
X62090000Y-69000000D03*
X59550000Y-69000000D03*
X57010000Y-69000000D03*
X54470000Y-69000000D03*
X51930000Y-69000000D03*
X49390000Y-69000000D03*
X46850000Y-69000000D03*
X44310000Y-69000000D03*
X41770000Y-69000000D03*
X41770000Y-84240000D03*
D29*
X74790000Y-84240000D03*
X69710000Y-69000000D03*
D27*
X79870000Y-84240000D03*
D30*
X82410000Y-69000000D03*
D27*
X72250000Y-84240000D03*
X72250000Y-69000000D03*
X82410000Y-84240000D03*
X79870000Y-69000000D03*
X77330000Y-84240000D03*
%TD*%
D19*
%TO.C,R1*%
X63690000Y-87000000D03*
X71310000Y-87000000D03*
%TD*%
D12*
%TO.C,C6*%
X81250000Y-142250000D03*
X73750000Y-142250000D03*
%TD*%
D31*
%TO.C,J4*%
X94530000Y-151000000D03*
X102030000Y-151000000D03*
D32*
X96440000Y-144650000D03*
D16*
X97710000Y-142110000D03*
X98980000Y-144650000D03*
X100250000Y-142110000D03*
%TD*%
D19*
%TO.C,R2*%
X53960000Y-87000000D03*
X61580000Y-87000000D03*
%TD*%
D11*
%TO.C,C7*%
X85750000Y-141000000D03*
D12*
X89550000Y-141000000D03*
%TD*%
D10*
%TO.C,TP3*%
X67500000Y-130750000D03*
%TD*%
D12*
%TO.C,C2*%
X79250000Y-118250000D03*
X79250000Y-110750000D03*
%TD*%
D33*
%TO.C,Q1*%
X95920000Y-138750000D03*
D34*
X101000000Y-138750000D03*
X98460000Y-138750000D03*
%TD*%
D11*
%TO.C,C8*%
X82050000Y-133000000D03*
D12*
X84050000Y-133000000D03*
%TD*%
D35*
%TO.C,U1*%
X38801900Y-151221600D03*
X55972300Y-151221600D03*
X55972300Y-111750000D03*
X38827300Y-111750000D03*
%TD*%
D12*
%TO.C,C10*%
X61250000Y-156000000D03*
X68750000Y-156000000D03*
%TD*%
M02*
