%TF.GenerationSoftware,KiCad,Pcbnew,9.0.7*%
%TF.CreationDate,2026-02-25T22:15:29-08:00*%
%TF.ProjectId,phonev4,70686f6e-6576-4342-9e6b-696361645f70,rev?*%
%TF.SameCoordinates,Original*%
%TF.FileFunction,Copper,L4,Bot*%
%TF.FilePolarity,Positive*%
%FSLAX46Y46*%
G04 Gerber Fmt 4.6, Leading zero omitted, Abs format (unit mm)*
G04 Created by KiCad (PCBNEW 9.0.7) date 2026-02-25 22:15:29*
%MOMM*%
%LPD*%
G01*
G04 APERTURE LIST*
G04 Aperture macros list*
%AMRoundRect*
0 Rectangle with rounded corners*
0 $1 Rounding radius*
0 $2 $3 $4 $5 $6 $7 $8 $9 X,Y pos of 4 corners*
0 Add a 4 corners polygon primitive as box body*
4,1,4,$2,$3,$4,$5,$6,$7,$8,$9,$2,$3,0*
0 Add four circle primitives for the rounded corners*
1,1,$1+$1,$2,$3*
1,1,$1+$1,$4,$5*
1,1,$1+$1,$6,$7*
1,1,$1+$1,$8,$9*
0 Add four rect primitives between the rounded corners*
20,1,$1+$1,$2,$3,$4,$5,0*
20,1,$1+$1,$4,$5,$6,$7,0*
20,1,$1+$1,$6,$7,$8,$9,0*
20,1,$1+$1,$8,$9,$2,$3,0*%
G04 Aperture macros list end*
%TA.AperFunction,ComponentPad*%
%ADD10C,2.000000*%
%TD*%
%TA.AperFunction,ComponentPad*%
%ADD11RoundRect,0.250000X-0.550000X-0.550000X0.550000X-0.550000X0.550000X0.550000X-0.550000X0.550000X0*%
%TD*%
%TA.AperFunction,ComponentPad*%
%ADD12C,1.600000*%
%TD*%
%TA.AperFunction,ComponentPad*%
%ADD13RoundRect,0.250001X-0.949999X-0.949999X0.949999X-0.949999X0.949999X0.949999X-0.949999X0.949999X0*%
%TD*%
%TA.AperFunction,ComponentPad*%
%ADD14C,2.400000*%
%TD*%
%TA.AperFunction,ComponentPad*%
%ADD15R,1.800000X1.800000*%
%TD*%
%TA.AperFunction,ComponentPad*%
%ADD16C,1.800000*%
%TD*%
%TA.AperFunction,ComponentPad*%
%ADD17RoundRect,0.250000X0.600000X-0.600000X0.600000X0.600000X-0.600000X0.600000X-0.600000X-0.600000X0*%
%TD*%
%TA.AperFunction,ComponentPad*%
%ADD18C,1.700000*%
%TD*%
%TA.AperFunction,ComponentPad*%
%ADD19C,1.400000*%
%TD*%
%TA.AperFunction,ComponentPad*%
%ADD20O,1.200000X1.800000*%
%TD*%
%TA.AperFunction,ComponentPad*%
%ADD21RoundRect,0.250000X-0.750000X-0.750000X0.750000X-0.750000X0.750000X0.750000X-0.750000X0.750000X0*%
%TD*%
%TA.AperFunction,ComponentPad*%
%ADD22RoundRect,0.250000X0.550000X0.550000X-0.550000X0.550000X-0.550000X-0.550000X0.550000X-0.550000X0*%
%TD*%
%TA.AperFunction,ComponentPad*%
%ADD23R,1.508000X1.508000*%
%TD*%
%TA.AperFunction,ComponentPad*%
%ADD24C,1.508000*%
%TD*%
%TA.AperFunction,ComponentPad*%
%ADD25O,1.727200X1.727200*%
%TD*%
%TA.AperFunction,ComponentPad*%
%ADD26R,1.727200X1.727200*%
%TD*%
%TA.AperFunction,ComponentPad*%
%ADD27C,1.727200*%
%TD*%
%TA.AperFunction,ComponentPad*%
%ADD28RoundRect,0.250000X-0.650000X-0.650000X0.650000X-0.650000X0.650000X0.650000X-0.650000X0.650000X0*%
%TD*%
%TA.AperFunction,ComponentPad*%
%ADD29R,1.905000X2.000000*%
%TD*%
%TA.AperFunction,ComponentPad*%
%ADD30O,1.905000X2.000000*%
%TD*%
%TA.AperFunction,ComponentPad*%
%ADD31R,1.524000X1.524000*%
%TD*%
%TA.AperFunction,ViaPad*%
%ADD32C,0.800000*%
%TD*%
%TA.AperFunction,Conductor*%
%ADD33C,0.250000*%
%TD*%
G04 APERTURE END LIST*
D10*
%TO.P,TP2,1,1*%
%TO.N,3.3V*%
X82000000Y-123250000D03*
%TD*%
D11*
%TO.P,U2,1,OUT_A*%
%TO.N,Net-(U2-OUT_A)*%
X73680000Y-148250000D03*
D12*
%TO.P,U2,2,GND*%
%TO.N,GND*%
X73680000Y-150790000D03*
%TO.P,U2,3,IN_A*%
%TO.N,Net-(U2-IN_A)*%
X73680000Y-153330000D03*
%TO.P,U2,4,IN_B*%
%TO.N,Net-(U2-IN_B)*%
X73680000Y-155870000D03*
%TO.P,U2,5,OUT_B*%
%TO.N,Net-(U2-OUT_B)*%
X81300000Y-155870000D03*
%TO.P,U2,6,V+*%
%TO.N,5V_MAIN*%
X81300000Y-153330000D03*
%TO.P,U2,7,RIPPLE*%
%TO.N,Net-(U2-RIPPLE)*%
X81300000Y-150790000D03*
%TO.P,U2,8,NC*%
%TO.N,unconnected-(U2-NC-Pad8)*%
X81300000Y-148250000D03*
%TD*%
D13*
%TO.P,D3,1,1*%
%TO.N,mic+*%
X105920000Y-141250000D03*
D14*
%TO.P,D3,2,2*%
%TO.N,GND*%
X116080000Y-141250000D03*
%TD*%
D15*
%TO.P,D4,1,K*%
%TO.N,GND*%
X74460000Y-48500000D03*
D16*
%TO.P,D4,2,A*%
%TO.N,Net-(D4-A)*%
X77000000Y-48500000D03*
%TD*%
D17*
%TO.P,J3,1,Pin_1*%
%TO.N,disp_d7*%
X42500000Y-61040000D03*
D18*
%TO.P,J3,2,Pin_2*%
%TO.N,5V_MAIN*%
X42500000Y-58500000D03*
%TO.P,J3,3,Pin_3*%
%TO.N,disp_d6*%
X45040000Y-61040000D03*
%TO.P,J3,4,Pin_4*%
%TO.N,unconnected-(J3-Pin_4-Pad4)*%
X45040000Y-58500000D03*
%TO.P,J3,5,Pin_5*%
%TO.N,disp_d5*%
X47580000Y-61040000D03*
%TO.P,J3,6,Pin_6*%
%TO.N,unconnected-(J3-Pin_6-Pad6)*%
X47580000Y-58500000D03*
%TO.P,J3,7,Pin_7*%
%TO.N,disp_d4*%
X50120000Y-61040000D03*
%TO.P,J3,8,Pin_8*%
%TO.N,unconnected-(J3-Pin_8-Pad8)*%
X50120000Y-58500000D03*
%TO.P,J3,9,Pin_9*%
%TO.N,disp_d3*%
X52660000Y-61040000D03*
%TO.P,J3,10,Pin_10*%
%TO.N,unconnected-(J3-Pin_10-Pad10)*%
X52660000Y-58500000D03*
%TO.P,J3,11,Pin_11*%
%TO.N,disp_d2*%
X55200000Y-61040000D03*
%TO.P,J3,12,Pin_12*%
%TO.N,unconnected-(J3-Pin_12-Pad12)*%
X55200000Y-58500000D03*
%TO.P,J3,13,Pin_13*%
%TO.N,disp_d1*%
X57740000Y-61040000D03*
%TO.P,J3,14,Pin_14*%
%TO.N,unconnected-(J3-Pin_14-Pad14)*%
X57740000Y-58500000D03*
%TO.P,J3,15,Pin_15*%
%TO.N,disp_d0*%
X60280000Y-61040000D03*
%TO.P,J3,16,Pin_16*%
%TO.N,unconnected-(J3-Pin_16-Pad16)*%
X60280000Y-58500000D03*
%TO.P,J3,17,Pin_17*%
%TO.N,disp_x1*%
X62820000Y-61040000D03*
%TO.P,J3,18,Pin_18*%
%TO.N,unconnected-(J3-Pin_18-Pad18)*%
X62820000Y-58500000D03*
%TO.P,J3,19,Pin_19*%
%TO.N,disp_x2*%
X65360000Y-61040000D03*
%TO.P,J3,20,Pin_20*%
%TO.N,disp_x6*%
X65360000Y-58500000D03*
%TO.P,J3,21,Pin_21*%
%TO.N,disp_x3*%
X67900000Y-61040000D03*
%TO.P,J3,22,Pin_22*%
%TO.N,unconnected-(J3-Pin_22-Pad22)*%
X67900000Y-58500000D03*
%TO.P,J3,23,Pin_23*%
%TO.N,disp_x4*%
X70440000Y-61040000D03*
%TO.P,J3,24,Pin_24*%
%TO.N,unconnected-(J3-Pin_24-Pad24)*%
X70440000Y-58500000D03*
%TO.P,J3,25,Pin_25*%
%TO.N,disp_x5*%
X72980000Y-61040000D03*
%TO.P,J3,26,Pin_26*%
%TO.N,GND*%
X72980000Y-58500000D03*
%TD*%
D17*
%TO.P,J1,1,Pin_1*%
%TO.N,GND*%
X90750000Y-50000000D03*
D18*
%TO.P,J1,2,Pin_2*%
%TO.N,coin_tx*%
X90750000Y-47460000D03*
%TO.P,J1,3,Pin_3*%
%TO.N,coin_rx*%
X93290000Y-50000000D03*
%TO.P,J1,4,Pin_4*%
%TO.N,GND*%
X93290000Y-47460000D03*
%TO.P,J1,5,Pin_5*%
X95830000Y-50000000D03*
%TO.P,J1,6,Pin_6*%
X95830000Y-47460000D03*
%TO.P,J1,7,Pin_7*%
X98370000Y-50000000D03*
%TO.P,J1,8,Pin_8*%
X98370000Y-47460000D03*
%TO.P,J1,9,Pin_9*%
%TO.N,12V_COIN*%
X100910000Y-50000000D03*
%TO.P,J1,10,Pin_10*%
%TO.N,coin_reset*%
X100910000Y-47460000D03*
%TD*%
D10*
%TO.P,TP1,1,1*%
%TO.N,5V_MAIN*%
X61750000Y-130750000D03*
%TD*%
D19*
%TO.P,R4,1*%
%TO.N,PI_RESET1*%
X59190000Y-112500000D03*
%TO.P,R4,2*%
%TO.N,RESET1*%
X66810000Y-112500000D03*
%TD*%
D20*
%TO.P,J7,1,SIG*%
%TO.N,speaker_receiver_pre+*%
X105350000Y-152250000D03*
%TO.P,J7,2,SHEILD*%
%TO.N,GND*%
X110150000Y-154250000D03*
%TO.P,J7,3,SW*%
%TO.N,speaker_front_pre+*%
X110150000Y-147250000D03*
%TD*%
D19*
%TO.P,R3,1*%
%TO.N,5V_MAIN*%
X81750000Y-45000000D03*
%TO.P,R3,2*%
%TO.N,Net-(D4-A)*%
X81750000Y-52620000D03*
%TD*%
D12*
%TO.P,C5,1*%
%TO.N,5V_MAIN*%
X82500000Y-118250000D03*
%TO.P,C5,2*%
%TO.N,GND*%
X82500000Y-110750000D03*
%TD*%
%TO.P,C3,1*%
%TO.N,GND*%
X109660000Y-55960000D03*
%TO.P,C3,2*%
%TO.N,5V_MAIN*%
X109660000Y-63460000D03*
%TD*%
%TO.P,C1,1*%
%TO.N,5V_MAIN*%
X77550000Y-135500000D03*
%TO.P,C1,2*%
%TO.N,GND*%
X70050000Y-135500000D03*
%TD*%
%TO.P,C9,1*%
%TO.N,speaker_front_pre+*%
X61250000Y-149750000D03*
%TO.P,C9,2*%
%TO.N,Net-(U2-IN_A)*%
X68750000Y-149750000D03*
%TD*%
D21*
%TO.P,F1,1*%
%TO.N,5V_MAIN*%
X72500000Y-125250000D03*
D10*
%TO.P,F1,2*%
%TO.N,Net-(Q1-S)*%
X77500000Y-125250000D03*
%TD*%
D22*
%TO.P,C11,1*%
%TO.N,Net-(U2-OUT_A)*%
X66300000Y-140500000D03*
D12*
%TO.P,C11,2*%
%TO.N,speaker_front+*%
X62500000Y-140500000D03*
%TD*%
D17*
%TO.P,J2,1,Pin_1*%
%TO.N,key_col_3*%
X42500000Y-50000000D03*
D18*
%TO.P,J2,2,Pin_2*%
%TO.N,key_col_4*%
X42500000Y-47460000D03*
%TO.P,J2,3,Pin_3*%
%TO.N,key_col_2*%
X45040000Y-50000000D03*
%TO.P,J2,4,Pin_4*%
%TO.N,key_col_5*%
X45040000Y-47460000D03*
%TO.P,J2,5,Pin_5*%
%TO.N,key_col_1*%
X47580000Y-50000000D03*
%TO.P,J2,6,Pin_6*%
%TO.N,key_col_6*%
X47580000Y-47460000D03*
%TO.P,J2,7,Pin_7*%
%TO.N,key_row_1*%
X50120000Y-50000000D03*
%TO.P,J2,8,Pin_8*%
%TO.N,key_col_7*%
X50120000Y-47460000D03*
%TO.P,J2,9,Pin_9*%
%TO.N,key_row_2*%
X52660000Y-50000000D03*
%TO.P,J2,10,Pin_10*%
%TO.N,key_hook_up*%
X52660000Y-47460000D03*
%TO.P,J2,11,Pin_11*%
%TO.N,key_row_3*%
X55200000Y-50000000D03*
%TO.P,J2,12,Pin_12*%
%TO.N,key_hook_common*%
X55200000Y-47460000D03*
%TO.P,J2,13,Pin_13*%
%TO.N,key_row_4*%
X57740000Y-50000000D03*
%TO.P,J2,14,Pin_14*%
%TO.N,key_hook_down*%
X57740000Y-47460000D03*
%TO.P,J2,15,Pin_15*%
%TO.N,unconnected-(J2-Pin_15-Pad15)*%
X60280000Y-50000000D03*
%TO.P,J2,16,Pin_16*%
%TO.N,unconnected-(J2-Pin_16-Pad16)*%
X60280000Y-47460000D03*
%TO.P,J2,17,Pin_17*%
%TO.N,unconnected-(J2-Pin_17-Pad17)*%
X62820000Y-50000000D03*
%TO.P,J2,18,Pin_18*%
%TO.N,unconnected-(J2-Pin_18-Pad18)*%
X62820000Y-47460000D03*
%TO.P,J2,19,Pin_19*%
%TO.N,speaker_front+*%
X65360000Y-50000000D03*
%TO.P,J2,20,Pin_20*%
%TO.N,GND*%
X65360000Y-47460000D03*
%TD*%
D13*
%TO.P,D1,1,1*%
%TO.N,speaker_receiver+*%
X105920000Y-134250000D03*
D14*
%TO.P,D1,2,2*%
%TO.N,GND*%
X116080000Y-134250000D03*
%TD*%
D12*
%TO.P,C4,1*%
%TO.N,12V_COIN*%
X109660000Y-52550000D03*
%TO.P,C4,2*%
%TO.N,GND*%
X109660000Y-45050000D03*
%TD*%
D20*
%TO.P,J5,1,SIG*%
%TO.N,mic+*%
X111850000Y-152250000D03*
%TO.P,J5,2,SHEILD*%
%TO.N,GND*%
X116650000Y-154250000D03*
%TO.P,J5,3,SW*%
%TO.N,mic+*%
X116650000Y-147250000D03*
%TD*%
D13*
%TO.P,D2,1,1*%
%TO.N,speaker_front+*%
X59920000Y-117500000D03*
D14*
%TO.P,D2,2,2*%
%TO.N,GND*%
X70080000Y-117500000D03*
%TD*%
D10*
%TO.P,TP4,1,1*%
%TO.N,sda*%
X49750000Y-87750000D03*
%TD*%
D23*
%TO.P,A3,1,3V3[1]*%
%TO.N,3.3V*%
X91750000Y-121630000D03*
D24*
%TO.P,A3,2,5V[1]*%
%TO.N,5V_MAIN*%
X89210000Y-121630000D03*
%TO.P,A3,3,GPIO2/SDA*%
%TO.N,unconnected-(A3-GPIO2{slash}SDA-Pad3)*%
X91750000Y-119090000D03*
%TO.P,A3,4,5V[2]*%
%TO.N,5V_MAIN*%
X89210000Y-119090000D03*
%TO.P,A3,5,GPIO3/SCL*%
%TO.N,unconnected-(A3-GPIO3{slash}SCL-Pad5)*%
X91750000Y-116550000D03*
%TO.P,A3,6,GND[8]*%
%TO.N,GND*%
X89210000Y-116550000D03*
%TO.P,A3,7,GPIO4/GPCKL0*%
%TO.N,unconnected-(A3-GPIO4{slash}GPCKL0-Pad7)*%
X91750000Y-114010000D03*
%TO.P,A3,8,TXD0/GPIO14*%
%TO.N,unconnected-(A3-TXD0{slash}GPIO14-Pad8)*%
X89210000Y-114010000D03*
%TO.P,A3,9,GND[1]*%
%TO.N,GND*%
X91750000Y-111470000D03*
%TO.P,A3,10,RXD0/GPIO15*%
%TO.N,unconnected-(A3-RXD0{slash}GPIO15-Pad10)*%
X89210000Y-111470000D03*
%TO.P,A3,11,GPIO17/GEN0*%
%TO.N,PI_RESET1*%
X91750000Y-108930000D03*
%TO.P,A3,12,GPIO18*%
%TO.N,unconnected-(A3-GPIO18-Pad12)*%
X89210000Y-108930000D03*
%TO.P,A3,13,GPIO27/GEN2*%
%TO.N,PI_RESET2*%
X91750000Y-106390000D03*
%TO.P,A3,14,GND[4]*%
%TO.N,GND*%
X89210000Y-106390000D03*
%TO.P,A3,15,GPIO22/GEN3*%
%TO.N,unconnected-(A3-GPIO22{slash}GEN3-Pad15)*%
X91750000Y-103850000D03*
%TO.P,A3,16,GEN4/GPIO23*%
%TO.N,unconnected-(A3-GEN4{slash}GPIO23-Pad16)*%
X89210000Y-103850000D03*
%TO.P,A3,17,3V3[2]*%
%TO.N,3.3V*%
X91750000Y-101310000D03*
%TO.P,A3,18,GEN5/GPIO24*%
%TO.N,unconnected-(A3-GEN5{slash}GPIO24-Pad18)*%
X89210000Y-101310000D03*
%TO.P,A3,19,GPIO10/MOSI*%
%TO.N,mosi*%
X91750000Y-98770000D03*
%TO.P,A3,20,GND[5]*%
%TO.N,GND*%
X89210000Y-98770000D03*
%TO.P,A3,21,GPIO9/MISO*%
%TO.N,miso*%
X91750000Y-96230000D03*
%TO.P,A3,22,GEN/6GPIO25*%
%TO.N,unconnected-(A3-GEN{slash}6GPIO25-Pad22)*%
X89210000Y-96230000D03*
%TO.P,A3,23,GPIO11/SCLK*%
%TO.N,sck*%
X91750000Y-93690000D03*
%TO.P,A3,24,~{CE0}/GPIO8*%
%TO.N,unconnected-(A3-~{CE0}{slash}GPIO8-Pad24)*%
X89210000Y-93690000D03*
%TO.P,A3,25,GND[2]*%
%TO.N,GND*%
X91750000Y-91150000D03*
%TO.P,A3,26,~{CE1}/~{GPIO7}*%
%TO.N,unconnected-(A3-~{CE1}{slash}~{GPIO7}-Pad26)*%
X89210000Y-91150000D03*
%TO.P,A3,27,ID_SD*%
%TO.N,unconnected-(A3-ID_SD-Pad27)*%
X91750000Y-88610000D03*
%TO.P,A3,28,ID_SC*%
%TO.N,unconnected-(A3-ID_SC-Pad28)*%
X89210000Y-88610000D03*
%TO.P,A3,29,GPIO5*%
%TO.N,unconnected-(A3-GPIO5-Pad29)*%
X91750000Y-86070000D03*
%TO.P,A3,30,GND[6]*%
%TO.N,GND*%
X89210000Y-86070000D03*
%TO.P,A3,31,GPIO6*%
%TO.N,unconnected-(A3-GPIO6-Pad31)*%
X91750000Y-83530000D03*
%TO.P,A3,32,GPIO12*%
%TO.N,unconnected-(A3-GPIO12-Pad32)*%
X89210000Y-83530000D03*
%TO.P,A3,33,GPIO13*%
%TO.N,unconnected-(A3-GPIO13-Pad33)*%
X91750000Y-80990000D03*
%TO.P,A3,34,GND[7]*%
%TO.N,GND*%
X89210000Y-80990000D03*
%TO.P,A3,35,GPIO19*%
%TO.N,unconnected-(A3-GPIO19-Pad35)*%
X91750000Y-78450000D03*
%TO.P,A3,36,GPIO16*%
%TO.N,unconnected-(A3-GPIO16-Pad36)*%
X89210000Y-78450000D03*
%TO.P,A3,37,GPIO26*%
%TO.N,ss*%
X91750000Y-75910000D03*
%TO.P,A3,38,GPIO20*%
%TO.N,unconnected-(A3-GPIO20-Pad38)*%
X89210000Y-75910000D03*
%TO.P,A3,39,GND[3]*%
%TO.N,GND*%
X91750000Y-73370000D03*
%TO.P,A3,40,GPIO21*%
%TO.N,unconnected-(A3-GPIO21-Pad40)*%
X89210000Y-73370000D03*
%TD*%
D11*
%TO.P,C12,1*%
%TO.N,Net-(U2-OUT_B)*%
X85750000Y-153250000D03*
D12*
%TO.P,C12,2*%
%TO.N,speaker_receiver+*%
X89550000Y-153250000D03*
%TD*%
D25*
%TO.P,A1,*%
%TO.N,*%
X64650000Y-107990000D03*
X67190000Y-107990000D03*
%TO.P,A1,3V3,3.3V*%
%TO.N,3.3V*%
X44330000Y-107990000D03*
%TO.P,A1,5V,5V*%
%TO.N,5V_MAIN*%
X69730000Y-107990000D03*
%TO.P,A1,A0,A0*%
%TO.N,key_col_5*%
X49410000Y-107990000D03*
%TO.P,A1,A1,A1*%
%TO.N,key_col_6*%
X51950000Y-107990000D03*
%TO.P,A1,A2,A2*%
%TO.N,key_col_7*%
X54490000Y-107990000D03*
%TO.P,A1,A3,A3*%
%TO.N,key_hook_common*%
X57030000Y-107990000D03*
%TO.P,A1,A4,A4*%
%TO.N,mag_cls*%
X59570000Y-107990000D03*
%TO.P,A1,A5,A5*%
%TO.N,unconnected-(A1-PadA5)*%
X62110000Y-107990000D03*
%TO.P,A1,AREF,AREF*%
%TO.N,unconnected-(A1-PadAREF)*%
X46870000Y-107990000D03*
%TO.P,A1,D0,D0/RX*%
%TO.N,mag_rdt*%
X74810000Y-92750000D03*
%TO.P,A1,D1,D1/TX*%
%TO.N,mag_rcl*%
X77350000Y-92750000D03*
%TO.P,A1,D2,D2/SDA*%
%TO.N,sda*%
X67190000Y-92750000D03*
%TO.P,A1,D3,D3/SCL*%
%TO.N,scl*%
X64650000Y-92750000D03*
%TO.P,A1,D4,D4*%
%TO.N,key_hook_down*%
X62110000Y-92750000D03*
%TO.P,A1,D5,D5*%
%TO.N,key_hook_up*%
X59570000Y-92750000D03*
%TO.P,A1,D6,D6*%
%TO.N,key_row_4*%
X57030000Y-92750000D03*
%TO.P,A1,D7,D7_INT4*%
%TO.N,key_row_3*%
X54490000Y-92750000D03*
%TO.P,A1,D8,D8*%
%TO.N,key_row_2*%
X51950000Y-92750000D03*
%TO.P,A1,D9,D9*%
%TO.N,key_row_1*%
X49410000Y-92750000D03*
%TO.P,A1,D10,D10*%
%TO.N,key_col_1*%
X46870000Y-92750000D03*
%TO.P,A1,D11,D11*%
%TO.N,key_col_2*%
X44330000Y-92750000D03*
%TO.P,A1,D12,D12*%
%TO.N,key_col_3*%
X41790000Y-92750000D03*
%TO.P,A1,D13,D13*%
%TO.N,key_col_4*%
X41790000Y-107990000D03*
D26*
%TO.P,A1,GND1,GND*%
%TO.N,GND*%
X74810000Y-107990000D03*
%TO.P,A1,GND2,GND*%
X69730000Y-92750000D03*
D25*
%TO.P,A1,MISO,SPI_MISO*%
%TO.N,miso*%
X79890000Y-107990000D03*
D27*
%TO.P,A1,MOSI,SPI_MOSI*%
%TO.N,mosi*%
X82430000Y-92750000D03*
D25*
%TO.P,A1,RST1,RESET*%
%TO.N,RESET1*%
X72270000Y-107990000D03*
%TO.P,A1,RST2,RESET*%
%TO.N,unconnected-(A1-RESET-PadRST2)*%
X72270000Y-92750000D03*
%TO.P,A1,SCK,SPI_SCK*%
%TO.N,sck*%
X82430000Y-107990000D03*
%TO.P,A1,SS,SPI_CS*%
%TO.N,ss*%
X79890000Y-92750000D03*
%TO.P,A1,VIN,VIN*%
%TO.N,5V_MAIN*%
X77350000Y-107990000D03*
%TD*%
D19*
%TO.P,R5,1*%
%TO.N,PI_RESET2*%
X68940000Y-112500000D03*
%TO.P,R5,2*%
%TO.N,RESET2*%
X76560000Y-112500000D03*
%TD*%
D17*
%TO.P,J6,1,Pin_1*%
%TO.N,unconnected-(J6-Pin_1-Pad1)*%
X85870000Y-61000000D03*
D18*
%TO.P,J6,2,Pin_2*%
%TO.N,GND*%
X85870000Y-58460000D03*
%TO.P,J6,3,Pin_3*%
%TO.N,unconnected-(J6-Pin_3-Pad3)*%
X88410000Y-61000000D03*
%TO.P,J6,4,Pin_4*%
%TO.N,mag_rdt*%
X88410000Y-58460000D03*
%TO.P,J6,5,Pin_5*%
%TO.N,unconnected-(J6-Pin_5-Pad5)*%
X90950000Y-61000000D03*
%TO.P,J6,6,Pin_6*%
%TO.N,mag_rcl*%
X90950000Y-58460000D03*
%TO.P,J6,7,Pin_7*%
%TO.N,unconnected-(J6-Pin_7-Pad7)*%
X93490000Y-61000000D03*
%TO.P,J6,8,Pin_8*%
%TO.N,unconnected-(J6-Pin_8-Pad8)*%
X93490000Y-58460000D03*
%TO.P,J6,9,Pin_9*%
%TO.N,mag_cls*%
X96030000Y-61000000D03*
%TO.P,J6,10,Pin_10*%
%TO.N,unconnected-(J6-Pin_10-Pad10)*%
X96030000Y-58460000D03*
%TO.P,J6,11,Pin_11*%
%TO.N,5V_MAIN*%
X98570000Y-61000000D03*
%TO.P,J6,12,Pin_12*%
%TO.N,mag_cls*%
X98570000Y-58460000D03*
%TO.P,J6,13,Pin_13*%
%TO.N,unconnected-(J6-Pin_13-Pad13)*%
X101110000Y-61000000D03*
%TO.P,J6,14,Pin_14*%
%TO.N,unconnected-(J6-Pin_14-Pad14)*%
X101110000Y-58460000D03*
%TD*%
D10*
%TO.P,TP5,1,1*%
%TO.N,scl*%
X75750000Y-87750000D03*
%TD*%
D25*
%TO.P,A2,*%
%TO.N,*%
X64630000Y-84240000D03*
X67170000Y-84240000D03*
%TO.P,A2,3V3,3.3V*%
%TO.N,3.3V*%
X44310000Y-84240000D03*
%TO.P,A2,5V,5V*%
%TO.N,5V_MAIN*%
X69710000Y-84240000D03*
%TO.P,A2,A0,A0*%
%TO.N,unconnected-(A2-PadA0)*%
X49390000Y-84240000D03*
%TO.P,A2,A1,A1*%
%TO.N,unconnected-(A2-PadA1)*%
X51930000Y-84240000D03*
%TO.P,A2,A2,A2*%
%TO.N,unconnected-(A2-PadA2)*%
X54470000Y-84240000D03*
%TO.P,A2,A3,A3*%
%TO.N,unconnected-(A2-PadA3)*%
X57010000Y-84240000D03*
%TO.P,A2,A4,A4*%
%TO.N,unconnected-(A2-PadA4)*%
X59550000Y-84240000D03*
%TO.P,A2,A5,A5*%
%TO.N,coin_tx*%
X62090000Y-84240000D03*
%TO.P,A2,AREF,AREF*%
%TO.N,unconnected-(A2-PadAREF)*%
X46850000Y-84240000D03*
%TO.P,A2,D0,D0/RX*%
%TO.N,disp_x2*%
X74790000Y-69000000D03*
%TO.P,A2,D1,D1/TX*%
%TO.N,disp_x3*%
X77330000Y-69000000D03*
%TO.P,A2,D2,D2/SDA*%
%TO.N,sda*%
X67170000Y-69000000D03*
%TO.P,A2,D3,D3/SCL*%
%TO.N,scl*%
X64630000Y-69000000D03*
%TO.P,A2,D4,D4*%
%TO.N,disp_x1*%
X62090000Y-69000000D03*
%TO.P,A2,D5,D5*%
%TO.N,disp_d0*%
X59550000Y-69000000D03*
%TO.P,A2,D6,D6*%
%TO.N,disp_d1*%
X57010000Y-69000000D03*
%TO.P,A2,D7,D7_INT4*%
%TO.N,disp_d2*%
X54470000Y-69000000D03*
%TO.P,A2,D8,D8*%
%TO.N,disp_d3*%
X51930000Y-69000000D03*
%TO.P,A2,D9,D9*%
%TO.N,disp_d4*%
X49390000Y-69000000D03*
%TO.P,A2,D10,D10*%
%TO.N,disp_d5*%
X46850000Y-69000000D03*
%TO.P,A2,D11,D11*%
%TO.N,disp_d6*%
X44310000Y-69000000D03*
%TO.P,A2,D12,D12*%
%TO.N,disp_d7*%
X41770000Y-69000000D03*
%TO.P,A2,D13,D13*%
%TO.N,disp_x6*%
X41770000Y-84240000D03*
D26*
%TO.P,A2,GND1,GND*%
%TO.N,GND*%
X74790000Y-84240000D03*
%TO.P,A2,GND2,GND*%
X69710000Y-69000000D03*
D25*
%TO.P,A2,MISO,SPI_MISO*%
%TO.N,coin_rx*%
X79870000Y-84240000D03*
D27*
%TO.P,A2,MOSI,SPI_MOSI*%
%TO.N,disp_x5*%
X82410000Y-69000000D03*
D25*
%TO.P,A2,RST1,RESET*%
%TO.N,RESET2*%
X72250000Y-84240000D03*
%TO.P,A2,RST2,RESET*%
%TO.N,unconnected-(A2-RESET-PadRST2)*%
X72250000Y-69000000D03*
%TO.P,A2,SCK,SPI_SCK*%
%TO.N,coin_reset*%
X82410000Y-84240000D03*
%TO.P,A2,SS,SPI_CS*%
%TO.N,disp_x4*%
X79870000Y-69000000D03*
%TO.P,A2,VIN,VIN*%
%TO.N,5V_MAIN*%
X77330000Y-84240000D03*
%TD*%
D19*
%TO.P,R1,1*%
%TO.N,5V_MAIN*%
X63690000Y-87000000D03*
%TO.P,R1,2*%
%TO.N,sda*%
X71310000Y-87000000D03*
%TD*%
D12*
%TO.P,C6,1*%
%TO.N,5V_MAIN*%
X81250000Y-142250000D03*
%TO.P,C6,2*%
%TO.N,GND*%
X73750000Y-142250000D03*
%TD*%
D28*
%TO.P,J4,1*%
%TO.N,mic+*%
X96440000Y-144650000D03*
D16*
%TO.P,J4,2*%
%TO.N,speaker_receiver+*%
X97710000Y-142110000D03*
%TO.P,J4,3*%
%TO.N,GND*%
X98980000Y-144650000D03*
%TO.P,J4,4*%
X100250000Y-142110000D03*
%TD*%
D19*
%TO.P,R2,1*%
%TO.N,5V_MAIN*%
X53960000Y-87000000D03*
%TO.P,R2,2*%
%TO.N,scl*%
X61580000Y-87000000D03*
%TD*%
D11*
%TO.P,C7,1*%
%TO.N,5V_MAIN*%
X85750000Y-141000000D03*
D12*
%TO.P,C7,2*%
%TO.N,GND*%
X89550000Y-141000000D03*
%TD*%
D10*
%TO.P,TP3,1,1*%
%TO.N,GND*%
X67500000Y-130750000D03*
%TD*%
D12*
%TO.P,C2,1*%
%TO.N,5V_MAIN*%
X79250000Y-118250000D03*
%TO.P,C2,2*%
%TO.N,GND*%
X79250000Y-110750000D03*
%TD*%
D29*
%TO.P,Q1,1,G*%
%TO.N,GND*%
X95920000Y-138750000D03*
D30*
%TO.P,Q1,2,S*%
%TO.N,Net-(Q1-S)*%
X101000000Y-138750000D03*
%TO.P,Q1,3,D*%
%TO.N,BOOST_IN+*%
X98460000Y-138750000D03*
%TD*%
D11*
%TO.P,C8,1*%
%TO.N,Net-(U2-RIPPLE)*%
X82050000Y-133000000D03*
D12*
%TO.P,C8,2*%
%TO.N,GND*%
X84050000Y-133000000D03*
%TD*%
D31*
%TO.P,U1,1,IN+*%
%TO.N,BOOST_IN+*%
X38801900Y-151221600D03*
%TO.P,U1,2,IN-*%
%TO.N,GND*%
X55972300Y-151221600D03*
%TO.P,U1,3,OUT-*%
X55972300Y-111750000D03*
%TO.P,U1,4,OUT+*%
%TO.N,12V_COIN*%
X38827300Y-111750000D03*
%TD*%
D12*
%TO.P,C10,1*%
%TO.N,speaker_receiver_pre+*%
X61250000Y-156000000D03*
%TO.P,C10,2*%
%TO.N,Net-(U2-IN_B)*%
X68750000Y-156000000D03*
%TD*%
D32*
%TO.N,mag_cls*%
X93574800Y-106103900D03*
%TO.N,key_hook_up*%
X59090800Y-89520000D03*
X69777100Y-72587900D03*
X66766300Y-48730000D03*
%TO.N,12V_COIN*%
X38590300Y-57607600D03*
%TO.N,coin_tx*%
X78696700Y-48893800D03*
X71272200Y-74000300D03*
%TO.N,key_col_5*%
X37815900Y-110181500D03*
%TO.N,key_col_6*%
X48962900Y-60060800D03*
X48749100Y-62751100D03*
%TO.N,key_col_7*%
X41166600Y-65607000D03*
X51999500Y-86054300D03*
X43735400Y-70735100D03*
X42165600Y-56118700D03*
X45295700Y-82785800D03*
%TD*%
D33*
%TO.N,3.3V*%
X89184400Y-123250000D02*
X90669300Y-121765100D01*
X82000000Y-123250000D02*
X89184400Y-123250000D01*
X90669300Y-121765100D02*
X90669300Y-121630000D01*
X50717200Y-102421100D02*
X45520300Y-107618000D01*
X45520300Y-107618000D02*
X45520300Y-107990000D01*
X91750000Y-121630000D02*
X90669300Y-121630000D01*
X90638900Y-102421100D02*
X50717200Y-102421100D01*
X91750000Y-101310000D02*
X90638900Y-102421100D01*
X44330000Y-107990000D02*
X45520300Y-107990000D01*
%TO.N,mag_cls*%
X59570000Y-107990000D02*
X60760300Y-107990000D01*
X60760300Y-107990000D02*
X60760300Y-107618000D01*
X98570000Y-58460000D02*
X96030000Y-61000000D01*
X60760300Y-107618000D02*
X63069000Y-105309300D01*
X92780200Y-105309300D02*
X93574800Y-106103900D01*
X63069000Y-105309300D02*
X92780200Y-105309300D01*
%TO.N,mosi*%
X87180000Y-97500000D02*
X82430000Y-92750000D01*
X90480000Y-97500000D02*
X87180000Y-97500000D01*
X91750000Y-98770000D02*
X90480000Y-97500000D01*
%TO.N,RESET1*%
X72270000Y-107990000D02*
X71079700Y-107990000D01*
X71079700Y-108343800D02*
X71079700Y-107990000D01*
X66810000Y-112500000D02*
X66923500Y-112500000D01*
X66923500Y-112500000D02*
X71079700Y-108343800D01*
%TO.N,disp_x3*%
X77330000Y-69000000D02*
X76139700Y-69000000D01*
X68551800Y-61040000D02*
X67900000Y-61040000D01*
X76139700Y-68627900D02*
X68551800Y-61040000D01*
X76139700Y-69000000D02*
X76139700Y-68627900D01*
%TO.N,disp_x2*%
X73599700Y-68627900D02*
X66011800Y-61040000D01*
X73599700Y-69000000D02*
X73599700Y-68627900D01*
X74790000Y-69000000D02*
X73599700Y-69000000D01*
X66011800Y-61040000D02*
X65360000Y-61040000D01*
%TO.N,disp_x4*%
X71091800Y-61040000D02*
X78679700Y-68627900D01*
X78679700Y-68627900D02*
X78679700Y-69000000D01*
X79870000Y-69000000D02*
X78679700Y-69000000D01*
X70440000Y-61040000D02*
X71091800Y-61040000D01*
%TO.N,disp_x5*%
X74450000Y-61040000D02*
X82410000Y-69000000D01*
X72980000Y-61040000D02*
X74450000Y-61040000D01*
%TO.N,sda*%
X65999700Y-92377900D02*
X65181500Y-91559700D01*
X65999700Y-92750000D02*
X65999700Y-92377900D01*
X67190000Y-92750000D02*
X65999700Y-92750000D01*
X65181500Y-91559700D02*
X53559700Y-91559700D01*
X53559700Y-91559700D02*
X49750000Y-87750000D01*
%TO.N,scl*%
X75465700Y-88034300D02*
X75750000Y-87750000D01*
X62614300Y-88034300D02*
X75465700Y-88034300D01*
X61580000Y-87000000D02*
X62614300Y-88034300D01*
%TO.N,disp_x6*%
X65360000Y-58500000D02*
X64165000Y-59695000D01*
X64165000Y-62561400D02*
X58280000Y-68446400D01*
X58280000Y-68446400D02*
X58280000Y-69483200D01*
X58280000Y-69483200D02*
X45704100Y-82059100D01*
X64165000Y-59695000D02*
X64165000Y-62561400D01*
X43778500Y-83049700D02*
X42960300Y-83867900D01*
X44994800Y-82059100D02*
X44004300Y-83049600D01*
X41770000Y-84240000D02*
X42960300Y-84240000D01*
X45704100Y-82059100D02*
X44994800Y-82059100D01*
X44004300Y-83049700D02*
X43778500Y-83049700D01*
X42960300Y-83867900D02*
X42960300Y-84240000D01*
X44004300Y-83049600D02*
X44004300Y-83049700D01*
%TO.N,PI_RESET1*%
X91750000Y-108930000D02*
X90604800Y-110075200D01*
X84768300Y-110075200D02*
X81314000Y-113529500D01*
X60219500Y-113529500D02*
X59190000Y-112500000D01*
X90604800Y-110075200D02*
X84768300Y-110075200D01*
X81314000Y-113529500D02*
X60219500Y-113529500D01*
%TO.N,PI_RESET2*%
X91750000Y-106390000D02*
X90480000Y-107660000D01*
X88485700Y-107660000D02*
X86850200Y-109295500D01*
X86850200Y-109295500D02*
X72144500Y-109295500D01*
X90480000Y-107660000D02*
X88485700Y-107660000D01*
X72144500Y-109295500D02*
X68940000Y-112500000D01*
%TO.N,mic+*%
X116650000Y-147275000D02*
X116650000Y-148476700D01*
X96440000Y-144650000D02*
X97666700Y-143423300D01*
X109723300Y-141250000D02*
X105920000Y-141250000D01*
X112776700Y-152250000D02*
X116550000Y-148476700D01*
X115723300Y-147250000D02*
X109723300Y-141250000D01*
X111850000Y-152250000D02*
X112776700Y-152250000D01*
X116650000Y-147250000D02*
X115723300Y-147250000D01*
X103746700Y-143423300D02*
X105920000Y-141250000D01*
X116550000Y-148476700D02*
X116650000Y-148476700D01*
X97666700Y-143423300D02*
X103746700Y-143423300D01*
X116650000Y-147275000D02*
X116650000Y-147250000D01*
%TO.N,speaker_receiver+*%
X105920000Y-134250000D02*
X105920000Y-135710400D01*
X99091400Y-140728600D02*
X97710000Y-142110000D01*
X100901800Y-140728600D02*
X99091400Y-140728600D01*
X105920000Y-135710400D02*
X100901800Y-140728600D01*
%TO.N,key_hook_up*%
X66766300Y-48730000D02*
X53930000Y-48730000D01*
X58330700Y-88759900D02*
X58330700Y-83755700D01*
X53930000Y-48730000D02*
X52660000Y-47460000D01*
X58330700Y-83755700D02*
X69498500Y-72587900D01*
X59090800Y-89520000D02*
X58330700Y-88759900D01*
X69498500Y-72587900D02*
X69777100Y-72587900D01*
%TO.N,12V_COIN*%
X103460000Y-52550000D02*
X100910000Y-50000000D01*
X38590300Y-57607600D02*
X39352500Y-56845400D01*
X39352500Y-56845400D02*
X94064600Y-56845400D01*
X94064600Y-56845400D02*
X100910000Y-50000000D01*
X109660000Y-52550000D02*
X103460000Y-52550000D01*
%TO.N,coin_tx*%
X62222800Y-83049700D02*
X71272200Y-74000300D01*
X78696700Y-48893800D02*
X89316200Y-48893800D01*
X62090000Y-84240000D02*
X62090000Y-83049700D01*
X62090000Y-83049700D02*
X62222800Y-83049700D01*
X89316200Y-48893800D02*
X90750000Y-47460000D01*
%TO.N,key_col_2*%
X43856500Y-48816500D02*
X41665100Y-48816500D01*
X41665100Y-48816500D02*
X37360800Y-53120800D01*
X37360800Y-84590500D02*
X44330000Y-91559700D01*
X37360800Y-53120800D02*
X37360800Y-84590500D01*
X44330000Y-92750000D02*
X44330000Y-91559700D01*
X45040000Y-50000000D02*
X43856500Y-48816500D01*
%TO.N,key_col_5*%
X49410000Y-107990000D02*
X48219700Y-107990000D01*
X46400200Y-110181500D02*
X48219700Y-108362000D01*
X37815900Y-110181500D02*
X46400200Y-110181500D01*
X48219700Y-108362000D02*
X48219700Y-107990000D01*
%TO.N,key_col_6*%
X48962900Y-60060800D02*
X48850000Y-60173700D01*
X48850000Y-62650200D02*
X48749100Y-62751100D01*
X48850000Y-60173700D02*
X48850000Y-62650200D01*
%TO.N,key_row_1*%
X48943300Y-51176700D02*
X43958800Y-51176700D01*
X40561100Y-81402800D02*
X40561100Y-84759900D01*
X50120000Y-50000000D02*
X48943300Y-51176700D01*
X47360900Y-91559700D02*
X47468400Y-91559700D01*
X49410000Y-92750000D02*
X48219700Y-92750000D01*
X40561100Y-84759900D02*
X47360900Y-91559700D01*
X37836400Y-57299100D02*
X37836400Y-78678100D01*
X47468400Y-91559700D02*
X48219700Y-92311000D01*
X43958800Y-51176700D02*
X37836400Y-57299100D01*
X37836400Y-78678100D02*
X40561100Y-81402800D01*
X48219700Y-92311000D02*
X48219700Y-92750000D01*
%TO.N,key_col_7*%
X50120000Y-47460000D02*
X51318000Y-48658000D01*
X48141300Y-53645100D02*
X44639100Y-53645100D01*
X51318000Y-50468400D02*
X48141300Y-53645100D01*
X46942600Y-86054300D02*
X51999500Y-86054300D01*
X42961500Y-69961200D02*
X43735400Y-70735100D01*
X44639100Y-53645100D02*
X44639100Y-53645200D01*
X42961500Y-67401900D02*
X42961500Y-69961200D01*
X44639100Y-53645200D02*
X42165600Y-56118700D01*
X45295700Y-82785800D02*
X45580000Y-83070100D01*
X41166600Y-65607000D02*
X42961500Y-67401900D01*
X45580000Y-84691700D02*
X46942600Y-86054300D01*
X45580000Y-83070100D02*
X45580000Y-84691700D01*
X51318000Y-48658000D02*
X51318000Y-50468400D01*
%TO.N,speaker_front_pre+*%
X109223300Y-147250000D02*
X109030100Y-147056800D01*
X109030100Y-147056800D02*
X90028500Y-147056800D01*
X110150000Y-147250000D02*
X109223300Y-147250000D01*
X63463300Y-151963300D02*
X61250000Y-149750000D01*
X85122000Y-151963300D02*
X63463300Y-151963300D01*
X90028500Y-147056800D02*
X85122000Y-151963300D01*
%TO.N,speaker_receiver_pre+*%
X105350000Y-152250000D02*
X104423300Y-152250000D01*
X61250000Y-156000000D02*
X62737300Y-154512700D01*
X102160600Y-154512700D02*
X104423300Y-152250000D01*
X62737300Y-154512700D02*
X102160600Y-154512700D01*
%TO.N,Net-(Q1-S)*%
X93514800Y-131264800D02*
X101000000Y-138750000D01*
X83514800Y-131264800D02*
X93514800Y-131264800D01*
X77500000Y-125250000D02*
X83514800Y-131264800D01*
%TO.N,BOOST_IN+*%
X42524800Y-148587400D02*
X71990200Y-148587400D01*
X39890600Y-151221600D02*
X42524800Y-148587400D01*
X38801900Y-151221600D02*
X39890600Y-151221600D01*
X72782500Y-149379700D02*
X85378100Y-149379700D01*
X96931600Y-140278400D02*
X98460000Y-138750000D01*
X71990200Y-148587400D02*
X72782500Y-149379700D01*
X85378100Y-149379700D02*
X94479400Y-140278400D01*
X94479400Y-140278400D02*
X96931600Y-140278400D01*
%TO.N,Net-(D4-A)*%
X81120000Y-52620000D02*
X77000000Y-48500000D01*
X81750000Y-52620000D02*
X81120000Y-52620000D01*
%TO.N,Net-(U2-IN_B)*%
X68880000Y-155870000D02*
X68750000Y-156000000D01*
X73680000Y-155870000D02*
X68880000Y-155870000D01*
%TD*%
M02*
