M48
; DRILL file {KiCad 7.0.9} date Monday, January 29, 2024 at 07:46:45 PM
; FORMAT={-:-/ absolute / inch / decimal}
; #@! TF.CreationDate,2024-01-29T19:46:45-08:00
; #@! TF.GenerationSoftware,Kicad,Pcbnew,7.0.9
; #@! TF.FileFunction,Plated,1,2,PTH
FMAT,2
INCH
; #@! TA.AperFunction,Plated,PTH,ViaDrill
T1C0.0157
; #@! TA.AperFunction,Plated,PTH,ComponentDrill
T2C0.0276
; #@! TA.AperFunction,Plated,PTH,ComponentDrill
T3C0.0315
; #@! TA.AperFunction,Plated,PTH,ComponentDrill
T4C0.0320
; #@! TA.AperFunction,Plated,PTH,ComponentDrill
T5C0.0354
; #@! TA.AperFunction,Plated,PTH,ComponentDrill
T6C0.0394
; #@! TA.AperFunction,Plated,PTH,ComponentDrill
T7C0.0400
%
G90
G05
T1
X5.8Y-2.4
X5.9202Y-1.1202
T2
X5.6Y-1.65
X5.6Y-1.95
X5.7Y-1.65
X5.7Y-1.95
T3
X5.5504Y-3.1
X5.5524Y-3.5
X5.7Y-3.1
X5.8476Y-3.5
X5.9524Y-1.7
X6.0524Y-2.9
X6.2476Y-1.7
X6.3476Y-2.9
X6.4Y-3.0524
X6.4Y-3.3476
X7.4504Y-3.7
X7.6Y-3.7
X7.7Y0.0476
X7.7Y-0.2476
X7.7Y-0.3524
X7.7Y-0.6476
T4
X6.8Y-3.5
X6.8Y-3.8
X6.9Y-3.5
X6.9Y-3.8
X7.0Y-3.5
X7.0Y-3.8
X7.1Y-3.5
X7.1Y-3.8
T5
X6.8744Y-4.0425
X6.9244Y-3.9425
X6.9744Y-4.0425
X7.0244Y-3.9425
T6
X4.5576Y-4.4804
X4.5586Y-2.9264
X4.7Y0.0
X4.7Y-0.1
X4.7Y-0.5
X4.7Y-0.6
X4.8Y0.0
X4.8Y-0.1
X4.8Y-0.5
X4.8Y-0.6
X4.9Y0.0
X4.9Y-0.1
X4.9Y-0.5
X4.9Y-0.6
X5.0Y0.0
X5.0Y-0.1
X5.0Y-0.5
X5.0Y-0.6
X5.1Y0.0
X5.1Y-0.1
X5.1Y-0.5
X5.1Y-0.6
X5.2Y0.0
X5.2Y-0.1
X5.2Y-0.5
X5.2Y-0.6
X5.2336Y-2.9264
X5.2336Y-4.4804
X5.3Y0.0
X5.3Y-0.1
X5.3Y-0.5
X5.3Y-0.6
X5.4Y0.0
X5.4Y-0.1
X5.4Y-0.5
X5.4Y-0.6
X5.5Y0.0
X5.5Y-0.1
X5.5Y-0.5
X5.5Y-0.6
X5.6Y0.0
X5.6Y-0.1
X5.6Y-0.5
X5.6Y-0.6
X5.7Y-0.5
X5.7Y-0.6
X5.8Y-0.5
X5.8Y-0.6
X5.9Y-0.5
X5.9Y-0.6
X6.2504Y-3.7
X6.4Y-3.7
X6.65Y-1.1917
X6.65Y-1.2917
X6.65Y-1.3917
X6.65Y-1.4917
X6.65Y-1.5917
X6.65Y-1.6917
X6.65Y-1.7917
X6.65Y-1.8917
X6.65Y-1.9917
X6.65Y-2.0917
X6.65Y-2.1917
X6.65Y-2.2917
X6.65Y-2.3917
X6.65Y-2.4917
X6.65Y-2.5917
X6.65Y-2.6917
X6.65Y-2.7917
X6.65Y-2.8917
X6.65Y-2.9917
X6.65Y-3.0917
X6.7Y-0.5
X6.7Y-0.6
X6.75Y-1.1917
X6.75Y-1.2917
X6.75Y-1.3917
X6.75Y-1.4917
X6.75Y-1.5917
X6.75Y-1.6917
X6.75Y-1.7917
X6.75Y-1.8917
X6.75Y-1.9917
X6.75Y-2.0917
X6.75Y-2.1917
X6.75Y-2.2917
X6.75Y-2.3917
X6.75Y-2.4917
X6.75Y-2.5917
X6.75Y-2.6917
X6.75Y-2.7917
X6.75Y-2.8917
X6.75Y-2.9917
X6.75Y-3.0917
X6.8Y-0.5
X6.8Y-0.6
X6.9Y0.0
X6.9Y-0.1
X6.9Y-0.5
X6.9Y-0.6
X7.0Y0.0
X7.0Y-0.1
X7.0Y-0.5
X7.0Y-0.6
X7.1Y0.0
X7.1Y-0.1
X7.1Y-0.5
X7.1Y-0.6
X7.2Y0.0
X7.2Y-0.1
X7.2Y-0.5
X7.2Y-0.6
X7.3Y0.0
X7.3Y-0.1
X7.3Y-0.5
X7.3Y-0.6
T7
X4.7Y-0.9
X4.7Y-1.5
X4.7Y-2.1
X4.7Y-2.7
X4.8Y-0.9
X4.8Y-1.5
X4.8Y-2.1
X4.8Y-2.7
X4.9Y-0.9
X4.9Y-1.5
X4.9Y-2.1
X4.9Y-2.7
X5.0Y-0.9
X5.0Y-1.5
X5.0Y-2.1
X5.0Y-2.7
X5.1Y-0.9
X5.1Y-1.5
X5.1Y-2.1
X5.1Y-2.7
X5.2Y-0.9
X5.2Y-1.5
X5.2Y-2.1
X5.2Y-2.7
X5.3Y-0.9
X5.3Y-1.5
X5.3Y-2.1
X5.3Y-2.7
X5.4Y-0.9
X5.4Y-1.5
X5.4Y-2.1
X5.4Y-2.7
X5.5Y-0.9
X5.5Y-1.5
X5.5Y-2.1
X5.5Y-2.7
X5.6Y-0.9
X5.6Y-1.5
X5.6Y-2.1
X5.6Y-2.7
X5.7Y-0.9
X5.7Y-1.5
X5.7Y-2.1
X5.7Y-2.7
X5.8Y-0.9
X5.8Y-1.5
X5.8Y-2.1
X5.8Y-2.7
X5.9Y-0.9
X5.9Y-1.5
X5.9Y-2.1
X5.9Y-2.7
X6.0Y-0.9
X6.0Y-1.5
X6.0Y-2.1
X6.0Y-2.7
X6.1Y-0.9
X6.1Y-1.5
X6.1Y-2.1
X6.1Y-2.7
X6.2Y-0.9
X6.2Y-1.5
X6.2Y-2.1
X6.2Y-2.7
X6.3Y-0.9
X6.3Y-1.5
X6.3Y-2.1
X6.3Y-2.7
T2
G00X7.3Y-4.2898
M15
G01X7.3Y-4.3134
M16
G05
G00X7.489Y-4.0929
M15
G01X7.489Y-4.1165
M16
G05
G00X7.489Y-4.3685
M15
G01X7.489Y-4.3921
M16
G05
G00X7.6Y-4.2882
M15
G01X7.6Y-4.3118
M16
G05
G00X7.789Y-4.0913
M15
G01X7.789Y-4.115
M16
G05
G00X7.789Y-4.3669
M15
G01X7.789Y-4.3906
M16
G05
T0
M30
