M48
; DRILL file {KiCad 9.0.7} date 2026-02-25T22:15:36-0800
; FORMAT={-:-/ absolute / metric / decimal}
; #@! TF.CreationDate,2026-02-25T22:15:36-08:00
; #@! TF.GenerationSoftware,Kicad,Pcbnew,9.0.7
; #@! TF.FileFunction,Plated,1,4,PTH
FMAT,2
METRIC
; #@! TA.AperFunction,Plated,PTH,ViaDrill
T1C0.400
; #@! TA.AperFunction,Plated,PTH,ComponentDrill
T2C0.700
; #@! TA.AperFunction,Plated,PTH,ComponentDrill
T3C0.800
; #@! TA.AperFunction,Plated,PTH,ComponentDrill
T4C0.900
; #@! TA.AperFunction,Plated,PTH,ComponentDrill
T5C1.000
; #@! TA.AperFunction,Plated,PTH,ComponentDrill
T6C1.016
; #@! TA.AperFunction,Plated,PTH,ComponentDrill
T7C1.100
; #@! TA.AperFunction,Plated,PTH,ComponentDrill
T8C1.200
%
G90
G05
T1
X37.816Y-110.181
X38.59Y-57.608
X41.167Y-65.607
X42.166Y-56.119
X43.735Y-70.735
X45.296Y-82.786
X48.749Y-62.751
X48.963Y-60.061
X51.999Y-86.054
X59.091Y-89.52
X66.766Y-48.73
X69.777Y-72.588
X71.272Y-74.0
X78.697Y-48.894
X93.575Y-106.104
T2
X53.96Y-87.0
X59.19Y-112.5
X61.58Y-87.0
X63.69Y-87.0
X66.81Y-112.5
X68.94Y-112.5
X71.31Y-87.0
X76.56Y-112.5
X81.75Y-45.0
X81.75Y-52.62
T3
X61.25Y-149.75
X61.25Y-156.0
X62.5Y-140.5
X66.3Y-140.5
X68.75Y-149.75
X68.75Y-156.0
X70.05Y-135.5
X73.68Y-148.25
X73.68Y-150.79
X73.68Y-153.33
X73.68Y-155.87
X73.75Y-142.25
X77.55Y-135.5
X79.25Y-110.75
X79.25Y-118.25
X81.25Y-142.25
X81.3Y-148.25
X81.3Y-150.79
X81.3Y-153.33
X81.3Y-155.87
X82.05Y-133.0
X82.5Y-110.75
X82.5Y-118.25
X84.05Y-133.0
X85.75Y-141.0
X85.75Y-153.25
X89.55Y-141.0
X89.55Y-153.25
X109.66Y-45.05
X109.66Y-52.55
X109.66Y-55.96
X109.66Y-63.46
T4
X74.46Y-48.5
X77.0Y-48.5
X96.44Y-144.65
X97.71Y-142.11
X98.98Y-144.65
X100.25Y-142.11
T5
X38.802Y-151.222
X38.827Y-111.75
X42.5Y-47.46
X42.5Y-50.0
X42.5Y-58.5
X42.5Y-61.04
X45.04Y-47.46
X45.04Y-50.0
X45.04Y-58.5
X45.04Y-61.04
X47.58Y-47.46
X47.58Y-50.0
X47.58Y-58.5
X47.58Y-61.04
X49.75Y-87.75
X50.12Y-47.46
X50.12Y-50.0
X50.12Y-58.5
X50.12Y-61.04
X52.66Y-47.46
X52.66Y-50.0
X52.66Y-58.5
X52.66Y-61.04
X55.2Y-47.46
X55.2Y-50.0
X55.2Y-58.5
X55.2Y-61.04
X55.972Y-111.75
X55.972Y-151.222
X57.74Y-47.46
X57.74Y-50.0
X57.74Y-58.5
X57.74Y-61.04
X60.28Y-47.46
X60.28Y-50.0
X60.28Y-58.5
X60.28Y-61.04
X61.75Y-130.75
X62.82Y-47.46
X62.82Y-50.0
X62.82Y-58.5
X62.82Y-61.04
X65.36Y-47.46
X65.36Y-50.0
X65.36Y-58.5
X65.36Y-61.04
X67.5Y-130.75
X67.9Y-58.5
X67.9Y-61.04
X70.44Y-58.5
X70.44Y-61.04
X72.5Y-125.25
X72.98Y-58.5
X72.98Y-61.04
X75.75Y-87.75
X77.5Y-125.25
X82.0Y-123.25
X85.87Y-58.46
X85.87Y-61.0
X88.41Y-58.46
X88.41Y-61.0
X89.21Y-73.37
X89.21Y-75.91
X89.21Y-78.45
X89.21Y-80.99
X89.21Y-83.53
X89.21Y-86.07
X89.21Y-88.61
X89.21Y-91.15
X89.21Y-93.69
X89.21Y-96.23
X89.21Y-98.77
X89.21Y-101.31
X89.21Y-103.85
X89.21Y-106.39
X89.21Y-108.93
X89.21Y-111.47
X89.21Y-114.01
X89.21Y-116.55
X89.21Y-119.09
X89.21Y-121.63
X90.75Y-47.46
X90.75Y-50.0
X90.95Y-58.46
X90.95Y-61.0
X91.75Y-73.37
X91.75Y-75.91
X91.75Y-78.45
X91.75Y-80.99
X91.75Y-83.53
X91.75Y-86.07
X91.75Y-88.61
X91.75Y-91.15
X91.75Y-93.69
X91.75Y-96.23
X91.75Y-98.77
X91.75Y-101.31
X91.75Y-103.85
X91.75Y-106.39
X91.75Y-108.93
X91.75Y-111.47
X91.75Y-114.01
X91.75Y-116.55
X91.75Y-119.09
X91.75Y-121.63
X93.29Y-47.46
X93.29Y-50.0
X93.49Y-58.46
X93.49Y-61.0
X95.83Y-47.46
X95.83Y-50.0
X96.03Y-58.46
X96.03Y-61.0
X98.37Y-47.46
X98.37Y-50.0
X98.57Y-58.46
X98.57Y-61.0
X100.91Y-47.46
X100.91Y-50.0
X101.11Y-58.46
X101.11Y-61.0
T6
X41.77Y-69.0
X41.77Y-84.24
X41.79Y-92.75
X41.79Y-107.99
X44.31Y-69.0
X44.31Y-84.24
X44.33Y-92.75
X44.33Y-107.99
X46.85Y-69.0
X46.85Y-84.24
X46.87Y-92.75
X46.87Y-107.99
X49.39Y-69.0
X49.39Y-84.24
X49.41Y-92.75
X49.41Y-107.99
X51.93Y-69.0
X51.93Y-84.24
X51.95Y-92.75
X51.95Y-107.99
X54.47Y-69.0
X54.47Y-84.24
X54.49Y-92.75
X54.49Y-107.99
X57.01Y-69.0
X57.01Y-84.24
X57.03Y-92.75
X57.03Y-107.99
X59.55Y-69.0
X59.55Y-84.24
X59.57Y-92.75
X59.57Y-107.99
X62.09Y-69.0
X62.09Y-84.24
X62.11Y-92.75
X62.11Y-107.99
X64.63Y-69.0
X64.63Y-84.24
X64.65Y-92.75
X64.65Y-107.99
X67.17Y-69.0
X67.17Y-84.24
X67.19Y-92.75
X67.19Y-107.99
X69.71Y-69.0
X69.71Y-84.24
X69.73Y-92.75
X69.73Y-107.99
X72.25Y-69.0
X72.25Y-84.24
X72.27Y-92.75
X72.27Y-107.99
X74.79Y-69.0
X74.79Y-84.24
X74.81Y-92.75
X74.81Y-107.99
X77.33Y-69.0
X77.33Y-84.24
X77.35Y-92.75
X77.35Y-107.99
X79.87Y-69.0
X79.87Y-84.24
X79.89Y-92.75
X79.89Y-107.99
X82.41Y-69.0
X82.41Y-84.24
X82.43Y-92.75
X82.43Y-107.99
T7
X95.92Y-138.75
X98.46Y-138.75
X101.0Y-138.75
T8
X59.92Y-117.5
X70.08Y-117.5
X105.92Y-134.25
X105.92Y-141.25
X116.08Y-134.25
X116.08Y-141.25
T2
X105.35Y-151.95G85X105.35Y-152.55
G05
X110.15Y-146.95G85X110.15Y-147.55
G05
X110.15Y-153.95G85X110.15Y-154.55
G05
X111.85Y-151.95G85X111.85Y-152.55
G05
X116.65Y-146.95G85X116.65Y-147.55
G05
X116.65Y-153.95G85X116.65Y-154.55
G05
M30
