%TF.GenerationSoftware,KiCad,Pcbnew,7.0.9*%
%TF.CreationDate,2024-01-29T19:46:49-08:00*%
%TF.ProjectId,phonev4,70686f6e-6576-4342-9e6b-696361645f70,rev?*%
%TF.SameCoordinates,Original*%
%TF.FileFunction,Soldermask,Top*%
%TF.FilePolarity,Negative*%
%FSLAX46Y46*%
G04 Gerber Fmt 4.6, Leading zero omitted, Abs format (unit mm)*
G04 Created by KiCad (PCBNEW 7.0.9) date 2024-01-29 19:46:49*
%MOMM*%
%LPD*%
G01*
G04 APERTURE LIST*
G04 Aperture macros list*
%AMRoundRect*
0 Rectangle with rounded corners*
0 $1 Rounding radius*
0 $2 $3 $4 $5 $6 $7 $8 $9 X,Y pos of 4 corners*
0 Add a 4 corners polygon primitive as box body*
4,1,4,$2,$3,$4,$5,$6,$7,$8,$9,$2,$3,0*
0 Add four circle primitives for the rounded corners*
1,1,$1+$1,$2,$3*
1,1,$1+$1,$4,$5*
1,1,$1+$1,$6,$7*
1,1,$1+$1,$8,$9*
0 Add four rect primitives between the rounded corners*
20,1,$1+$1,$2,$3,$4,$5,0*
20,1,$1+$1,$4,$5,$6,$7,0*
20,1,$1+$1,$6,$7,$8,$9,0*
20,1,$1+$1,$8,$9,$2,$3,0*%
G04 Aperture macros list end*
%ADD10C,5.754613*%
%ADD11C,1.931200*%
%ADD12RoundRect,0.250000X0.600000X-0.600000X0.600000X0.600000X-0.600000X0.600000X-0.600000X-0.600000X0*%
%ADD13C,1.700000*%
%ADD14C,1.600000*%
%ADD15O,1.600000X1.600000*%
%ADD16R,1.600000X1.600000*%
%ADD17C,1.200000*%
%ADD18O,1.200000X1.800000*%
%ADD19C,2.750000*%
%ADD20RoundRect,0.102000X0.754000X-0.754000X0.754000X0.754000X-0.754000X0.754000X-0.754000X-0.754000X0*%
%ADD21C,1.712000*%
%ADD22R,2.000000X2.000000*%
%ADD23C,2.000000*%
%ADD24C,1.400000*%
%ADD25O,1.727200X1.727200*%
%ADD26C,1.016000*%
%ADD27R,1.727200X1.727200*%
%ADD28C,1.727200*%
%ADD29O,1.400000X1.400000*%
%ADD30C,3.250000*%
%ADD31RoundRect,0.250000X-0.650000X-0.650000X0.650000X-0.650000X0.650000X0.650000X-0.650000X0.650000X0*%
%ADD32C,1.800000*%
%ADD33R,1.524000X1.524000*%
G04 APERTURE END LIST*
D10*
X160357306Y-2540000D02*
G75*
G03*
X160357306Y-2540000I-2877306J0D01*
G01*
%TO.C,*%
G36*
X162780984Y-99278414D02*
G01*
X163050984Y-99312006D01*
X163291262Y-99365175D01*
X163377431Y-99391642D01*
X163528053Y-99446417D01*
X163663078Y-99505940D01*
X163789038Y-99574614D01*
X163912471Y-99656841D01*
X164039910Y-99757023D01*
X164177892Y-99879565D01*
X164332951Y-100028869D01*
X164353376Y-100049152D01*
X164550756Y-100252512D01*
X164716374Y-100439939D01*
X164852419Y-100616696D01*
X164961082Y-100788041D01*
X165044551Y-100959238D01*
X165105016Y-101135546D01*
X165144666Y-101322226D01*
X165165691Y-101524540D01*
X165170279Y-101747749D01*
X165161049Y-101990000D01*
X165148978Y-102162644D01*
X165133281Y-102329801D01*
X165113082Y-102495225D01*
X165087507Y-102662670D01*
X165055681Y-102835889D01*
X165016729Y-103018637D01*
X164969778Y-103214667D01*
X164913953Y-103427734D01*
X164848379Y-103661590D01*
X164772182Y-103919991D01*
X164684486Y-104206689D01*
X164584419Y-104525440D01*
X164532031Y-104690000D01*
X164421982Y-105033985D01*
X164322876Y-105342741D01*
X164233702Y-105619213D01*
X164153452Y-105866348D01*
X164081117Y-106087091D01*
X164015687Y-106284388D01*
X163956153Y-106461186D01*
X163901506Y-106620431D01*
X163850737Y-106765068D01*
X163802837Y-106898044D01*
X163756796Y-107022305D01*
X163711605Y-107140797D01*
X163666256Y-107256465D01*
X163619739Y-107372256D01*
X163579754Y-107470000D01*
X163484911Y-107708325D01*
X163408711Y-107918920D01*
X163349304Y-108108416D01*
X163304840Y-108283444D01*
X163273469Y-108450634D01*
X163253341Y-108616619D01*
X163250522Y-108650000D01*
X163240869Y-108747859D01*
X163226620Y-108863342D01*
X163210503Y-108974747D01*
X163206868Y-108997209D01*
X163191412Y-109105346D01*
X163185932Y-109194320D01*
X163189965Y-109283582D01*
X163198271Y-109357209D01*
X163213552Y-109470313D01*
X163226996Y-109549827D01*
X163241439Y-109601883D01*
X163259716Y-109632619D01*
X163284663Y-109648169D01*
X163319116Y-109654667D01*
X163336436Y-109656125D01*
X163382556Y-109656460D01*
X163460624Y-109653699D01*
X163562714Y-109648263D01*
X163680898Y-109640574D01*
X163806371Y-109631125D01*
X164016684Y-109617306D01*
X164246540Y-109607627D01*
X164485628Y-109602163D01*
X164723635Y-109600987D01*
X164950250Y-109604173D01*
X165155161Y-109611795D01*
X165288707Y-109620492D01*
X165563792Y-109657560D01*
X165817614Y-109723878D01*
X166057462Y-109822256D01*
X166290625Y-109955505D01*
X166450306Y-110068400D01*
X166582453Y-110163090D01*
X166693439Y-110228601D01*
X166788116Y-110266158D01*
X166871333Y-110276986D01*
X166947943Y-110262312D01*
X167022796Y-110223359D01*
X167033765Y-110215788D01*
X167192499Y-110101538D01*
X167323140Y-110002785D01*
X167431389Y-109913586D01*
X167522950Y-109828002D01*
X167603524Y-109740090D01*
X167678816Y-109643908D01*
X167754527Y-109533516D01*
X167836360Y-109402972D01*
X167874349Y-109340000D01*
X167970599Y-109182438D01*
X168062286Y-109039984D01*
X168158929Y-108898359D01*
X168270049Y-108743289D01*
X168294411Y-108710000D01*
X168365569Y-108610753D01*
X168444258Y-108497259D01*
X168523804Y-108379480D01*
X168597536Y-108267382D01*
X168658780Y-108170928D01*
X168689515Y-108120000D01*
X168780875Y-107993888D01*
X168901428Y-107872616D01*
X169040542Y-107765103D01*
X169187587Y-107680266D01*
X169242226Y-107656271D01*
X169355083Y-107625200D01*
X169490874Y-107609096D01*
X169635424Y-107607916D01*
X169774558Y-107621620D01*
X169894102Y-107650168D01*
X169915792Y-107658206D01*
X170108385Y-107754451D01*
X170274305Y-107876177D01*
X170411446Y-108020009D01*
X170517706Y-108182572D01*
X170590981Y-108360491D01*
X170629168Y-108550392D01*
X170630162Y-108748900D01*
X170624860Y-108795781D01*
X170601859Y-108913595D01*
X170564059Y-109050732D01*
X170516419Y-109191730D01*
X170463900Y-109321124D01*
X170440722Y-109370000D01*
X170386590Y-109467837D01*
X170310982Y-109590271D01*
X170218232Y-109731318D01*
X170112672Y-109884999D01*
X169998637Y-110045332D01*
X169880459Y-110206336D01*
X169762472Y-110362031D01*
X169649009Y-110506434D01*
X169544404Y-110633565D01*
X169452990Y-110737443D01*
X169439546Y-110751859D01*
X169354441Y-110838318D01*
X169254215Y-110934332D01*
X169155078Y-111024556D01*
X169111983Y-111061859D01*
X168969875Y-111183767D01*
X168856881Y-111285003D01*
X168770138Y-111368963D01*
X168706786Y-111439041D01*
X168663960Y-111498631D01*
X168638801Y-111551127D01*
X168628445Y-111599925D01*
X168628590Y-111635187D01*
X168640485Y-111691610D01*
X168670867Y-111725395D01*
X168692131Y-111737052D01*
X168721628Y-111748489D01*
X168754549Y-111753539D01*
X168797780Y-111751328D01*
X168858206Y-111740984D01*
X168942716Y-111721633D01*
X169058194Y-111692404D01*
X169071512Y-111688955D01*
X169145653Y-111670885D01*
X169197387Y-111663710D01*
X169242825Y-111667423D01*
X169298077Y-111682020D01*
X169320105Y-111688877D01*
X169417054Y-111734147D01*
X169510752Y-111803489D01*
X169590839Y-111887081D01*
X169646954Y-111975099D01*
X169661269Y-112012320D01*
X169672594Y-112075198D01*
X169680148Y-112168051D01*
X169683870Y-112281025D01*
X169683699Y-112404268D01*
X169679572Y-112527927D01*
X169671427Y-112642148D01*
X169665537Y-112694911D01*
X169643054Y-112816152D01*
X169608006Y-112910915D01*
X169554868Y-112992097D01*
X169522615Y-113028658D01*
X169482613Y-113075509D01*
X169460434Y-113118594D01*
X169456301Y-113166402D01*
X169470436Y-113227422D01*
X169503061Y-113310144D01*
X169531642Y-113373810D01*
X169593060Y-113512836D01*
X169637275Y-113627751D01*
X169666933Y-113729179D01*
X169684678Y-113827746D01*
X169693158Y-113934078D01*
X169695044Y-114030000D01*
X169691097Y-114162537D01*
X169675407Y-114266657D01*
X169643361Y-114347714D01*
X169590347Y-114411060D01*
X169511751Y-114462052D01*
X169402963Y-114506042D01*
X169259370Y-114548385D01*
X169245264Y-114552119D01*
X169014145Y-114595662D01*
X168774240Y-114606222D01*
X168521602Y-114583628D01*
X168252281Y-114527704D01*
X168169212Y-114504857D01*
X168077444Y-114464875D01*
X168000661Y-114406155D01*
X167944205Y-114335925D01*
X167913422Y-114261413D01*
X167913654Y-114189849D01*
X167921002Y-114169076D01*
X167943710Y-114134831D01*
X167977548Y-114115678D01*
X168028267Y-114111597D01*
X168101622Y-114122570D01*
X168203363Y-114148576D01*
X168268896Y-114167882D01*
X168437309Y-114216000D01*
X168579032Y-114249326D01*
X168703896Y-114269446D01*
X168821733Y-114277947D01*
X168941817Y-114276440D01*
X169086850Y-114259073D01*
X169199731Y-114221535D01*
X169283655Y-114162432D01*
X169326316Y-114108401D01*
X169357652Y-114023352D01*
X169364646Y-113916219D01*
X169348945Y-113795346D01*
X169312193Y-113669075D01*
X169256036Y-113545749D01*
X169197127Y-113453301D01*
X169142603Y-113394564D01*
X169061559Y-113325817D01*
X168963721Y-113254029D01*
X168858815Y-113186170D01*
X168756566Y-113129211D01*
X168721139Y-113112196D01*
X168645736Y-113074115D01*
X168584791Y-113036323D01*
X168548419Y-113005276D01*
X168544378Y-112999375D01*
X168526031Y-112948445D01*
X168513566Y-112882531D01*
X168507921Y-112814463D01*
X168510035Y-112757068D01*
X168520846Y-112723177D01*
X168523974Y-112720446D01*
X168564613Y-112715287D01*
X168635380Y-112728594D01*
X168731618Y-112759030D01*
X168848671Y-112805259D01*
X168903760Y-112829442D01*
X169017954Y-112874498D01*
X169107397Y-112893729D01*
X169177893Y-112887154D01*
X169235244Y-112854794D01*
X169259344Y-112830642D01*
X169295516Y-112777432D01*
X169320719Y-112710035D01*
X169336389Y-112621460D01*
X169343966Y-112504717D01*
X169345231Y-112413022D01*
X169340389Y-112269538D01*
X169323516Y-112161329D01*
X169291343Y-112084638D01*
X169240602Y-112035709D01*
X169168022Y-112010787D01*
X169070336Y-112006115D01*
X168995943Y-112011718D01*
X168894736Y-112020073D01*
X168777078Y-112026336D01*
X168666539Y-112029288D01*
X168654799Y-112029362D01*
X168562420Y-112028169D01*
X168497412Y-112022268D01*
X168447186Y-112009346D01*
X168399153Y-111987087D01*
X168386375Y-111979998D01*
X168278844Y-111900739D01*
X168207189Y-111808239D01*
X168171574Y-111707331D01*
X168172162Y-111602844D01*
X168209116Y-111499609D01*
X168282600Y-111402459D01*
X168364570Y-111334568D01*
X168476530Y-111250644D01*
X168575160Y-111159648D01*
X168671512Y-111050606D01*
X168741780Y-110960000D01*
X168787558Y-110903527D01*
X168856454Y-110824947D01*
X168943014Y-110730169D01*
X169041783Y-110625101D01*
X169147307Y-110515651D01*
X169221865Y-110440000D01*
X169383398Y-110276784D01*
X169519242Y-110137084D01*
X169632708Y-110016841D01*
X169727108Y-109911998D01*
X169805755Y-109818498D01*
X169871961Y-109732284D01*
X169929039Y-109649299D01*
X169980299Y-109565485D01*
X170029056Y-109476785D01*
X170064137Y-109408282D01*
X170141572Y-109235423D01*
X170191779Y-109075680D01*
X170217717Y-108915906D01*
X170222349Y-108742948D01*
X170221211Y-108710830D01*
X170209100Y-108555601D01*
X170185448Y-108430308D01*
X170146812Y-108325714D01*
X170089751Y-108232584D01*
X170010822Y-108141679D01*
X170008082Y-108138891D01*
X169882956Y-108034430D01*
X169752389Y-107969554D01*
X169616015Y-107944170D01*
X169473466Y-107958186D01*
X169391129Y-107983089D01*
X169308176Y-108016002D01*
X169241637Y-108048960D01*
X169178230Y-108089956D01*
X169104674Y-108146984D01*
X169066768Y-108178299D01*
X168998183Y-108240261D01*
X168930593Y-108311902D01*
X168861407Y-108397028D01*
X168788033Y-108499447D01*
X168707881Y-108622965D01*
X168618358Y-108771390D01*
X168516873Y-108948529D01*
X168405311Y-109150000D01*
X168294346Y-109347865D01*
X168189085Y-109523159D01*
X168085472Y-109680038D01*
X167979454Y-109822657D01*
X167866976Y-109955168D01*
X167743984Y-110081729D01*
X167606423Y-110206492D01*
X167450239Y-110333613D01*
X167271377Y-110467246D01*
X167065783Y-110611546D01*
X166829402Y-110770669D01*
X166813349Y-110781310D01*
X166685882Y-110865938D01*
X166565804Y-110946036D01*
X166458194Y-111018185D01*
X166368132Y-111078968D01*
X166300699Y-111124967D01*
X166260973Y-111152765D01*
X166258266Y-111154748D01*
X166201601Y-111207816D01*
X166169331Y-111261635D01*
X166166291Y-111307344D01*
X166170338Y-111315947D01*
X166191124Y-111330275D01*
X166241981Y-111358948D01*
X166316981Y-111398810D01*
X166410196Y-111446707D01*
X166507486Y-111495421D01*
X166651890Y-111568939D01*
X166767110Y-111632755D01*
X166861222Y-111691787D01*
X166942305Y-111750955D01*
X166986031Y-111786834D01*
X167081821Y-111874130D01*
X167187288Y-111979635D01*
X167295234Y-112095264D01*
X167398458Y-112212935D01*
X167489762Y-112324563D01*
X167561947Y-112422064D01*
X167589536Y-112464496D01*
X167655305Y-112593329D01*
X167714094Y-112747278D01*
X167760762Y-112911502D01*
X167783410Y-113024285D01*
X167792514Y-113106158D01*
X167798951Y-113217272D01*
X167802795Y-113349138D01*
X167804121Y-113493267D01*
X167803004Y-113641172D01*
X167799517Y-113784364D01*
X167793737Y-113914356D01*
X167785736Y-114022658D01*
X167775590Y-114100783D01*
X167773876Y-114109426D01*
X167721931Y-114281286D01*
X167635817Y-114469852D01*
X167516609Y-114672861D01*
X167479921Y-114728332D01*
X167335516Y-114934085D01*
X167195969Y-115114825D01*
X167055853Y-115275164D01*
X166909742Y-115419714D01*
X166752208Y-115553086D01*
X166577824Y-115679893D01*
X166381165Y-115804746D01*
X166156802Y-115932257D01*
X165912640Y-116060267D01*
X165586660Y-116218041D01*
X165283590Y-116347608D01*
X164999392Y-116450343D01*
X164730029Y-116527619D01*
X164471464Y-116580812D01*
X164322558Y-116601430D01*
X164043587Y-116613385D01*
X163758860Y-116587646D01*
X163473082Y-116525130D01*
X163190958Y-116426755D01*
X163017990Y-116347172D01*
X162937430Y-116309076D01*
X162864882Y-116279426D01*
X162811157Y-116262434D01*
X162794353Y-116260000D01*
X162733354Y-116279518D01*
X162671357Y-116336392D01*
X162610511Y-116428103D01*
X162560116Y-116534438D01*
X162477380Y-116733929D01*
X162383532Y-116957940D01*
X162277097Y-117209974D01*
X162156598Y-117493536D01*
X162098398Y-117630000D01*
X162038584Y-117772495D01*
X161979453Y-117917681D01*
X161924441Y-118056804D01*
X161876982Y-118181109D01*
X161840511Y-118281845D01*
X161827675Y-118320000D01*
X161780523Y-118465058D01*
X161743021Y-118577431D01*
X161712806Y-118662591D01*
X161687517Y-118726012D01*
X161664791Y-118773163D01*
X161642267Y-118809519D01*
X161617583Y-118840551D01*
X161590473Y-118869578D01*
X161515563Y-118935796D01*
X161418385Y-119006750D01*
X161312734Y-119073519D01*
X161212408Y-119127181D01*
X161154306Y-119151618D01*
X161023166Y-119179213D01*
X160897982Y-119167290D01*
X160788605Y-119121938D01*
X160709827Y-119067023D01*
X160618054Y-118988105D01*
X160522676Y-118894347D01*
X160433079Y-118794908D01*
X160366486Y-118710000D01*
X160330939Y-118659060D01*
X160279070Y-118582767D01*
X160216377Y-118489301D01*
X160148361Y-118386845D01*
X160104357Y-118320000D01*
X160039243Y-118220935D01*
X159979328Y-118130161D01*
X159929079Y-118054415D01*
X159892962Y-118000434D01*
X159877968Y-117978474D01*
X159810172Y-117867144D01*
X159741702Y-117728847D01*
X159677729Y-117576192D01*
X159623427Y-117421783D01*
X159583967Y-117278226D01*
X159576830Y-117244508D01*
X159559199Y-117080804D01*
X159571504Y-116932160D01*
X159611545Y-116802068D01*
X159677121Y-116694025D01*
X159766029Y-116611524D01*
X159876068Y-116558059D01*
X160005037Y-116537124D01*
X160022595Y-116536970D01*
X160101790Y-116543678D01*
X160178374Y-116564671D01*
X160257580Y-116603163D01*
X160344641Y-116662365D01*
X160444789Y-116745491D01*
X160563257Y-116855755D01*
X160600004Y-116891518D01*
X160692650Y-116981696D01*
X160761645Y-117046766D01*
X160811404Y-117090144D01*
X160846341Y-117115247D01*
X160870871Y-117125488D01*
X160889410Y-117124283D01*
X160896714Y-117121057D01*
X160939902Y-117083501D01*
X160992780Y-117015000D01*
X161051607Y-116922291D01*
X161112642Y-116812109D01*
X161172146Y-116691192D01*
X161226377Y-116566276D01*
X161270067Y-116448667D01*
X161295074Y-116371441D01*
X161307421Y-116321489D01*
X161308143Y-116288498D01*
X161298276Y-116262155D01*
X161290106Y-116248881D01*
X161266846Y-116218186D01*
X161238223Y-116194117D01*
X161197205Y-116173828D01*
X161136763Y-116154474D01*
X161049865Y-116133211D01*
X160951365Y-116111811D01*
X160846959Y-116087155D01*
X160713760Y-116051670D01*
X160556738Y-116006983D01*
X160380865Y-115954720D01*
X160191113Y-115896509D01*
X159992452Y-115833975D01*
X159789854Y-115768747D01*
X159588290Y-115702450D01*
X159392731Y-115636712D01*
X159208148Y-115573160D01*
X159039513Y-115513419D01*
X158891796Y-115459118D01*
X158769970Y-115411883D01*
X158679005Y-115373341D01*
X158645323Y-115357157D01*
X158555849Y-115313666D01*
X158468612Y-115275696D01*
X158396265Y-115248556D01*
X158365500Y-115239731D01*
X158251979Y-115231331D01*
X158146150Y-115259552D01*
X158046401Y-115325325D01*
X157951117Y-115429577D01*
X157896328Y-115509528D01*
X157765483Y-115708328D01*
X157618579Y-115911485D01*
X157449410Y-116127413D01*
X157364192Y-116231200D01*
X157276918Y-116338072D01*
X157187259Y-116451176D01*
X157103139Y-116560293D01*
X157032486Y-116655203D01*
X157000603Y-116700000D01*
X156863421Y-116895100D01*
X156743445Y-117059246D01*
X156637494Y-117195903D01*
X156542386Y-117308541D01*
X156454940Y-117400628D01*
X156371974Y-117475631D01*
X156290306Y-117537019D01*
X156206754Y-117588259D01*
X156165882Y-117609846D01*
X155998021Y-117677761D01*
X155839684Y-117706893D01*
X155690084Y-117697108D01*
X155548433Y-117648273D01*
X155413944Y-117560254D01*
X155314852Y-117465781D01*
X155229366Y-117359549D01*
X155148766Y-117231280D01*
X155070783Y-117076485D01*
X154993144Y-116890678D01*
X154917179Y-116680000D01*
X154874639Y-116559696D01*
X154827696Y-116435019D01*
X154781509Y-116319210D01*
X154741237Y-116225512D01*
X154734069Y-116210000D01*
X154642329Y-116002593D01*
X154575660Y-115822937D01*
X154533451Y-115668096D01*
X154522541Y-115589092D01*
X154835727Y-115589092D01*
X154836923Y-115651781D01*
X154855158Y-115725807D01*
X154891649Y-115817950D01*
X154947614Y-115934992D01*
X154971339Y-115981750D01*
X155024905Y-116090805D01*
X155075524Y-116201925D01*
X155118223Y-116303650D01*
X155148028Y-116384520D01*
X155152842Y-116400000D01*
X155223260Y-116630930D01*
X155288534Y-116825488D01*
X155350226Y-116986734D01*
X155409893Y-117117731D01*
X155469097Y-117221541D01*
X155529398Y-117301226D01*
X155592353Y-117359848D01*
X155659525Y-117400468D01*
X155663373Y-117402241D01*
X155729501Y-117429193D01*
X155778837Y-117436765D01*
X155829488Y-117424714D01*
X155886298Y-117399248D01*
X155935488Y-117366210D01*
X156007671Y-117303407D01*
X156103350Y-117210358D01*
X156223028Y-117086586D01*
X156290890Y-117014248D01*
X156411113Y-116884656D01*
X156512200Y-116774430D01*
X156599771Y-116676922D01*
X156679448Y-116585485D01*
X156756853Y-116493470D01*
X156837606Y-116394230D01*
X156927330Y-116281118D01*
X157031645Y-116147485D01*
X157117321Y-116036928D01*
X157267187Y-115842894D01*
X157394181Y-115677566D01*
X157500168Y-115538198D01*
X157587010Y-115422047D01*
X157656571Y-115326365D01*
X157710715Y-115248409D01*
X157751305Y-115185434D01*
X157780203Y-115134693D01*
X157799275Y-115093443D01*
X157810383Y-115058938D01*
X157815390Y-115028433D01*
X157816264Y-115007296D01*
X157798011Y-114932805D01*
X157749990Y-114863267D01*
X157682314Y-114807068D01*
X157605093Y-114772594D01*
X157528440Y-114768230D01*
X157528084Y-114768296D01*
X157476560Y-114785112D01*
X157422394Y-114818695D01*
X157361955Y-114872664D01*
X157291612Y-114950635D01*
X157207734Y-115056226D01*
X157119490Y-115175352D01*
X156986165Y-115357039D01*
X156829309Y-115566748D01*
X156650984Y-115801744D01*
X156453257Y-116059294D01*
X156381065Y-116152691D01*
X156296975Y-116251621D01*
X156222015Y-116317187D01*
X156150645Y-116353244D01*
X156077649Y-116363649D01*
X155973983Y-116347777D01*
X155875940Y-116301532D01*
X155780533Y-116222525D01*
X155684776Y-116108365D01*
X155601149Y-115982351D01*
X155475610Y-115784254D01*
X155362987Y-115622444D01*
X155263506Y-115497195D01*
X155177390Y-115408778D01*
X155104866Y-115357464D01*
X155075492Y-115346230D01*
X155009177Y-115348958D01*
X154944169Y-115387931D01*
X154886028Y-115459621D01*
X154879582Y-115470598D01*
X154850352Y-115530958D01*
X154835727Y-115589092D01*
X154522541Y-115589092D01*
X154515090Y-115535137D01*
X154519968Y-115421126D01*
X154547475Y-115323127D01*
X154548884Y-115319849D01*
X154619999Y-115192239D01*
X154708238Y-115100040D01*
X154816685Y-115041204D01*
X154948425Y-115013683D01*
X155014058Y-115010967D01*
X155149756Y-115024148D01*
X155271512Y-115066060D01*
X155387261Y-115140379D01*
X155483507Y-115228335D01*
X155571909Y-115329458D01*
X155663455Y-115452138D01*
X155750026Y-115584029D01*
X155823501Y-115712782D01*
X155874602Y-115823058D01*
X155916493Y-115922798D01*
X155951925Y-115987520D01*
X155983992Y-116021047D01*
X156015786Y-116027205D01*
X156034167Y-116020371D01*
X156061308Y-115995755D01*
X156103830Y-115945749D01*
X156155175Y-115878420D01*
X156193186Y-115824817D01*
X156262516Y-115728886D01*
X156343341Y-115624353D01*
X156421693Y-115529090D01*
X156447055Y-115500000D01*
X156510269Y-115427134D01*
X156588856Y-115333704D01*
X156673649Y-115230748D01*
X156755485Y-115129308D01*
X156770827Y-115110000D01*
X156844003Y-115018655D01*
X156915166Y-114931627D01*
X156977594Y-114857016D01*
X157024562Y-114802924D01*
X157036424Y-114790000D01*
X157126182Y-114685664D01*
X157183730Y-114595837D01*
X157211855Y-114515603D01*
X157215792Y-114473446D01*
X157208670Y-114410841D01*
X157184337Y-114352244D01*
X157138340Y-114291800D01*
X157066228Y-114223659D01*
X156963761Y-114142127D01*
X156817957Y-114025712D01*
X156675937Y-113901138D01*
X156545532Y-113775884D01*
X156434574Y-113657431D01*
X156359339Y-113564893D01*
X156199986Y-113326697D01*
X156048348Y-113057176D01*
X155907933Y-112764787D01*
X155782247Y-112457982D01*
X155674797Y-112145216D01*
X155589090Y-111834944D01*
X155536042Y-111580000D01*
X155522726Y-111503626D01*
X155505155Y-111403365D01*
X155486049Y-111294718D01*
X155474635Y-111230000D01*
X155449966Y-111090397D01*
X155428623Y-110968018D01*
X155410365Y-110858838D01*
X155394950Y-110758835D01*
X155382140Y-110663982D01*
X155371692Y-110570258D01*
X155363367Y-110473638D01*
X155356924Y-110370097D01*
X155352123Y-110255612D01*
X155348723Y-110126160D01*
X155346483Y-109977715D01*
X155345163Y-109806254D01*
X155344522Y-109607754D01*
X155344427Y-109499979D01*
X155694945Y-109499979D01*
X155699112Y-109746920D01*
X155712433Y-110003402D01*
X155735298Y-110275608D01*
X155768098Y-110569717D01*
X155811224Y-110891911D01*
X155846616Y-111130000D01*
X155885793Y-111374590D01*
X155923621Y-111585953D01*
X155962004Y-111770727D01*
X156002846Y-111935550D01*
X156048051Y-112087064D01*
X156099523Y-112231906D01*
X156159166Y-112376717D01*
X156228883Y-112528135D01*
X156273887Y-112620000D01*
X156377627Y-112822119D01*
X156475824Y-112998621D01*
X156573475Y-113155775D01*
X156675575Y-113299851D01*
X156787119Y-113437120D01*
X156913103Y-113573850D01*
X157058522Y-113716313D01*
X157228372Y-113870778D01*
X157365910Y-113990634D01*
X157487123Y-114096342D01*
X157610378Y-114206381D01*
X157728576Y-114314228D01*
X157834616Y-114413359D01*
X157921396Y-114497251D01*
X157961609Y-114537914D01*
X158077730Y-114653713D01*
X158180369Y-114743872D01*
X158279250Y-114815346D01*
X158384095Y-114875091D01*
X158504624Y-114930061D01*
X158516816Y-114935112D01*
X158620082Y-114975160D01*
X158755984Y-115024077D01*
X158918618Y-115079922D01*
X159102077Y-115140754D01*
X159300457Y-115204633D01*
X159507852Y-115269617D01*
X159718358Y-115333764D01*
X159837856Y-115369323D01*
X160003892Y-115419175D01*
X160192388Y-115477260D01*
X160387971Y-115538747D01*
X160575265Y-115598804D01*
X160733664Y-115650849D01*
X160886652Y-115701323D01*
X161009955Y-115740226D01*
X161111534Y-115769584D01*
X161199350Y-115791424D01*
X161281366Y-115807773D01*
X161365542Y-115820658D01*
X161434215Y-115829189D01*
X161541062Y-115842213D01*
X161615712Y-115853564D01*
X161665822Y-115865319D01*
X161699049Y-115879551D01*
X161723052Y-115898335D01*
X161734350Y-115910498D01*
X161765842Y-115960673D01*
X161779375Y-116009999D01*
X161779385Y-116011035D01*
X161771615Y-116049359D01*
X161750288Y-116116648D01*
X161718379Y-116205434D01*
X161678861Y-116308253D01*
X161634710Y-116417637D01*
X161588898Y-116526122D01*
X161544401Y-116626240D01*
X161504192Y-116710527D01*
X161488985Y-116740000D01*
X161452998Y-116808072D01*
X161404721Y-116900162D01*
X161350190Y-117004721D01*
X161295438Y-117110204D01*
X161289767Y-117121163D01*
X161235667Y-117220957D01*
X161180025Y-117315430D01*
X161128821Y-117394924D01*
X161088034Y-117449778D01*
X161082378Y-117456163D01*
X161033191Y-117505252D01*
X160993123Y-117530291D01*
X160946919Y-117538962D01*
X160916778Y-117539560D01*
X160838657Y-117532310D01*
X160765098Y-117509071D01*
X160691618Y-117466385D01*
X160613731Y-117400797D01*
X160526954Y-117308849D01*
X160426804Y-117187083D01*
X160378282Y-117124396D01*
X160283392Y-117015143D01*
X160193796Y-116943860D01*
X160107323Y-116909218D01*
X160026393Y-116908982D01*
X159954837Y-116940896D01*
X159906374Y-117005015D01*
X159881462Y-117100552D01*
X159877963Y-117164249D01*
X159882617Y-117240667D01*
X159898067Y-117319712D01*
X159926388Y-117405769D01*
X159969660Y-117503221D01*
X160029960Y-117616452D01*
X160109366Y-117749847D01*
X160209956Y-117907787D01*
X160282755Y-118018282D01*
X160337704Y-118095030D01*
X160409594Y-118186816D01*
X160493417Y-118288079D01*
X160584167Y-118393261D01*
X160676834Y-118496799D01*
X160766411Y-118593136D01*
X160847891Y-118676710D01*
X160916266Y-118741960D01*
X160966527Y-118783328D01*
X160978755Y-118791050D01*
X161065505Y-118817335D01*
X161154085Y-118804972D01*
X161219667Y-118769466D01*
X161302542Y-118690353D01*
X161371613Y-118583531D01*
X161429808Y-118444068D01*
X161449295Y-118382787D01*
X161488814Y-118257025D01*
X161531476Y-118138054D01*
X161581407Y-118015844D01*
X161642736Y-117880367D01*
X161719591Y-117721593D01*
X161730300Y-117700000D01*
X161770735Y-117615275D01*
X161822822Y-117500962D01*
X161883268Y-117364580D01*
X161948781Y-117213649D01*
X162016069Y-117055688D01*
X162081838Y-116898216D01*
X162089348Y-116880011D01*
X162189268Y-116639777D01*
X162276484Y-116435264D01*
X162351906Y-116264582D01*
X162416444Y-116125836D01*
X162471007Y-116017134D01*
X162516505Y-115936581D01*
X162553847Y-115882287D01*
X162582878Y-115853102D01*
X162640585Y-115823179D01*
X162707517Y-115812180D01*
X162788913Y-115820962D01*
X162890008Y-115850380D01*
X163016042Y-115901290D01*
X163093096Y-115936505D01*
X163296285Y-116027296D01*
X163476178Y-116096339D01*
X163641509Y-116145879D01*
X163801012Y-116178163D01*
X163963423Y-116195434D01*
X164118174Y-116200000D01*
X164258039Y-116196354D01*
X164392568Y-116184389D01*
X164526687Y-116162563D01*
X164665319Y-116129334D01*
X164813388Y-116083161D01*
X164975819Y-116022501D01*
X165157536Y-115945812D01*
X165363462Y-115851552D01*
X165598523Y-115738181D01*
X165608144Y-115733451D01*
X165846603Y-115613542D01*
X166052479Y-115503879D01*
X166230854Y-115401154D01*
X166386807Y-115302055D01*
X166525420Y-115203273D01*
X166651771Y-115101500D01*
X166770943Y-114993425D01*
X166824135Y-114941298D01*
X166951817Y-114807939D01*
X167054246Y-114687205D01*
X167139024Y-114568866D01*
X167213749Y-114442690D01*
X167257321Y-114358155D01*
X167335646Y-114167613D01*
X167394271Y-113958437D01*
X167432508Y-113739178D01*
X167449669Y-113518383D01*
X167445067Y-113304604D01*
X167418013Y-113106387D01*
X167371335Y-112941468D01*
X167265897Y-112715030D01*
X167123890Y-112495491D01*
X166948674Y-112286862D01*
X166743607Y-112093159D01*
X166518886Y-111923008D01*
X166425138Y-111865494D01*
X166305646Y-111800899D01*
X166172560Y-111735041D01*
X166038027Y-111673737D01*
X165914197Y-111622805D01*
X165830070Y-111593144D01*
X165659641Y-111543322D01*
X165509538Y-111508545D01*
X165365011Y-111486609D01*
X165211307Y-111475313D01*
X165033677Y-111472455D01*
X165021938Y-111472504D01*
X164838470Y-111477259D01*
X164675283Y-111491009D01*
X164519405Y-111515985D01*
X164357861Y-111554420D01*
X164177677Y-111608546D01*
X164118936Y-111627881D01*
X163986457Y-111670266D01*
X163884565Y-111697960D01*
X163807061Y-111712048D01*
X163747745Y-111713614D01*
X163700419Y-111703741D01*
X163695535Y-111701949D01*
X163638391Y-111662655D01*
X163614709Y-111602864D01*
X163625168Y-111525041D01*
X163637638Y-111492599D01*
X163698189Y-111399410D01*
X163793266Y-111316914D01*
X163924253Y-111244249D01*
X164092534Y-111180550D01*
X164177342Y-111155525D01*
X164223808Y-111143725D01*
X164271937Y-111134068D01*
X164326745Y-111126214D01*
X164393247Y-111119820D01*
X164476459Y-111114544D01*
X164581398Y-111110045D01*
X164713080Y-111105980D01*
X164876520Y-111102008D01*
X165001922Y-111099319D01*
X165205828Y-111094696D01*
X165374685Y-111089639D01*
X165513477Y-111083472D01*
X165627186Y-111075520D01*
X165720795Y-111065108D01*
X165799287Y-111051561D01*
X165867645Y-111034204D01*
X165930851Y-111012361D01*
X165993889Y-110985358D01*
X166052911Y-110956924D01*
X166185035Y-110880465D01*
X166287768Y-110798295D01*
X166358575Y-110713446D01*
X166394919Y-110628953D01*
X166394413Y-110548433D01*
X166365428Y-110489588D01*
X166308839Y-110419286D01*
X166232124Y-110345329D01*
X166142764Y-110275518D01*
X166114532Y-110256500D01*
X165977209Y-110183295D01*
X165806445Y-110118270D01*
X165608228Y-110062684D01*
X165388543Y-110017795D01*
X165153377Y-109984862D01*
X164908718Y-109965145D01*
X164702959Y-109959717D01*
X164540998Y-109960658D01*
X164369144Y-109963627D01*
X164192568Y-109968361D01*
X164016443Y-109974594D01*
X163845940Y-109982061D01*
X163686232Y-109990498D01*
X163542490Y-109999641D01*
X163419886Y-110009224D01*
X163323593Y-110018983D01*
X163258781Y-110028654D01*
X163235933Y-110034789D01*
X163193677Y-110057064D01*
X163158442Y-110088774D01*
X163128033Y-110135026D01*
X163100252Y-110200927D01*
X163072904Y-110291585D01*
X163043790Y-110412107D01*
X163014331Y-110550000D01*
X162989594Y-110670000D01*
X162885015Y-110676040D01*
X162817769Y-110676682D01*
X162773988Y-110665905D01*
X162737720Y-110639263D01*
X162731592Y-110633275D01*
X162702204Y-110597706D01*
X162681590Y-110555423D01*
X162669916Y-110501986D01*
X162667349Y-110432955D01*
X162674057Y-110343890D01*
X162690207Y-110230351D01*
X162715965Y-110087899D01*
X162751499Y-109912093D01*
X162760329Y-109870000D01*
X162776736Y-109784197D01*
X162788335Y-109701072D01*
X162795816Y-109611005D01*
X162799875Y-109504372D01*
X162801202Y-109371554D01*
X162801105Y-109303690D01*
X162802296Y-109127230D01*
X162807864Y-108977905D01*
X162818609Y-108843014D01*
X162835332Y-108709850D01*
X162840797Y-108673690D01*
X162869851Y-108490172D01*
X162896329Y-108332857D01*
X162922123Y-108195060D01*
X162949122Y-108070097D01*
X162979217Y-107951284D01*
X163014299Y-107831935D01*
X163056258Y-107705367D01*
X163106985Y-107564895D01*
X163168369Y-107403835D01*
X163242301Y-107215502D01*
X163280198Y-107120000D01*
X163336760Y-106976320D01*
X163391929Y-106833594D01*
X163442815Y-106699494D01*
X163486529Y-106581690D01*
X163520181Y-106487854D01*
X163536376Y-106440000D01*
X163566623Y-106347268D01*
X163605046Y-106230803D01*
X163646956Y-106104749D01*
X163687667Y-105983253D01*
X163692131Y-105970000D01*
X163713794Y-105905659D01*
X163734966Y-105842576D01*
X163756775Y-105777331D01*
X163780350Y-105706506D01*
X163806817Y-105626681D01*
X163837305Y-105534438D01*
X163872942Y-105426357D01*
X163914856Y-105299019D01*
X163964174Y-105149006D01*
X164022026Y-104972898D01*
X164089538Y-104767277D01*
X164167838Y-104528723D01*
X164210083Y-104400000D01*
X164282463Y-104178923D01*
X164343460Y-103990987D01*
X164394407Y-103831398D01*
X164436634Y-103695369D01*
X164471471Y-103578106D01*
X164500250Y-103474822D01*
X164524300Y-103380724D01*
X164544952Y-103291023D01*
X164563536Y-103200927D01*
X164581385Y-103105647D01*
X164599827Y-103000393D01*
X164601418Y-102991104D01*
X164655439Y-102596075D01*
X164678730Y-102223233D01*
X164671493Y-101873145D01*
X164633930Y-101546374D01*
X164566243Y-101243487D01*
X164468634Y-100965049D01*
X164341305Y-100711625D01*
X164184456Y-100483781D01*
X163998292Y-100282081D01*
X163783012Y-100107091D01*
X163538819Y-99959377D01*
X163514484Y-99946963D01*
X163234141Y-99827854D01*
X162932265Y-99740611D01*
X162611909Y-99685532D01*
X162276129Y-99662918D01*
X161927979Y-99673069D01*
X161570514Y-99716285D01*
X161429109Y-99742192D01*
X161250619Y-99782029D01*
X161072315Y-99830521D01*
X160888501Y-99889772D01*
X160693481Y-99961887D01*
X160481559Y-100048970D01*
X160247039Y-100153126D01*
X159987975Y-100274664D01*
X159801600Y-100364680D01*
X159649848Y-100440532D01*
X159530839Y-100504479D01*
X159442693Y-100558783D01*
X159383533Y-100605706D01*
X159351480Y-100647507D01*
X159344654Y-100686447D01*
X159361178Y-100724788D01*
X159399172Y-100764791D01*
X159456757Y-100808716D01*
X159512884Y-100846385D01*
X159583263Y-100894765D01*
X159645261Y-100941722D01*
X159686943Y-100978146D01*
X159690736Y-100982171D01*
X159755627Y-101073596D01*
X159816427Y-101195720D01*
X159869287Y-101339241D01*
X159910358Y-101494858D01*
X159917469Y-101530000D01*
X159944268Y-101667333D01*
X159967315Y-101770738D01*
X159989966Y-101845652D01*
X160015575Y-101897511D01*
X160047499Y-101931752D01*
X160089092Y-101953810D01*
X160143712Y-101969123D01*
X160194847Y-101979375D01*
X160263960Y-101995267D01*
X160322900Y-102013549D01*
X160343793Y-102022478D01*
X160399087Y-102056415D01*
X160455750Y-102098860D01*
X160503872Y-102141394D01*
X160533544Y-102175595D01*
X160538408Y-102187827D01*
X160521432Y-102207343D01*
X160476618Y-102236305D01*
X160413132Y-102268904D01*
X160403302Y-102273416D01*
X160320863Y-102315671D01*
X160225424Y-102371972D01*
X160135273Y-102431416D01*
X160120109Y-102442269D01*
X159994496Y-102533515D01*
X159895661Y-102604492D01*
X159818021Y-102658481D01*
X159755997Y-102698762D01*
X159704006Y-102728617D01*
X159656467Y-102751326D01*
X159607801Y-102770170D01*
X159552425Y-102788431D01*
X159507596Y-102802341D01*
X159391112Y-102838642D01*
X159305698Y-102866790D01*
X159244047Y-102890010D01*
X159198854Y-102911528D01*
X159162810Y-102934568D01*
X159128608Y-102962356D01*
X159112432Y-102976763D01*
X159054304Y-103042904D01*
X159033870Y-103105434D01*
X159051393Y-103168734D01*
X159107138Y-103237188D01*
X159129371Y-103257645D01*
X159222877Y-103322984D01*
X159344684Y-103383586D01*
X159483070Y-103435403D01*
X159626310Y-103474389D01*
X159762680Y-103496499D01*
X159831525Y-103500000D01*
X159874092Y-103497326D01*
X159892973Y-103481613D01*
X159897773Y-103441328D01*
X159897904Y-103420287D01*
X159882228Y-103333792D01*
X159835338Y-103223119D01*
X159826058Y-103205287D01*
X159754213Y-103070000D01*
X159838250Y-103045637D01*
X159897319Y-103025070D01*
X159942510Y-103003368D01*
X159951002Y-102997463D01*
X159975599Y-102987602D01*
X160009939Y-102998377D01*
X160062949Y-103032102D01*
X160140674Y-103098941D01*
X160191617Y-103175901D01*
X160221230Y-103273442D01*
X160231909Y-103356159D01*
X160237172Y-103474767D01*
X160228615Y-103564274D01*
X160204011Y-103633865D01*
X160161129Y-103692726D01*
X160146662Y-103707453D01*
X160073267Y-103762826D01*
X159982578Y-103800196D01*
X159868012Y-103821329D01*
X159722986Y-103827991D01*
X159697746Y-103827846D01*
X159517619Y-103811753D01*
X159342978Y-103769736D01*
X159179852Y-103705043D01*
X159034272Y-103620922D01*
X158912266Y-103520620D01*
X158819866Y-103407384D01*
X158780918Y-103334058D01*
X158770414Y-103288784D01*
X158762443Y-103213184D01*
X158757825Y-103116897D01*
X158757005Y-103052830D01*
X158755336Y-102941750D01*
X158748105Y-102862449D01*
X158731979Y-102806765D01*
X158703626Y-102766539D01*
X158659712Y-102733611D01*
X158616991Y-102710049D01*
X158577411Y-102695235D01*
X158507432Y-102674405D01*
X158415839Y-102649729D01*
X158311418Y-102623376D01*
X158202955Y-102597512D01*
X158099234Y-102574308D01*
X158009042Y-102555931D01*
X157953705Y-102546338D01*
X157847535Y-102549884D01*
X157746024Y-102591162D01*
X157677179Y-102645083D01*
X157647207Y-102684223D01*
X157605327Y-102752016D01*
X157555612Y-102840438D01*
X157502132Y-102941466D01*
X157448956Y-103047075D01*
X157400156Y-103149244D01*
X157359802Y-103239947D01*
X157331964Y-103311163D01*
X157322154Y-103344880D01*
X157323036Y-103426104D01*
X157360688Y-103501093D01*
X157435710Y-103570266D01*
X157548703Y-103634040D01*
X157700270Y-103692833D01*
X157891011Y-103747063D01*
X157906335Y-103750817D01*
X157999041Y-103774115D01*
X158118978Y-103805440D01*
X158254901Y-103841789D01*
X158395563Y-103880162D01*
X158506808Y-103911103D01*
X158673815Y-103957537D01*
X158824762Y-103998271D01*
X158969561Y-104035783D01*
X159118123Y-104072549D01*
X159280359Y-104111046D01*
X159466181Y-104153751D01*
X159587659Y-104181196D01*
X159707000Y-104208075D01*
X159829933Y-104235830D01*
X159942671Y-104261345D01*
X160031428Y-104281502D01*
X160038014Y-104283003D01*
X160410965Y-104365905D01*
X160750884Y-104436832D01*
X161062672Y-104496592D01*
X161351232Y-104545990D01*
X161621463Y-104585833D01*
X161878267Y-104616927D01*
X162126545Y-104640080D01*
X162269771Y-104650263D01*
X162439606Y-104667169D01*
X162572683Y-104694770D01*
X162671101Y-104734146D01*
X162736958Y-104786375D01*
X162772354Y-104852535D01*
X162780173Y-104912527D01*
X162767404Y-104999732D01*
X162726006Y-105069616D01*
X162651345Y-105128563D01*
X162605366Y-105153367D01*
X162558160Y-105175592D01*
X162516740Y-105191063D01*
X162472425Y-105200976D01*
X162416538Y-105206526D01*
X162340399Y-105208909D01*
X162235329Y-105209320D01*
X162199716Y-105209244D01*
X162095700Y-105208508D01*
X162011563Y-105206002D01*
X161937696Y-105200369D01*
X161864488Y-105190250D01*
X161782329Y-105174286D01*
X161681609Y-105151118D01*
X161552718Y-105119389D01*
X161537858Y-105115680D01*
X161391418Y-105080779D01*
X161229666Y-105044994D01*
X161067657Y-105011483D01*
X160920447Y-104983407D01*
X160847314Y-104970781D01*
X160723517Y-104949620D01*
X160588831Y-104924674D01*
X160439691Y-104895171D01*
X160272531Y-104860341D01*
X160083786Y-104819414D01*
X159869889Y-104771617D01*
X159627276Y-104716181D01*
X159352380Y-104652334D01*
X159097273Y-104592431D01*
X158919663Y-104550257D01*
X158769998Y-104513665D01*
X158640647Y-104480256D01*
X158523980Y-104447631D01*
X158412363Y-104413390D01*
X158298167Y-104375135D01*
X158173759Y-104330465D01*
X158031508Y-104276983D01*
X157863782Y-104212287D01*
X157761795Y-104172572D01*
X157555529Y-104098872D01*
X157379453Y-104050588D01*
X157232913Y-104027634D01*
X157115255Y-104029926D01*
X157025829Y-104057378D01*
X157000499Y-104073345D01*
X156945537Y-104131461D01*
X156887416Y-104224055D01*
X156828743Y-104346022D01*
X156772125Y-104492256D01*
X156745474Y-104572648D01*
X156707625Y-104682361D01*
X156658189Y-104810682D01*
X156603932Y-104940672D01*
X156557735Y-105042648D01*
X156415665Y-105345905D01*
X156292609Y-105619186D01*
X156186883Y-105866752D01*
X156096801Y-106092865D01*
X156020679Y-106301787D01*
X155956832Y-106497780D01*
X155903575Y-106685103D01*
X155894531Y-106720000D01*
X155865621Y-106838565D01*
X155841460Y-106951326D01*
X155821445Y-107064043D01*
X155804970Y-107182474D01*
X155791431Y-107312381D01*
X155780223Y-107459521D01*
X155770742Y-107629656D01*
X155762383Y-107828545D01*
X155754911Y-108050000D01*
X155749047Y-108224641D01*
X155742195Y-108405090D01*
X155734756Y-108582303D01*
X155727128Y-108747234D01*
X155719711Y-108890839D01*
X155712905Y-109004073D01*
X155712505Y-109010000D01*
X155699539Y-109256399D01*
X155694945Y-109499979D01*
X155344427Y-109499979D01*
X155344320Y-109378189D01*
X155344316Y-109113537D01*
X155344318Y-109050000D01*
X155344450Y-108761488D01*
X155344955Y-108509231D01*
X155345998Y-108289480D01*
X155347744Y-108098491D01*
X155350356Y-107932518D01*
X155353999Y-107787814D01*
X155358837Y-107660633D01*
X155365035Y-107547230D01*
X155372757Y-107443858D01*
X155382168Y-107346771D01*
X155393432Y-107252224D01*
X155406713Y-107156470D01*
X155422176Y-107055764D01*
X155435426Y-106973992D01*
X155482008Y-106718907D01*
X155534972Y-106488679D01*
X155598355Y-106269650D01*
X155676194Y-106048163D01*
X155772528Y-105810561D01*
X155794329Y-105760000D01*
X155849653Y-105630240D01*
X155908625Y-105487678D01*
X155965209Y-105347163D01*
X156013368Y-105223543D01*
X156026007Y-105190000D01*
X156063399Y-105096615D01*
X156115376Y-104976666D01*
X156177884Y-104838985D01*
X156246870Y-104692406D01*
X156318278Y-104545764D01*
X156357824Y-104466892D01*
X156427825Y-104327288D01*
X156497202Y-104185989D01*
X156562103Y-104051058D01*
X156618675Y-103930558D01*
X156663068Y-103832552D01*
X156682673Y-103786892D01*
X156725588Y-103684548D01*
X156778402Y-103560370D01*
X156834807Y-103429100D01*
X156888497Y-103305479D01*
X156895272Y-103290000D01*
X156944313Y-103176075D01*
X156992959Y-103059567D01*
X157036289Y-102952486D01*
X157069382Y-102866842D01*
X157075547Y-102850000D01*
X157108264Y-102762672D01*
X157150628Y-102654617D01*
X157196312Y-102541785D01*
X157226245Y-102470000D01*
X157285822Y-102329435D01*
X157292521Y-102313414D01*
X158423490Y-102313414D01*
X158447482Y-102322280D01*
X158501906Y-102336119D01*
X158577751Y-102353090D01*
X158666002Y-102371354D01*
X158757646Y-102389069D01*
X158843670Y-102404396D01*
X158915061Y-102415493D01*
X158937147Y-102418295D01*
X159106185Y-102426710D01*
X159251017Y-102409455D01*
X159367486Y-102370919D01*
X159491653Y-102296757D01*
X159583801Y-102199230D01*
X159644015Y-102078093D01*
X159672380Y-101933103D01*
X159668981Y-101764017D01*
X159639932Y-101595733D01*
X159595969Y-101442902D01*
X159541442Y-101313079D01*
X159478854Y-101209658D01*
X159410706Y-101136036D01*
X159339502Y-101095608D01*
X159268399Y-101091627D01*
X159223651Y-101102571D01*
X159200536Y-101110841D01*
X159200401Y-101110956D01*
X159203129Y-101131409D01*
X159217261Y-101178165D01*
X159235429Y-101229370D01*
X159269893Y-101367365D01*
X159276399Y-101513508D01*
X159257390Y-101660689D01*
X159215312Y-101801803D01*
X159152609Y-101929740D01*
X159071726Y-102037392D01*
X158975108Y-102117653D01*
X158920181Y-102145906D01*
X158802845Y-102193608D01*
X158712361Y-102228181D01*
X158639104Y-102252975D01*
X158573449Y-102271340D01*
X158531705Y-102281107D01*
X158471788Y-102295573D01*
X158432796Y-102307521D01*
X158423490Y-102313414D01*
X157292521Y-102313414D01*
X157332087Y-102218792D01*
X157366834Y-102130947D01*
X157391856Y-102058780D01*
X157408947Y-101995167D01*
X157419901Y-101932987D01*
X157426510Y-101865117D01*
X157430570Y-101784436D01*
X157433873Y-101683822D01*
X157435266Y-101640000D01*
X157439837Y-101511443D01*
X157444645Y-101415293D01*
X157450757Y-101343964D01*
X157459240Y-101289872D01*
X157471160Y-101245431D01*
X157487582Y-101203057D01*
X157500808Y-101173820D01*
X157580095Y-101046049D01*
X157690809Y-100927923D01*
X157824464Y-100826001D01*
X157972576Y-100746842D01*
X158113998Y-100699831D01*
X158203211Y-100686931D01*
X158316864Y-100682257D01*
X158406660Y-100684484D01*
X158510899Y-100687018D01*
X158588194Y-100682769D01*
X158632235Y-100672082D01*
X158632241Y-100672078D01*
X158665313Y-100649067D01*
X158718405Y-100606839D01*
X158781943Y-100553113D01*
X158805757Y-100532240D01*
X158868746Y-100477259D01*
X158928151Y-100427782D01*
X158987544Y-100381793D01*
X159050494Y-100337276D01*
X159120572Y-100292217D01*
X159201345Y-100244598D01*
X159296386Y-100192406D01*
X159409262Y-100133624D01*
X159543545Y-100066236D01*
X159702804Y-99988228D01*
X159890609Y-99897584D01*
X160110529Y-99792288D01*
X160148101Y-99774344D01*
X160361849Y-99674609D01*
X160549732Y-99592728D01*
X160720198Y-99525956D01*
X160881696Y-99471547D01*
X161042674Y-99426756D01*
X161211583Y-99388837D01*
X161396870Y-99355044D01*
X161479149Y-99341804D01*
X161830344Y-99296095D01*
X162166894Y-99270360D01*
X162485031Y-99264499D01*
X162780984Y-99278414D01*
G37*
G36*
X161119607Y-107054593D02*
G01*
X161181521Y-107082796D01*
X161227594Y-107124106D01*
X161246639Y-107174885D01*
X161246590Y-107181177D01*
X161239002Y-107224323D01*
X161220301Y-107297587D01*
X161192847Y-107393418D01*
X161158998Y-107504266D01*
X161121113Y-107622582D01*
X161081551Y-107740816D01*
X161042670Y-107851418D01*
X161009507Y-107940000D01*
X160960020Y-108069814D01*
X160920931Y-108180957D01*
X160889386Y-108284102D01*
X160862530Y-108389924D01*
X160837507Y-108509097D01*
X160811462Y-108652296D01*
X160798214Y-108730000D01*
X160735332Y-109094236D01*
X160675487Y-109421398D01*
X160618784Y-109710985D01*
X160565326Y-109962495D01*
X160515219Y-110175427D01*
X160468566Y-110349278D01*
X160446219Y-110422476D01*
X160381472Y-110605724D01*
X160306497Y-110787298D01*
X160224914Y-110960150D01*
X160140340Y-111117234D01*
X160056395Y-111251502D01*
X159976697Y-111355907D01*
X159954499Y-111380001D01*
X159896329Y-111434170D01*
X159835688Y-111476354D01*
X159764224Y-111510142D01*
X159673586Y-111539120D01*
X159555422Y-111566877D01*
X159487580Y-111580604D01*
X159327245Y-111616369D01*
X159203572Y-111654192D01*
X159113200Y-111695419D01*
X159052766Y-111741392D01*
X159036661Y-111760793D01*
X159002153Y-111839195D01*
X159002059Y-111921077D01*
X159035916Y-111994810D01*
X159046467Y-112007283D01*
X159126095Y-112069517D01*
X159219092Y-112097200D01*
X159328097Y-112090582D01*
X159455749Y-112049913D01*
X159463164Y-112046779D01*
X159569971Y-112009758D01*
X159677359Y-111993628D01*
X159727770Y-111991779D01*
X159867880Y-111990000D01*
X159880450Y-112160000D01*
X159891928Y-112275003D01*
X159908221Y-112357577D01*
X159931783Y-112415222D01*
X159965065Y-112455438D01*
X159981157Y-112467981D01*
X160048922Y-112496964D01*
X160116221Y-112487019D01*
X160178421Y-112445000D01*
X160208355Y-112414622D01*
X160228343Y-112381686D01*
X160241994Y-112335777D01*
X160252914Y-112266479D01*
X160259469Y-112211011D01*
X160272850Y-112113154D01*
X160289055Y-112044389D01*
X160311218Y-111993812D01*
X160329811Y-111966166D01*
X160391797Y-111905405D01*
X160454147Y-111884468D01*
X160516319Y-111903192D01*
X160577771Y-111961412D01*
X160637962Y-112058963D01*
X160638487Y-112060000D01*
X160673649Y-112125958D01*
X160706930Y-112173341D01*
X160745666Y-112205329D01*
X160797195Y-112225099D01*
X160868853Y-112235833D01*
X160967979Y-112240708D01*
X161059348Y-112242360D01*
X161187484Y-112243078D01*
X161281695Y-112240594D01*
X161348028Y-112233871D01*
X161392529Y-112221875D01*
X161421247Y-112203568D01*
X161440229Y-112177917D01*
X161440702Y-112177041D01*
X161450125Y-112132066D01*
X161435075Y-112074663D01*
X161394029Y-112002633D01*
X161325465Y-111913781D01*
X161227859Y-111805909D01*
X161099690Y-111676820D01*
X161082390Y-111660000D01*
X160987477Y-111568622D01*
X160894535Y-111480242D01*
X160810373Y-111401253D01*
X160741800Y-111338051D01*
X160698707Y-111299665D01*
X160651007Y-111256185D01*
X160617250Y-111215888D01*
X160598082Y-111173572D01*
X160594150Y-111124033D01*
X160606099Y-111062068D01*
X160634576Y-110982474D01*
X160680226Y-110880049D01*
X160743696Y-110749588D01*
X160774733Y-110687358D01*
X160834144Y-110566548D01*
X160890943Y-110447209D01*
X160941178Y-110337936D01*
X160980895Y-110247324D01*
X161005601Y-110185471D01*
X161029359Y-110122883D01*
X161065654Y-110031595D01*
X161111204Y-109919655D01*
X161162729Y-109795107D01*
X161216947Y-109665999D01*
X161229704Y-109635914D01*
X161296449Y-109476779D01*
X161353799Y-109334653D01*
X161404823Y-109200790D01*
X161452588Y-109066446D01*
X161500163Y-108922873D01*
X161550617Y-108761326D01*
X161607018Y-108573061D01*
X161629952Y-108495069D01*
X161673465Y-108341708D01*
X161704678Y-108217220D01*
X161724660Y-108112777D01*
X161734483Y-108019550D01*
X161735218Y-107928709D01*
X161727936Y-107831427D01*
X161719225Y-107759150D01*
X161707674Y-107665032D01*
X161702896Y-107599210D01*
X161705199Y-107550507D01*
X161714890Y-107507746D01*
X161727106Y-107473076D01*
X161765175Y-107401484D01*
X161814457Y-107362126D01*
X161818381Y-107360428D01*
X161893992Y-107341458D01*
X161952203Y-107357256D01*
X161998642Y-107409870D01*
X162009566Y-107430000D01*
X162033688Y-107507343D01*
X162045741Y-107619315D01*
X162045694Y-107766566D01*
X162033517Y-107949746D01*
X162009179Y-108169506D01*
X161972649Y-108426495D01*
X161958424Y-108516429D01*
X161944512Y-108579804D01*
X161919014Y-108673998D01*
X161884120Y-108792271D01*
X161842018Y-108927884D01*
X161794897Y-109074099D01*
X161744947Y-109224175D01*
X161694356Y-109371374D01*
X161645313Y-109508957D01*
X161600007Y-109630185D01*
X161580466Y-109680000D01*
X161541320Y-109773503D01*
X161489762Y-109890439D01*
X161431355Y-110018502D01*
X161371666Y-110145384D01*
X161345295Y-110200000D01*
X161271062Y-110359622D01*
X161209836Y-110506361D01*
X161164904Y-110632043D01*
X161148131Y-110690000D01*
X161122596Y-110782326D01*
X161094764Y-110871078D01*
X161069488Y-110941097D01*
X161062439Y-110957718D01*
X161038578Y-111020115D01*
X161034394Y-111067159D01*
X161044357Y-111107718D01*
X161066480Y-111143566D01*
X161114515Y-111202460D01*
X161184878Y-111280405D01*
X161273984Y-111373406D01*
X161360452Y-111460000D01*
X161451958Y-111551773D01*
X161535392Y-111638578D01*
X161605765Y-111714975D01*
X161658091Y-111775527D01*
X161687382Y-111814795D01*
X161689780Y-111819096D01*
X161721839Y-111916220D01*
X161735181Y-112034378D01*
X161729108Y-112158884D01*
X161710307Y-112251444D01*
X161659452Y-112383659D01*
X161590585Y-112483876D01*
X161501648Y-112552977D01*
X161390584Y-112591844D01*
X161255338Y-112601360D01*
X161093851Y-112582404D01*
X160991232Y-112559692D01*
X160858738Y-112530745D01*
X160753017Y-112520617D01*
X160664321Y-112531746D01*
X160582903Y-112566569D01*
X160499016Y-112627520D01*
X160416897Y-112703251D01*
X160315551Y-112795530D01*
X160229283Y-112856603D01*
X160151661Y-112889002D01*
X160076253Y-112895256D01*
X159996625Y-112877895D01*
X159984103Y-112873478D01*
X159913261Y-112833937D01*
X159831767Y-112766489D01*
X159747602Y-112678630D01*
X159668745Y-112577856D01*
X159667476Y-112576044D01*
X159611070Y-112502369D01*
X159556942Y-112452229D01*
X159495984Y-112422084D01*
X159419085Y-112408393D01*
X159317137Y-112407617D01*
X159244362Y-112411594D01*
X159140647Y-112417048D01*
X159065724Y-112416636D01*
X159008685Y-112409646D01*
X158958625Y-112395362D01*
X158950587Y-112392372D01*
X158847913Y-112332976D01*
X158763945Y-112245030D01*
X158702120Y-112136962D01*
X158665875Y-112017197D01*
X158658647Y-111894162D01*
X158683872Y-111776285D01*
X158691605Y-111757432D01*
X158745176Y-111660514D01*
X158819167Y-111569007D01*
X158916874Y-111480503D01*
X159041592Y-111392600D01*
X159196614Y-111302890D01*
X159385235Y-111208970D01*
X159536626Y-111140482D01*
X159665205Y-111080511D01*
X159762821Y-111024861D01*
X159837109Y-110967252D01*
X159895704Y-110901400D01*
X159946243Y-110821023D01*
X159962532Y-110790089D01*
X159996457Y-110720468D01*
X160026548Y-110650929D01*
X160054790Y-110575199D01*
X160083169Y-110487004D01*
X160113672Y-110380072D01*
X160148284Y-110248130D01*
X160188990Y-110084904D01*
X160199980Y-110040000D01*
X160255351Y-109811548D01*
X160301682Y-109616447D01*
X160340086Y-109449357D01*
X160371676Y-109304936D01*
X160397565Y-109177842D01*
X160418866Y-109062736D01*
X160436691Y-108954275D01*
X160452154Y-108847120D01*
X160458369Y-108800000D01*
X160485080Y-108634649D01*
X160524064Y-108449243D01*
X160571415Y-108260314D01*
X160623227Y-108084393D01*
X160637907Y-108040000D01*
X160662871Y-107964557D01*
X160696217Y-107860819D01*
X160734780Y-107738792D01*
X160775395Y-107608480D01*
X160808761Y-107500000D01*
X160845621Y-107381846D01*
X160880552Y-107274489D01*
X160911217Y-107184763D01*
X160935279Y-107119496D01*
X160950401Y-107085523D01*
X160950730Y-107085000D01*
X160993022Y-107052057D01*
X161053044Y-107043134D01*
X161119607Y-107054593D01*
G37*
G36*
X162803802Y-102014909D02*
G01*
X163030350Y-102054411D01*
X163242361Y-102120511D01*
X163433009Y-102213115D01*
X163481270Y-102243540D01*
X163640447Y-102371937D01*
X163766164Y-102522195D01*
X163858205Y-102693888D01*
X163916353Y-102886593D01*
X163940392Y-103099884D01*
X163941087Y-103145253D01*
X163922998Y-103374618D01*
X163869654Y-103586161D01*
X163782439Y-103778174D01*
X163662737Y-103948948D01*
X163511932Y-104096777D01*
X163331408Y-104219952D01*
X163122549Y-104316766D01*
X162947514Y-104371209D01*
X162786456Y-104401296D01*
X162606414Y-104417112D01*
X162422936Y-104418304D01*
X162251568Y-104404517D01*
X162161922Y-104389102D01*
X161927683Y-104320746D01*
X161717271Y-104221539D01*
X161526612Y-104089312D01*
X161422046Y-103995235D01*
X161326420Y-103893676D01*
X161248204Y-103791036D01*
X161177831Y-103673556D01*
X161124073Y-103566651D01*
X161083041Y-103450661D01*
X161464265Y-103450661D01*
X161470175Y-103484706D01*
X161487738Y-103542388D01*
X161516875Y-103595155D01*
X161563625Y-103650763D01*
X161634026Y-103716968D01*
X161685068Y-103760753D01*
X161857212Y-103886956D01*
X162037916Y-103985126D01*
X162221769Y-104053616D01*
X162403360Y-104090779D01*
X162577278Y-104094969D01*
X162710118Y-104072711D01*
X162791354Y-104044791D01*
X162895986Y-103999779D01*
X163013984Y-103942588D01*
X163135316Y-103878133D01*
X163249949Y-103811328D01*
X163273051Y-103796944D01*
X163395238Y-103707215D01*
X163494461Y-103608673D01*
X163563553Y-103508753D01*
X163575988Y-103482791D01*
X163601548Y-103385220D01*
X163608687Y-103262915D01*
X163598782Y-103125907D01*
X163573210Y-102984230D01*
X163533346Y-102847915D01*
X163480566Y-102726995D01*
X163469613Y-102707315D01*
X163396765Y-102607943D01*
X163303827Y-102520268D01*
X163199524Y-102449819D01*
X163092577Y-102402124D01*
X162991710Y-102382711D01*
X162958962Y-102383670D01*
X162895889Y-102390000D01*
X162970874Y-102500000D01*
X163040316Y-102608451D01*
X163086407Y-102699730D01*
X163113268Y-102785757D01*
X163125024Y-102878452D01*
X163126503Y-102950000D01*
X163108858Y-103129133D01*
X163059556Y-103284329D01*
X162979861Y-103414407D01*
X162871038Y-103518184D01*
X162734352Y-103594480D01*
X162571069Y-103642113D01*
X162382452Y-103659901D01*
X162366398Y-103660000D01*
X162177259Y-103645818D01*
X161977247Y-103602398D01*
X161760838Y-103528425D01*
X161688950Y-103498824D01*
X161592161Y-103458126D01*
X161526632Y-103433305D01*
X161487028Y-103424016D01*
X161468017Y-103429916D01*
X161464265Y-103450661D01*
X161083041Y-103450661D01*
X161063216Y-103394618D01*
X161040429Y-103218692D01*
X161054376Y-103042038D01*
X161103723Y-102867821D01*
X161187137Y-102699206D01*
X161303283Y-102539360D01*
X161450826Y-102391448D01*
X161628432Y-102258635D01*
X161691894Y-102219549D01*
X161888747Y-102124696D01*
X162105189Y-102056896D01*
X162334396Y-102016060D01*
X162569542Y-102002094D01*
X162803802Y-102014909D01*
G37*
G36*
X141446666Y-112046666D02*
G01*
X141446666Y-114146666D01*
X139346666Y-114146666D01*
X137246666Y-114146666D01*
X137246666Y-112046666D01*
X137246666Y-110546666D01*
X137846666Y-110546666D01*
X137846666Y-112046666D01*
X137846666Y-113546666D01*
X139346666Y-113546666D01*
X140846666Y-113546666D01*
X140846666Y-112046666D01*
X140846666Y-110546666D01*
X139346666Y-110546666D01*
X137846666Y-110546666D01*
X137246666Y-110546666D01*
X137246666Y-109946666D01*
X139346666Y-109946666D01*
X141446666Y-109946666D01*
X141446666Y-112046666D01*
G37*
G36*
X142527046Y-111198840D02*
G01*
X142628378Y-111328211D01*
X142633835Y-111494051D01*
X142548525Y-111635284D01*
X142484279Y-111723506D01*
X142526620Y-111796043D01*
X142548525Y-111814875D01*
X142637485Y-111963636D01*
X142616530Y-112137368D01*
X142548525Y-112235284D01*
X142484661Y-112323785D01*
X142528711Y-112397773D01*
X142551350Y-112417220D01*
X142657456Y-112465924D01*
X142729492Y-112423841D01*
X142879098Y-112354745D01*
X143058276Y-112365592D01*
X143166666Y-112426666D01*
X143257385Y-112472340D01*
X143326666Y-112426666D01*
X143479937Y-112354450D01*
X143659442Y-112368375D01*
X143779281Y-112445800D01*
X143824009Y-112568004D01*
X143816619Y-112718355D01*
X143767181Y-112840473D01*
X143701730Y-112880000D01*
X143683241Y-112920074D01*
X143744235Y-113010647D01*
X143822415Y-113170529D01*
X143803774Y-113331820D01*
X143713692Y-113464672D01*
X143577547Y-113539233D01*
X143420717Y-113525656D01*
X143345800Y-113479281D01*
X143261359Y-113334717D01*
X143258677Y-113155457D01*
X143323841Y-113029492D01*
X143365153Y-112936691D01*
X143317220Y-112851350D01*
X143238109Y-112784884D01*
X143157947Y-112826540D01*
X143135284Y-112848525D01*
X142971725Y-112937391D01*
X142801865Y-112917052D01*
X142715669Y-112849481D01*
X142628192Y-112788502D01*
X142547070Y-112832814D01*
X142493627Y-112915739D01*
X142546540Y-113011371D01*
X142552897Y-113018582D01*
X142640370Y-113196516D01*
X142598981Y-113372811D01*
X142548525Y-113435284D01*
X142484279Y-113523506D01*
X142526620Y-113596043D01*
X142548525Y-113614875D01*
X142637671Y-113763566D01*
X142614966Y-113937890D01*
X142541904Y-114041904D01*
X142374240Y-114136298D01*
X142201308Y-114119014D01*
X142126666Y-114066666D01*
X142059875Y-113936694D01*
X142046666Y-113846666D01*
X142082769Y-113693678D01*
X142126666Y-113626666D01*
X142172340Y-113535947D01*
X142126666Y-113466666D01*
X142059875Y-113336694D01*
X142046666Y-113246666D01*
X142082769Y-113093678D01*
X142126666Y-113026666D01*
X142172340Y-112935947D01*
X142126666Y-112866666D01*
X142055176Y-112714366D01*
X142065820Y-112533677D01*
X142126666Y-112426666D01*
X142172340Y-112335947D01*
X142126666Y-112266666D01*
X142059875Y-112136694D01*
X142046666Y-112046666D01*
X142082769Y-111893678D01*
X142126666Y-111826666D01*
X142172340Y-111735947D01*
X142126666Y-111666666D01*
X142044855Y-111507336D01*
X142066116Y-111338046D01*
X142171716Y-111203071D01*
X142342923Y-111146688D01*
X142346666Y-111146666D01*
X142527046Y-111198840D01*
G37*
G36*
X144964020Y-111824051D02*
G01*
X144966666Y-111826666D01*
X145057385Y-111872340D01*
X145126666Y-111826666D01*
X145278966Y-111755176D01*
X145459655Y-111765820D01*
X145566666Y-111826666D01*
X145657385Y-111872340D01*
X145726666Y-111826666D01*
X145879937Y-111754450D01*
X146059442Y-111768375D01*
X146179281Y-111845800D01*
X146224009Y-111968004D01*
X146216619Y-112118355D01*
X146167181Y-112240473D01*
X146101730Y-112280000D01*
X146083241Y-112320074D01*
X146144235Y-112410647D01*
X146223341Y-112570104D01*
X146206216Y-112729725D01*
X146118515Y-112861471D01*
X145985897Y-112937303D01*
X145834016Y-112929182D01*
X145732279Y-112860850D01*
X145629179Y-112795666D01*
X145544152Y-112835540D01*
X145495773Y-112917202D01*
X145551711Y-113016974D01*
X145560799Y-113027313D01*
X145634749Y-113186406D01*
X145606709Y-113342873D01*
X145505437Y-113467957D01*
X145359691Y-113532901D01*
X145198227Y-113508946D01*
X145127313Y-113460799D01*
X145025141Y-113395877D01*
X144944984Y-113434275D01*
X144932814Y-113447070D01*
X144889552Y-113538821D01*
X144949481Y-113615669D01*
X145037827Y-113763787D01*
X145014933Y-113937867D01*
X144941904Y-114041904D01*
X144774240Y-114136298D01*
X144601308Y-114119014D01*
X144526666Y-114066666D01*
X144459875Y-113936694D01*
X144446666Y-113846666D01*
X144482769Y-113693678D01*
X144526666Y-113626666D01*
X144572340Y-113535947D01*
X144526666Y-113466666D01*
X144444855Y-113307336D01*
X144466116Y-113138046D01*
X144571716Y-113003071D01*
X144742923Y-112946688D01*
X144746666Y-112946666D01*
X144899654Y-112982769D01*
X144966666Y-113026666D01*
X145057385Y-113072340D01*
X145126666Y-113026666D01*
X145172340Y-112935947D01*
X145126666Y-112866666D01*
X145055631Y-112716154D01*
X145064163Y-112537102D01*
X145123841Y-112429492D01*
X145165153Y-112336691D01*
X145164472Y-112335478D01*
X145497593Y-112335478D01*
X145528182Y-112396666D01*
X145641306Y-112475771D01*
X145738113Y-112425784D01*
X145748471Y-112410413D01*
X145748110Y-112307125D01*
X145713245Y-112246561D01*
X145626704Y-112188074D01*
X145547525Y-112232814D01*
X145497593Y-112335478D01*
X145164472Y-112335478D01*
X145117220Y-112251350D01*
X145038109Y-112184884D01*
X144957947Y-112226540D01*
X144935284Y-112248525D01*
X144770716Y-112339364D01*
X144607459Y-112319805D01*
X144486240Y-112206672D01*
X144446666Y-112046666D01*
X144501139Y-111874400D01*
X144635040Y-111767388D01*
X144804092Y-111744361D01*
X144964020Y-111824051D01*
G37*
G36*
X146050382Y-113565462D02*
G01*
X146187668Y-113660413D01*
X146246594Y-113815795D01*
X146246666Y-113821904D01*
X146193006Y-113987552D01*
X146061616Y-114100001D01*
X145896877Y-114138361D01*
X145743173Y-114081742D01*
X145726666Y-114066666D01*
X145659875Y-113936694D01*
X145646666Y-113846666D01*
X145682769Y-113693678D01*
X145726666Y-113626666D01*
X145881220Y-113548396D01*
X146050382Y-113565462D01*
G37*
G36*
X147327046Y-108198840D02*
G01*
X147428378Y-108328211D01*
X147433835Y-108494051D01*
X147348525Y-108635284D01*
X147284661Y-108723785D01*
X147328711Y-108797773D01*
X147351350Y-108817220D01*
X147457456Y-108865924D01*
X147529492Y-108823841D01*
X147679098Y-108754745D01*
X147858276Y-108765592D01*
X147966666Y-108826666D01*
X148057385Y-108872340D01*
X148126666Y-108826666D01*
X148256638Y-108759875D01*
X148346666Y-108746666D01*
X148499654Y-108782769D01*
X148566666Y-108826666D01*
X148657385Y-108872340D01*
X148726666Y-108826666D01*
X148878966Y-108755176D01*
X149059655Y-108765820D01*
X149166666Y-108826666D01*
X149257385Y-108872340D01*
X149326666Y-108826666D01*
X149456638Y-108759875D01*
X149546666Y-108746666D01*
X149699654Y-108782769D01*
X149766666Y-108826666D01*
X149857385Y-108872340D01*
X149926666Y-108826666D01*
X150079937Y-108754450D01*
X150259442Y-108768375D01*
X150379281Y-108845800D01*
X150441967Y-109001393D01*
X150403658Y-109152564D01*
X150294627Y-109271517D01*
X150145145Y-109330455D01*
X149985487Y-109301582D01*
X149927313Y-109260799D01*
X149825141Y-109195877D01*
X149744984Y-109234275D01*
X149732814Y-109247070D01*
X149689552Y-109338821D01*
X149749481Y-109415669D01*
X149837637Y-109563836D01*
X149816515Y-109737301D01*
X149748525Y-109835284D01*
X149684279Y-109923506D01*
X149726620Y-109996043D01*
X149748525Y-110014875D01*
X149832932Y-110144094D01*
X149846666Y-110216734D01*
X149801669Y-110362828D01*
X149748525Y-110435284D01*
X149684661Y-110523785D01*
X149728711Y-110597773D01*
X149751350Y-110617220D01*
X149857456Y-110665924D01*
X149929492Y-110623841D01*
X150080902Y-110553850D01*
X150259625Y-110568645D01*
X150379281Y-110645800D01*
X150424009Y-110768004D01*
X150416619Y-110918355D01*
X150367181Y-111040473D01*
X150301730Y-111080000D01*
X150283241Y-111120074D01*
X150344235Y-111210647D01*
X150411436Y-111345212D01*
X150422821Y-111501816D01*
X150382948Y-111630133D01*
X150301730Y-111680000D01*
X150283241Y-111720074D01*
X150344235Y-111810647D01*
X150425822Y-111974009D01*
X150407333Y-112134848D01*
X150315110Y-112264723D01*
X150175491Y-112335197D01*
X150014816Y-112317829D01*
X149927313Y-112260799D01*
X149825141Y-112195877D01*
X149744984Y-112234275D01*
X149732814Y-112247070D01*
X149689552Y-112338821D01*
X149749481Y-112415669D01*
X149837637Y-112563836D01*
X149816515Y-112737301D01*
X149748525Y-112835284D01*
X149684661Y-112923785D01*
X149728711Y-112997773D01*
X149751350Y-113017220D01*
X149857456Y-113065924D01*
X149929492Y-113023841D01*
X150079098Y-112954745D01*
X150258276Y-112965592D01*
X150366666Y-113026666D01*
X150457385Y-113072340D01*
X150526666Y-113026666D01*
X150572340Y-112935947D01*
X150526666Y-112866666D01*
X150444855Y-112707336D01*
X150466116Y-112538046D01*
X150571716Y-112403071D01*
X150742923Y-112346688D01*
X150746666Y-112346666D01*
X150927046Y-112398840D01*
X151028378Y-112528211D01*
X151033835Y-112694051D01*
X150948525Y-112835284D01*
X150884661Y-112923785D01*
X150928711Y-112997773D01*
X150951350Y-113017220D01*
X151057456Y-113065924D01*
X151129492Y-113023841D01*
X151256770Y-112959497D01*
X151346666Y-112946666D01*
X151527046Y-112998840D01*
X151628378Y-113128211D01*
X151633835Y-113294051D01*
X151548525Y-113435284D01*
X151484661Y-113523785D01*
X151528711Y-113597773D01*
X151551350Y-113617220D01*
X151657456Y-113665924D01*
X151729492Y-113623841D01*
X151880902Y-113553850D01*
X152059625Y-113568645D01*
X152179281Y-113645800D01*
X152241967Y-113801393D01*
X152203658Y-113952564D01*
X152094627Y-114071517D01*
X151945145Y-114130455D01*
X151785487Y-114101582D01*
X151727313Y-114060799D01*
X151627290Y-113994998D01*
X151548905Y-114030579D01*
X151527371Y-114052897D01*
X151373000Y-114138160D01*
X151203538Y-114117076D01*
X151114875Y-114048525D01*
X151037580Y-113984279D01*
X150957841Y-114026620D01*
X150935284Y-114048525D01*
X150797676Y-114130926D01*
X150716734Y-114146666D01*
X150573153Y-114098441D01*
X150514875Y-114048525D01*
X150437580Y-113984279D01*
X150357841Y-114026620D01*
X150335284Y-114048525D01*
X150170716Y-114139364D01*
X150007459Y-114119805D01*
X149886240Y-114006672D01*
X149846666Y-113846666D01*
X149881359Y-113695250D01*
X149923841Y-113629492D01*
X149965153Y-113536691D01*
X149964472Y-113535478D01*
X150297593Y-113535478D01*
X150328182Y-113596666D01*
X150441306Y-113675771D01*
X150538113Y-113625784D01*
X150548471Y-113610413D01*
X150548209Y-113535478D01*
X150897593Y-113535478D01*
X150928182Y-113596666D01*
X151041306Y-113675771D01*
X151138113Y-113625784D01*
X151148471Y-113610413D01*
X151148110Y-113507125D01*
X151113245Y-113446561D01*
X151026704Y-113388074D01*
X150947525Y-113432814D01*
X150897593Y-113535478D01*
X150548209Y-113535478D01*
X150548110Y-113507125D01*
X150513245Y-113446561D01*
X150426704Y-113388074D01*
X150347525Y-113432814D01*
X150297593Y-113535478D01*
X149964472Y-113535478D01*
X149917220Y-113451350D01*
X149838109Y-113384884D01*
X149757947Y-113426540D01*
X149735284Y-113448525D01*
X149570716Y-113539364D01*
X149407459Y-113519805D01*
X149286240Y-113406672D01*
X149246666Y-113246666D01*
X149281359Y-113095250D01*
X149323841Y-113029492D01*
X149365153Y-112936691D01*
X149317220Y-112851350D01*
X149238109Y-112784884D01*
X149157947Y-112826540D01*
X149135284Y-112848525D01*
X148971725Y-112937391D01*
X148801865Y-112917052D01*
X148715669Y-112849481D01*
X148628192Y-112788502D01*
X148547070Y-112832814D01*
X148495116Y-112914361D01*
X148545941Y-113010264D01*
X148560799Y-113027313D01*
X148634749Y-113186406D01*
X148606709Y-113342873D01*
X148505437Y-113467957D01*
X148359691Y-113532901D01*
X148198227Y-113508946D01*
X148127313Y-113460799D01*
X148025141Y-113395877D01*
X147944984Y-113434275D01*
X147932814Y-113447070D01*
X147889552Y-113538821D01*
X147949481Y-113615669D01*
X148037827Y-113763787D01*
X148014933Y-113937867D01*
X147941904Y-114041904D01*
X147774240Y-114136298D01*
X147601308Y-114119014D01*
X147526666Y-114066666D01*
X147459875Y-113936694D01*
X147446666Y-113846666D01*
X147482769Y-113693678D01*
X147526666Y-113626666D01*
X147572340Y-113535947D01*
X147526666Y-113466666D01*
X147459875Y-113336694D01*
X147446666Y-113246666D01*
X147482769Y-113093678D01*
X147526666Y-113026666D01*
X147572340Y-112935947D01*
X147572031Y-112935478D01*
X147897593Y-112935478D01*
X147928182Y-112996666D01*
X148041306Y-113075771D01*
X148138113Y-113025784D01*
X148148471Y-113010413D01*
X148148110Y-112907125D01*
X148113245Y-112846561D01*
X148026704Y-112788074D01*
X147947525Y-112832814D01*
X147897593Y-112935478D01*
X147572031Y-112935478D01*
X147526666Y-112866666D01*
X147444855Y-112707336D01*
X147466116Y-112538046D01*
X147571716Y-112403071D01*
X147742923Y-112346688D01*
X147746666Y-112346666D01*
X147899654Y-112382769D01*
X147966666Y-112426666D01*
X148057385Y-112472340D01*
X148126666Y-112426666D01*
X148172340Y-112335947D01*
X148172031Y-112335478D01*
X148497593Y-112335478D01*
X148528182Y-112396666D01*
X148641306Y-112475771D01*
X148738113Y-112425784D01*
X148748471Y-112410413D01*
X148748209Y-112335478D01*
X149097593Y-112335478D01*
X149128182Y-112396666D01*
X149241306Y-112475771D01*
X149338113Y-112425784D01*
X149348471Y-112410413D01*
X149348110Y-112307125D01*
X149313245Y-112246561D01*
X149226704Y-112188074D01*
X149147525Y-112232814D01*
X149097593Y-112335478D01*
X148748209Y-112335478D01*
X148748110Y-112307125D01*
X148713245Y-112246561D01*
X148626704Y-112188074D01*
X148547525Y-112232814D01*
X148497593Y-112335478D01*
X148172031Y-112335478D01*
X148126666Y-112266666D01*
X148055631Y-112116154D01*
X148064163Y-111937102D01*
X148123841Y-111829492D01*
X148165153Y-111736691D01*
X148164472Y-111735478D01*
X148497593Y-111735478D01*
X148528182Y-111796666D01*
X148641306Y-111875771D01*
X148738113Y-111825784D01*
X148748471Y-111810413D01*
X148748209Y-111735478D01*
X149097593Y-111735478D01*
X149128182Y-111796666D01*
X149241306Y-111875771D01*
X149338113Y-111825784D01*
X149348471Y-111810413D01*
X149348209Y-111735478D01*
X149697593Y-111735478D01*
X149728182Y-111796666D01*
X149841306Y-111875771D01*
X149938113Y-111825784D01*
X149948471Y-111810413D01*
X149948110Y-111707125D01*
X149913245Y-111646561D01*
X149826704Y-111588074D01*
X149747525Y-111632814D01*
X149697593Y-111735478D01*
X149348209Y-111735478D01*
X149348110Y-111707125D01*
X149313245Y-111646561D01*
X149226704Y-111588074D01*
X149147525Y-111632814D01*
X149097593Y-111735478D01*
X148748209Y-111735478D01*
X148748110Y-111707125D01*
X148713245Y-111646561D01*
X148626704Y-111588074D01*
X148547525Y-111632814D01*
X148497593Y-111735478D01*
X148164472Y-111735478D01*
X148117220Y-111651350D01*
X148038109Y-111584884D01*
X147957947Y-111626540D01*
X147935284Y-111648525D01*
X147771725Y-111737391D01*
X147601865Y-111717052D01*
X147515669Y-111649481D01*
X147428192Y-111588502D01*
X147347070Y-111632814D01*
X147295116Y-111714361D01*
X147345941Y-111810264D01*
X147360799Y-111827313D01*
X147431208Y-111982771D01*
X147403025Y-112139793D01*
X147304047Y-112268106D01*
X147162072Y-112337437D01*
X147004895Y-112317513D01*
X146945800Y-112279281D01*
X146860956Y-112133827D01*
X146859677Y-111953693D01*
X146926666Y-111826666D01*
X146972340Y-111735947D01*
X146926666Y-111666666D01*
X146855631Y-111516154D01*
X146864163Y-111337102D01*
X146923841Y-111229492D01*
X146965153Y-111136691D01*
X146917220Y-111051350D01*
X146838109Y-110984884D01*
X146757947Y-111026540D01*
X146735284Y-111048525D01*
X146597676Y-111130926D01*
X146516734Y-111146666D01*
X146373153Y-111098441D01*
X146314875Y-111048525D01*
X146237580Y-110984279D01*
X146157841Y-111026620D01*
X146135284Y-111048525D01*
X145970716Y-111139364D01*
X145807459Y-111119805D01*
X145686240Y-111006672D01*
X145646666Y-110846666D01*
X145702621Y-110661331D01*
X145853260Y-110558862D01*
X145946666Y-110546666D01*
X146099654Y-110582769D01*
X146166666Y-110626666D01*
X146257385Y-110672340D01*
X146326666Y-110626666D01*
X146478966Y-110555176D01*
X146659655Y-110565820D01*
X146766666Y-110626666D01*
X146857385Y-110672340D01*
X146926666Y-110626666D01*
X146972340Y-110535947D01*
X146964138Y-110523506D01*
X147284279Y-110523506D01*
X147326620Y-110596043D01*
X147348525Y-110614875D01*
X147437409Y-110763641D01*
X147417140Y-110937130D01*
X147350952Y-111032857D01*
X147292520Y-111133057D01*
X147330952Y-111204285D01*
X147450738Y-111276354D01*
X147542285Y-111220174D01*
X147546666Y-111213333D01*
X147648412Y-111156324D01*
X147803067Y-111154994D01*
X147943390Y-111207209D01*
X147966666Y-111226666D01*
X148057385Y-111272340D01*
X148126666Y-111226666D01*
X148256638Y-111159875D01*
X148346666Y-111146666D01*
X148499654Y-111182769D01*
X148566666Y-111226666D01*
X148657385Y-111272340D01*
X148726666Y-111226666D01*
X148856638Y-111159875D01*
X148946666Y-111146666D01*
X149099654Y-111182769D01*
X149166666Y-111226666D01*
X149257385Y-111272340D01*
X149326666Y-111226666D01*
X149372340Y-111135947D01*
X149372031Y-111135478D01*
X149697593Y-111135478D01*
X149728182Y-111196666D01*
X149841306Y-111275771D01*
X149938113Y-111225784D01*
X149948471Y-111210413D01*
X149948110Y-111107125D01*
X149913245Y-111046561D01*
X149826704Y-110988074D01*
X149747525Y-111032814D01*
X149697593Y-111135478D01*
X149372031Y-111135478D01*
X149326666Y-111066666D01*
X149255176Y-110914366D01*
X149265820Y-110733677D01*
X149326666Y-110626666D01*
X149372340Y-110535947D01*
X149326666Y-110466666D01*
X149255176Y-110314366D01*
X149265820Y-110133677D01*
X149326666Y-110026666D01*
X149372340Y-109935947D01*
X149326666Y-109866666D01*
X149255631Y-109716154D01*
X149264163Y-109537102D01*
X149323841Y-109429492D01*
X149365153Y-109336691D01*
X149317220Y-109251350D01*
X149238109Y-109184884D01*
X149157947Y-109226540D01*
X149135284Y-109248525D01*
X148997676Y-109330926D01*
X148916734Y-109346666D01*
X148773153Y-109298441D01*
X148714875Y-109248525D01*
X148637580Y-109184279D01*
X148557841Y-109226620D01*
X148535284Y-109248525D01*
X148397676Y-109330926D01*
X148316734Y-109346666D01*
X148173153Y-109298441D01*
X148114875Y-109248525D01*
X148037580Y-109184279D01*
X147957841Y-109226620D01*
X147935284Y-109248525D01*
X147766174Y-109339639D01*
X147585973Y-109301991D01*
X147518582Y-109252897D01*
X147420336Y-109193771D01*
X147338349Y-109241113D01*
X147332814Y-109247070D01*
X147289552Y-109338821D01*
X147349481Y-109415669D01*
X147437637Y-109563836D01*
X147416515Y-109737301D01*
X147348525Y-109835284D01*
X147284279Y-109923506D01*
X147326620Y-109996043D01*
X147348525Y-110014875D01*
X147432932Y-110144094D01*
X147446666Y-110216734D01*
X147401669Y-110362828D01*
X147348525Y-110435284D01*
X147284279Y-110523506D01*
X146964138Y-110523506D01*
X146926666Y-110466666D01*
X146855631Y-110316154D01*
X146864163Y-110137102D01*
X146923841Y-110029492D01*
X146965153Y-109936691D01*
X146917220Y-109851350D01*
X146838109Y-109784884D01*
X146757947Y-109826540D01*
X146735284Y-109848525D01*
X146570716Y-109939364D01*
X146407459Y-109919805D01*
X146286240Y-109806672D01*
X146246666Y-109646666D01*
X146281359Y-109495250D01*
X146323841Y-109429492D01*
X146365153Y-109336691D01*
X146364472Y-109335478D01*
X146697593Y-109335478D01*
X146728182Y-109396666D01*
X146841306Y-109475771D01*
X146938113Y-109425784D01*
X146948471Y-109410413D01*
X146948110Y-109307125D01*
X146913245Y-109246561D01*
X146826704Y-109188074D01*
X146747525Y-109232814D01*
X146697593Y-109335478D01*
X146364472Y-109335478D01*
X146317220Y-109251350D01*
X146238109Y-109184884D01*
X146157947Y-109226540D01*
X146135284Y-109248525D01*
X145970716Y-109339364D01*
X145807459Y-109319805D01*
X145686240Y-109206672D01*
X145646666Y-109046666D01*
X145701139Y-108874400D01*
X145835040Y-108767388D01*
X146004092Y-108744361D01*
X146164020Y-108824051D01*
X146166666Y-108826666D01*
X146257385Y-108872340D01*
X146326666Y-108826666D01*
X146456638Y-108759875D01*
X146546666Y-108746666D01*
X146699654Y-108782769D01*
X146766666Y-108826666D01*
X146857385Y-108872340D01*
X146926666Y-108826666D01*
X146972340Y-108735947D01*
X146926666Y-108666666D01*
X146844855Y-108507336D01*
X146866116Y-108338046D01*
X146971716Y-108203071D01*
X147142923Y-108146688D01*
X147146666Y-108146666D01*
X147327046Y-108198840D01*
G37*
G36*
X146650382Y-112965462D02*
G01*
X146787668Y-113060413D01*
X146846594Y-113215795D01*
X146846666Y-113221904D01*
X146793006Y-113387552D01*
X146661616Y-113500001D01*
X146496877Y-113538361D01*
X146343173Y-113481742D01*
X146326666Y-113466666D01*
X146259875Y-113336694D01*
X146246666Y-113246666D01*
X146282769Y-113093678D01*
X146326666Y-113026666D01*
X146481220Y-112948396D01*
X146650382Y-112965462D01*
G37*
G36*
X152127046Y-111798840D02*
G01*
X152228378Y-111928211D01*
X152233835Y-112094051D01*
X152148525Y-112235284D01*
X152084279Y-112323506D01*
X152126620Y-112396043D01*
X152148525Y-112414875D01*
X152237671Y-112563566D01*
X152214966Y-112737890D01*
X152141904Y-112841904D01*
X151974240Y-112936298D01*
X151801308Y-112919014D01*
X151726666Y-112866666D01*
X151655631Y-112716154D01*
X151664163Y-112537102D01*
X151723841Y-112429492D01*
X151765153Y-112336691D01*
X151717220Y-112251350D01*
X151638109Y-112184884D01*
X151557947Y-112226540D01*
X151535284Y-112248525D01*
X151370716Y-112339364D01*
X151207459Y-112319805D01*
X151086240Y-112206672D01*
X151046666Y-112046666D01*
X151102621Y-111861331D01*
X151253260Y-111758862D01*
X151346666Y-111746666D01*
X151499654Y-111782769D01*
X151566666Y-111826666D01*
X151657385Y-111872340D01*
X151726666Y-111826666D01*
X151856638Y-111759875D01*
X151946666Y-111746666D01*
X152127046Y-111798840D01*
G37*
G36*
X144364020Y-110024051D02*
G01*
X144366666Y-110026666D01*
X144457385Y-110072340D01*
X144526666Y-110026666D01*
X144679937Y-109954450D01*
X144859442Y-109968375D01*
X144979281Y-110045800D01*
X145041967Y-110201393D01*
X145003658Y-110352564D01*
X144894627Y-110471517D01*
X144745145Y-110530455D01*
X144585487Y-110501582D01*
X144527313Y-110460799D01*
X144425141Y-110395877D01*
X144344984Y-110434275D01*
X144332814Y-110447070D01*
X144289552Y-110538821D01*
X144349481Y-110615669D01*
X144437147Y-110763279D01*
X144419522Y-110933812D01*
X144352897Y-111027371D01*
X144294297Y-111109560D01*
X144336515Y-111199098D01*
X144360799Y-111227313D01*
X144431096Y-111400441D01*
X144420219Y-111509631D01*
X144323918Y-111660987D01*
X144163106Y-111730635D01*
X143989154Y-111702820D01*
X143927313Y-111660799D01*
X143827290Y-111594998D01*
X143748905Y-111630579D01*
X143727371Y-111652897D01*
X143572166Y-111738264D01*
X143400182Y-111717859D01*
X143326666Y-111666666D01*
X143259875Y-111536694D01*
X143246666Y-111446666D01*
X143282769Y-111293678D01*
X143326666Y-111226666D01*
X143456638Y-111159875D01*
X143546666Y-111146666D01*
X143699654Y-111182769D01*
X143766666Y-111226666D01*
X143857385Y-111272340D01*
X143926666Y-111226666D01*
X143972340Y-111135947D01*
X143926666Y-111066666D01*
X143859875Y-110936694D01*
X143846666Y-110846666D01*
X143882769Y-110693678D01*
X143926666Y-110626666D01*
X143972340Y-110535947D01*
X143926666Y-110466666D01*
X143859875Y-110336694D01*
X143846666Y-110246666D01*
X143901139Y-110074400D01*
X144035040Y-109967388D01*
X144204092Y-109944361D01*
X144364020Y-110024051D01*
G37*
G36*
X137764020Y-104024051D02*
G01*
X137766666Y-104026666D01*
X137857385Y-104072340D01*
X137926666Y-104026666D01*
X138078966Y-103955176D01*
X138259655Y-103965820D01*
X138366666Y-104026666D01*
X138457385Y-104072340D01*
X138526666Y-104026666D01*
X138678966Y-103955176D01*
X138859655Y-103965820D01*
X138966666Y-104026666D01*
X139057385Y-104072340D01*
X139126666Y-104026666D01*
X139278966Y-103955176D01*
X139459655Y-103965820D01*
X139566666Y-104026666D01*
X139657385Y-104072340D01*
X139726666Y-104026666D01*
X139879937Y-103954450D01*
X140059442Y-103968375D01*
X140179281Y-104045800D01*
X140245571Y-104203552D01*
X140209444Y-104352758D01*
X140100749Y-104468039D01*
X139949337Y-104524018D01*
X139785056Y-104495316D01*
X139710647Y-104444235D01*
X139616181Y-104381975D01*
X139580000Y-104401730D01*
X139524435Y-104482680D01*
X139393324Y-104522647D01*
X139240040Y-104514667D01*
X139127313Y-104460799D01*
X139025141Y-104395877D01*
X138944984Y-104434275D01*
X138932814Y-104447070D01*
X138889552Y-104538821D01*
X138949481Y-104615669D01*
X139037637Y-104763836D01*
X139016515Y-104937301D01*
X138948525Y-105035284D01*
X138884661Y-105123785D01*
X138928711Y-105197773D01*
X138951350Y-105217220D01*
X139057456Y-105265924D01*
X139129492Y-105223841D01*
X139280902Y-105153850D01*
X139459625Y-105168645D01*
X139579281Y-105245800D01*
X139641967Y-105401393D01*
X139603658Y-105552564D01*
X139494627Y-105671517D01*
X139345145Y-105730455D01*
X139185487Y-105701582D01*
X139127313Y-105660799D01*
X139025141Y-105595877D01*
X138944984Y-105634275D01*
X138932814Y-105647070D01*
X138889552Y-105738821D01*
X138949481Y-105815669D01*
X139037637Y-105963836D01*
X139016515Y-106137301D01*
X138948525Y-106235284D01*
X138884279Y-106323506D01*
X138926620Y-106396043D01*
X138948525Y-106414875D01*
X139032932Y-106544094D01*
X139046666Y-106616734D01*
X139001669Y-106762828D01*
X138948525Y-106835284D01*
X138884279Y-106923506D01*
X138926620Y-106996043D01*
X138948525Y-107014875D01*
X139032932Y-107144094D01*
X139046666Y-107216734D01*
X139001669Y-107362828D01*
X138948525Y-107435284D01*
X138884661Y-107523785D01*
X138928711Y-107597773D01*
X138951350Y-107617220D01*
X139057456Y-107665924D01*
X139129492Y-107623841D01*
X139279098Y-107554745D01*
X139458276Y-107565592D01*
X139566666Y-107626666D01*
X139657385Y-107672340D01*
X139726666Y-107626666D01*
X139772340Y-107535947D01*
X139772031Y-107535478D01*
X140097593Y-107535478D01*
X140128182Y-107596666D01*
X140241306Y-107675771D01*
X140338113Y-107625784D01*
X140348471Y-107610413D01*
X140348168Y-107523785D01*
X140684661Y-107523785D01*
X140728711Y-107597773D01*
X140751350Y-107617220D01*
X140857456Y-107665924D01*
X140929492Y-107623841D01*
X141080902Y-107553850D01*
X141259625Y-107568645D01*
X141379281Y-107645800D01*
X141441967Y-107801393D01*
X141403658Y-107952564D01*
X141294627Y-108071517D01*
X141145145Y-108130455D01*
X140985487Y-108101582D01*
X140927313Y-108060799D01*
X140825141Y-107995877D01*
X140744984Y-108034275D01*
X140732814Y-108047070D01*
X140689552Y-108138821D01*
X140749481Y-108215669D01*
X140837559Y-108363832D01*
X140817132Y-108537047D01*
X140750952Y-108632857D01*
X140692520Y-108733057D01*
X140730952Y-108804285D01*
X140850738Y-108876354D01*
X140942285Y-108820174D01*
X140946666Y-108813333D01*
X141048412Y-108756324D01*
X141203067Y-108754994D01*
X141343390Y-108807209D01*
X141366666Y-108826666D01*
X141457385Y-108872340D01*
X141526666Y-108826666D01*
X141656638Y-108759875D01*
X141746666Y-108746666D01*
X141899654Y-108782769D01*
X141966666Y-108826666D01*
X142057385Y-108872340D01*
X142126666Y-108826666D01*
X142172340Y-108735947D01*
X142126666Y-108666666D01*
X142059875Y-108536694D01*
X142046666Y-108446666D01*
X142082769Y-108293678D01*
X142126666Y-108226666D01*
X142172340Y-108135947D01*
X142126666Y-108066666D01*
X142059875Y-107936694D01*
X142046666Y-107846666D01*
X142082769Y-107693678D01*
X142126666Y-107626666D01*
X142172340Y-107535947D01*
X142172031Y-107535478D01*
X142497593Y-107535478D01*
X142528182Y-107596666D01*
X142641306Y-107675771D01*
X142738113Y-107625784D01*
X142748471Y-107610413D01*
X142748110Y-107507125D01*
X142713245Y-107446561D01*
X142626704Y-107388074D01*
X142547525Y-107432814D01*
X142497593Y-107535478D01*
X142172031Y-107535478D01*
X142126666Y-107466666D01*
X142055631Y-107316154D01*
X142064163Y-107137102D01*
X142123841Y-107029492D01*
X142165153Y-106936691D01*
X142164472Y-106935478D01*
X142497593Y-106935478D01*
X142528182Y-106996666D01*
X142641306Y-107075771D01*
X142738113Y-107025784D01*
X142748471Y-107010413D01*
X142748110Y-106907125D01*
X142713245Y-106846561D01*
X142626704Y-106788074D01*
X142547525Y-106832814D01*
X142497593Y-106935478D01*
X142164472Y-106935478D01*
X142117220Y-106851350D01*
X142038109Y-106784884D01*
X141957947Y-106826540D01*
X141935284Y-106848525D01*
X141797676Y-106930926D01*
X141716734Y-106946666D01*
X141573153Y-106898441D01*
X141514875Y-106848525D01*
X141437580Y-106784279D01*
X141357841Y-106826620D01*
X141335284Y-106848525D01*
X141166174Y-106939639D01*
X140985973Y-106901991D01*
X140918582Y-106852897D01*
X140820336Y-106793771D01*
X140738349Y-106841113D01*
X140732814Y-106847070D01*
X140689552Y-106938821D01*
X140749481Y-107015669D01*
X140837637Y-107163836D01*
X140816515Y-107337301D01*
X140748525Y-107435284D01*
X140684661Y-107523785D01*
X140348168Y-107523785D01*
X140348110Y-107507125D01*
X140313245Y-107446561D01*
X140226704Y-107388074D01*
X140147525Y-107432814D01*
X140097593Y-107535478D01*
X139772031Y-107535478D01*
X139726666Y-107466666D01*
X139644855Y-107307336D01*
X139666116Y-107138046D01*
X139771716Y-107003071D01*
X139942923Y-106946688D01*
X139946666Y-106946666D01*
X140099654Y-106982769D01*
X140166666Y-107026666D01*
X140257385Y-107072340D01*
X140326666Y-107026666D01*
X140372340Y-106935947D01*
X140326666Y-106866666D01*
X140244855Y-106707336D01*
X140266116Y-106538046D01*
X140371716Y-106403071D01*
X140542923Y-106346688D01*
X140546666Y-106346666D01*
X140699654Y-106382769D01*
X140766666Y-106426666D01*
X140857385Y-106472340D01*
X140926666Y-106426666D01*
X141078966Y-106355176D01*
X141259655Y-106365820D01*
X141366666Y-106426666D01*
X141457385Y-106472340D01*
X141526666Y-106426666D01*
X141572340Y-106335947D01*
X141572031Y-106335478D01*
X141897593Y-106335478D01*
X141928182Y-106396666D01*
X142041306Y-106475771D01*
X142138113Y-106425784D01*
X142148471Y-106410413D01*
X142148209Y-106335478D01*
X142497593Y-106335478D01*
X142528182Y-106396666D01*
X142641306Y-106475771D01*
X142738113Y-106425784D01*
X142748471Y-106410413D01*
X142748110Y-106307125D01*
X142713245Y-106246561D01*
X142626704Y-106188074D01*
X142547525Y-106232814D01*
X142497593Y-106335478D01*
X142148209Y-106335478D01*
X142148110Y-106307125D01*
X142113245Y-106246561D01*
X142026704Y-106188074D01*
X141947525Y-106232814D01*
X141897593Y-106335478D01*
X141572031Y-106335478D01*
X141526666Y-106266666D01*
X141455631Y-106116154D01*
X141464163Y-105937102D01*
X141523841Y-105829492D01*
X141565153Y-105736691D01*
X141564472Y-105735478D01*
X141897593Y-105735478D01*
X141928182Y-105796666D01*
X142041306Y-105875771D01*
X142138113Y-105825784D01*
X142148471Y-105810413D01*
X142148209Y-105735478D01*
X142497593Y-105735478D01*
X142528182Y-105796666D01*
X142641306Y-105875771D01*
X142738113Y-105825784D01*
X142748471Y-105810413D01*
X142748110Y-105707125D01*
X142713245Y-105646561D01*
X142626704Y-105588074D01*
X142547525Y-105632814D01*
X142497593Y-105735478D01*
X142148209Y-105735478D01*
X142148110Y-105707125D01*
X142113245Y-105646561D01*
X142026704Y-105588074D01*
X141947525Y-105632814D01*
X141897593Y-105735478D01*
X141564472Y-105735478D01*
X141517220Y-105651350D01*
X141438109Y-105584884D01*
X141357947Y-105626540D01*
X141335284Y-105648525D01*
X141170716Y-105739364D01*
X141007459Y-105719805D01*
X140886240Y-105606672D01*
X140846666Y-105446666D01*
X140901139Y-105274400D01*
X141035040Y-105167388D01*
X141204092Y-105144361D01*
X141364020Y-105224051D01*
X141366666Y-105226666D01*
X141457385Y-105272340D01*
X141526666Y-105226666D01*
X141572340Y-105135947D01*
X141572031Y-105135478D01*
X141897593Y-105135478D01*
X141928182Y-105196666D01*
X142041306Y-105275771D01*
X142138113Y-105225784D01*
X142148471Y-105210413D01*
X142148209Y-105135478D01*
X142497593Y-105135478D01*
X142528182Y-105196666D01*
X142641306Y-105275771D01*
X142738113Y-105225784D01*
X142748471Y-105210413D01*
X142748110Y-105107125D01*
X142713245Y-105046561D01*
X142626704Y-104988074D01*
X142547525Y-105032814D01*
X142497593Y-105135478D01*
X142148209Y-105135478D01*
X142148110Y-105107125D01*
X142113245Y-105046561D01*
X142026704Y-104988074D01*
X141947525Y-105032814D01*
X141897593Y-105135478D01*
X141572031Y-105135478D01*
X141526666Y-105066666D01*
X141455631Y-104916154D01*
X141464163Y-104737102D01*
X141523841Y-104629492D01*
X141565153Y-104536691D01*
X141564472Y-104535478D01*
X141897593Y-104535478D01*
X141928182Y-104596666D01*
X142041306Y-104675771D01*
X142138113Y-104625784D01*
X142148471Y-104610413D01*
X142148209Y-104535478D01*
X142497593Y-104535478D01*
X142528182Y-104596666D01*
X142641306Y-104675771D01*
X142738113Y-104625784D01*
X142748471Y-104610413D01*
X142748110Y-104507125D01*
X142713245Y-104446561D01*
X142626704Y-104388074D01*
X142547525Y-104432814D01*
X142497593Y-104535478D01*
X142148209Y-104535478D01*
X142148110Y-104507125D01*
X142113245Y-104446561D01*
X142026704Y-104388074D01*
X141947525Y-104432814D01*
X141897593Y-104535478D01*
X141564472Y-104535478D01*
X141517220Y-104451350D01*
X141438109Y-104384884D01*
X141357947Y-104426540D01*
X141335284Y-104448525D01*
X141170716Y-104539364D01*
X141007459Y-104519805D01*
X140886240Y-104406672D01*
X140846666Y-104246666D01*
X140902621Y-104061331D01*
X141053260Y-103958862D01*
X141146666Y-103946666D01*
X141299654Y-103982769D01*
X141366666Y-104026666D01*
X141457385Y-104072340D01*
X141526666Y-104026666D01*
X141678966Y-103955176D01*
X141859655Y-103965820D01*
X141966666Y-104026666D01*
X142057385Y-104072340D01*
X142126666Y-104026666D01*
X142278966Y-103955176D01*
X142459655Y-103965820D01*
X142566666Y-104026666D01*
X142657385Y-104072340D01*
X142726666Y-104026666D01*
X142878966Y-103955176D01*
X143059655Y-103965820D01*
X143166666Y-104026666D01*
X143257385Y-104072340D01*
X143326666Y-104026666D01*
X143479937Y-103954450D01*
X143659442Y-103968375D01*
X143779281Y-104045800D01*
X143841967Y-104201393D01*
X143803658Y-104352564D01*
X143694627Y-104471517D01*
X143545145Y-104530455D01*
X143385487Y-104501582D01*
X143327313Y-104460799D01*
X143225141Y-104395877D01*
X143144984Y-104434275D01*
X143132814Y-104447070D01*
X143089552Y-104538821D01*
X143149481Y-104615669D01*
X143237637Y-104763836D01*
X143216515Y-104937301D01*
X143148525Y-105035284D01*
X143084279Y-105123506D01*
X143126620Y-105196043D01*
X143148525Y-105214875D01*
X143237485Y-105363636D01*
X143216530Y-105537368D01*
X143148525Y-105635284D01*
X143084661Y-105723785D01*
X143128711Y-105797773D01*
X143151350Y-105817220D01*
X143257456Y-105865924D01*
X143329492Y-105823841D01*
X143479098Y-105754745D01*
X143658276Y-105765592D01*
X143766666Y-105826666D01*
X143857385Y-105872340D01*
X143926666Y-105826666D01*
X143972340Y-105735947D01*
X143926666Y-105666666D01*
X143844855Y-105507336D01*
X143866116Y-105338046D01*
X143971716Y-105203071D01*
X144142923Y-105146688D01*
X144146666Y-105146666D01*
X144299654Y-105182769D01*
X144366666Y-105226666D01*
X144457385Y-105272340D01*
X144526666Y-105226666D01*
X144679937Y-105154450D01*
X144859442Y-105168375D01*
X144979281Y-105245800D01*
X145041967Y-105401393D01*
X145003658Y-105552564D01*
X144894627Y-105671517D01*
X144745145Y-105730455D01*
X144585487Y-105701582D01*
X144527313Y-105660799D01*
X144425141Y-105595877D01*
X144344984Y-105634275D01*
X144332814Y-105647070D01*
X144289552Y-105738821D01*
X144349481Y-105815669D01*
X144437147Y-105963279D01*
X144419522Y-106133812D01*
X144352897Y-106227371D01*
X144294297Y-106309560D01*
X144336515Y-106399098D01*
X144360799Y-106427313D01*
X144431208Y-106582771D01*
X144403025Y-106739793D01*
X144304047Y-106868106D01*
X144162072Y-106937437D01*
X144004895Y-106917513D01*
X143945800Y-106879281D01*
X143861359Y-106734717D01*
X143858677Y-106555457D01*
X143923841Y-106429492D01*
X143965153Y-106336691D01*
X143917220Y-106251350D01*
X143838109Y-106184884D01*
X143757947Y-106226540D01*
X143735284Y-106248525D01*
X143571725Y-106337391D01*
X143401865Y-106317052D01*
X143315669Y-106249481D01*
X143228192Y-106188502D01*
X143147070Y-106232814D01*
X143093627Y-106315739D01*
X143146540Y-106411371D01*
X143152897Y-106418582D01*
X143240370Y-106596516D01*
X143198981Y-106772811D01*
X143148525Y-106835284D01*
X143084661Y-106923785D01*
X143128711Y-106997773D01*
X143151350Y-107017220D01*
X143257456Y-107065924D01*
X143329492Y-107023841D01*
X143480902Y-106953850D01*
X143659625Y-106968645D01*
X143779281Y-107045800D01*
X143840254Y-107199543D01*
X143802013Y-107350987D01*
X143695004Y-107471865D01*
X143549670Y-107533908D01*
X143396457Y-107508848D01*
X143332279Y-107460850D01*
X143229179Y-107395666D01*
X143144152Y-107435540D01*
X143095773Y-107517202D01*
X143151711Y-107616974D01*
X143160799Y-107627313D01*
X143234749Y-107786406D01*
X143206709Y-107942873D01*
X143105437Y-108067957D01*
X142959691Y-108132901D01*
X142798227Y-108108946D01*
X142727313Y-108060799D01*
X142625141Y-107995877D01*
X142544984Y-108034275D01*
X142532814Y-108047070D01*
X142489552Y-108138821D01*
X142549481Y-108215669D01*
X142637637Y-108363836D01*
X142616515Y-108537301D01*
X142548525Y-108635284D01*
X142484279Y-108723506D01*
X142526620Y-108796043D01*
X142548525Y-108814875D01*
X142637485Y-108963636D01*
X142616530Y-109137368D01*
X142548525Y-109235284D01*
X142484661Y-109323785D01*
X142528711Y-109397773D01*
X142551350Y-109417220D01*
X142657456Y-109465924D01*
X142729492Y-109423841D01*
X142879098Y-109354745D01*
X143058276Y-109365592D01*
X143166666Y-109426666D01*
X143257385Y-109472340D01*
X143326666Y-109426666D01*
X143479937Y-109354450D01*
X143659442Y-109368375D01*
X143779281Y-109445800D01*
X143840254Y-109599543D01*
X143802013Y-109750987D01*
X143695004Y-109871865D01*
X143549670Y-109933908D01*
X143396457Y-109908848D01*
X143332279Y-109860850D01*
X143229179Y-109795666D01*
X143144152Y-109835540D01*
X143095773Y-109917202D01*
X143151711Y-110016974D01*
X143160799Y-110027313D01*
X143234749Y-110186406D01*
X143206709Y-110342873D01*
X143105437Y-110467957D01*
X142959691Y-110532901D01*
X142798227Y-110508946D01*
X142727313Y-110460799D01*
X142627290Y-110394998D01*
X142548905Y-110430579D01*
X142527371Y-110452897D01*
X142372166Y-110538264D01*
X142200182Y-110517859D01*
X142126666Y-110466666D01*
X142059875Y-110336694D01*
X142046666Y-110246666D01*
X142082769Y-110093678D01*
X142126666Y-110026666D01*
X142172340Y-109935947D01*
X142172031Y-109935478D01*
X142497593Y-109935478D01*
X142528182Y-109996666D01*
X142641306Y-110075771D01*
X142738113Y-110025784D01*
X142748471Y-110010413D01*
X142748110Y-109907125D01*
X142713245Y-109846561D01*
X142626704Y-109788074D01*
X142547525Y-109832814D01*
X142497593Y-109935478D01*
X142172031Y-109935478D01*
X142126666Y-109866666D01*
X142055631Y-109716154D01*
X142064163Y-109537102D01*
X142123841Y-109429492D01*
X142165153Y-109336691D01*
X142117220Y-109251350D01*
X142038109Y-109184884D01*
X141957947Y-109226540D01*
X141935284Y-109248525D01*
X141797676Y-109330926D01*
X141716734Y-109346666D01*
X141573153Y-109298441D01*
X141514875Y-109248525D01*
X141437580Y-109184279D01*
X141357841Y-109226620D01*
X141335284Y-109248525D01*
X141197676Y-109330926D01*
X141116734Y-109346666D01*
X140973153Y-109298441D01*
X140914875Y-109248525D01*
X140837580Y-109184279D01*
X140757841Y-109226620D01*
X140735284Y-109248525D01*
X140571393Y-109337485D01*
X140401226Y-109316530D01*
X140314875Y-109248525D01*
X140237580Y-109184279D01*
X140157841Y-109226620D01*
X140135284Y-109248525D01*
X139970716Y-109339364D01*
X139807459Y-109319805D01*
X139686240Y-109206672D01*
X139646666Y-109046666D01*
X139702621Y-108861331D01*
X139853260Y-108758862D01*
X139946666Y-108746666D01*
X140099654Y-108782769D01*
X140166666Y-108826666D01*
X140257385Y-108872340D01*
X140326666Y-108826666D01*
X140372340Y-108735947D01*
X140326666Y-108666666D01*
X140255631Y-108516154D01*
X140264163Y-108337102D01*
X140323841Y-108229492D01*
X140365153Y-108136691D01*
X140317220Y-108051350D01*
X140238109Y-107984884D01*
X140157947Y-108026540D01*
X140135284Y-108048525D01*
X139971725Y-108137391D01*
X139801865Y-108117052D01*
X139715669Y-108049481D01*
X139628192Y-107988502D01*
X139547070Y-108032814D01*
X139495116Y-108114361D01*
X139545941Y-108210264D01*
X139560799Y-108227313D01*
X139632568Y-108382659D01*
X139606164Y-108537948D01*
X139509559Y-108664880D01*
X139370723Y-108735157D01*
X139217629Y-108720480D01*
X139132279Y-108660850D01*
X139029179Y-108595666D01*
X138944152Y-108635540D01*
X138895773Y-108717202D01*
X138951711Y-108816974D01*
X138960799Y-108827313D01*
X139031208Y-108982771D01*
X139003025Y-109139793D01*
X138904047Y-109268106D01*
X138762072Y-109337437D01*
X138604895Y-109317513D01*
X138545800Y-109279281D01*
X138460956Y-109133827D01*
X138459677Y-108953693D01*
X138526666Y-108826666D01*
X138572340Y-108735947D01*
X138526666Y-108666666D01*
X138455176Y-108514366D01*
X138465820Y-108333677D01*
X138526666Y-108226666D01*
X138572340Y-108135947D01*
X138572031Y-108135478D01*
X138897593Y-108135478D01*
X138928182Y-108196666D01*
X139041306Y-108275771D01*
X139138113Y-108225784D01*
X139148471Y-108210413D01*
X139148110Y-108107125D01*
X139113245Y-108046561D01*
X139026704Y-107988074D01*
X138947525Y-108032814D01*
X138897593Y-108135478D01*
X138572031Y-108135478D01*
X138526666Y-108066666D01*
X138455631Y-107916154D01*
X138464163Y-107737102D01*
X138523841Y-107629492D01*
X138565153Y-107536691D01*
X138517220Y-107451350D01*
X138438109Y-107384884D01*
X138357947Y-107426540D01*
X138335284Y-107448525D01*
X138171725Y-107537391D01*
X138001865Y-107517052D01*
X137915669Y-107449481D01*
X137828192Y-107388502D01*
X137747070Y-107432814D01*
X137695116Y-107514361D01*
X137745941Y-107610264D01*
X137760799Y-107627313D01*
X137817843Y-107754957D01*
X137820677Y-107908424D01*
X137776265Y-108034342D01*
X137701730Y-108080000D01*
X137683241Y-108120074D01*
X137744235Y-108210647D01*
X137811436Y-108345212D01*
X137822821Y-108501816D01*
X137782948Y-108630133D01*
X137701730Y-108680000D01*
X137683241Y-108720074D01*
X137744235Y-108810647D01*
X137822415Y-108970529D01*
X137803774Y-109131820D01*
X137713692Y-109264672D01*
X137577547Y-109339233D01*
X137420717Y-109325656D01*
X137345800Y-109279281D01*
X137260956Y-109133827D01*
X137259677Y-108953693D01*
X137326666Y-108826666D01*
X137372340Y-108735947D01*
X137326666Y-108666666D01*
X137255176Y-108514366D01*
X137265820Y-108333677D01*
X137326666Y-108226666D01*
X137372340Y-108135947D01*
X137326666Y-108066666D01*
X137255176Y-107914366D01*
X137265820Y-107733677D01*
X137326666Y-107626666D01*
X137372340Y-107535947D01*
X137326666Y-107466666D01*
X137244855Y-107307336D01*
X137266116Y-107138046D01*
X137371716Y-107003071D01*
X137542923Y-106946688D01*
X137546666Y-106946666D01*
X137699654Y-106982769D01*
X137766666Y-107026666D01*
X137857385Y-107072340D01*
X137926666Y-107026666D01*
X137972340Y-106935947D01*
X137972031Y-106935478D01*
X138297593Y-106935478D01*
X138328182Y-106996666D01*
X138441306Y-107075771D01*
X138538113Y-107025784D01*
X138548471Y-107010413D01*
X138548110Y-106907125D01*
X138513245Y-106846561D01*
X138426704Y-106788074D01*
X138347525Y-106832814D01*
X138297593Y-106935478D01*
X137972031Y-106935478D01*
X137926666Y-106866666D01*
X137844855Y-106707336D01*
X137866116Y-106538046D01*
X137971716Y-106403071D01*
X138142923Y-106346688D01*
X138146666Y-106346666D01*
X138299654Y-106382769D01*
X138366666Y-106426666D01*
X138457385Y-106472340D01*
X138526666Y-106426666D01*
X138572340Y-106335947D01*
X138526666Y-106266666D01*
X138455176Y-106114366D01*
X138465820Y-105933677D01*
X138526666Y-105826666D01*
X138572340Y-105735947D01*
X138526666Y-105666666D01*
X138455176Y-105514366D01*
X138465820Y-105333677D01*
X138526666Y-105226666D01*
X138572340Y-105135947D01*
X138526666Y-105066666D01*
X138455631Y-104916154D01*
X138464163Y-104737102D01*
X138523841Y-104629492D01*
X138565153Y-104536691D01*
X138517220Y-104451350D01*
X138438109Y-104384884D01*
X138357947Y-104426540D01*
X138335284Y-104448525D01*
X138171393Y-104537485D01*
X138001226Y-104516530D01*
X137914875Y-104448525D01*
X137837580Y-104384279D01*
X137757841Y-104426620D01*
X137735284Y-104448525D01*
X137570716Y-104539364D01*
X137407459Y-104519805D01*
X137286240Y-104406672D01*
X137246666Y-104246666D01*
X137301139Y-104074400D01*
X137435040Y-103967388D01*
X137604092Y-103944361D01*
X137764020Y-104024051D01*
G37*
G36*
X152127046Y-107598840D02*
G01*
X152228378Y-107728211D01*
X152233835Y-107894051D01*
X152148525Y-108035284D01*
X152084279Y-108123506D01*
X152126620Y-108196043D01*
X152148525Y-108214875D01*
X152237485Y-108363636D01*
X152216530Y-108537368D01*
X152148525Y-108635284D01*
X152084279Y-108723506D01*
X152126620Y-108796043D01*
X152148525Y-108814875D01*
X152237485Y-108963636D01*
X152216530Y-109137368D01*
X152148525Y-109235284D01*
X152084279Y-109323506D01*
X152126620Y-109396043D01*
X152148525Y-109414875D01*
X152236995Y-109563109D01*
X152219519Y-109733933D01*
X152152897Y-109827371D01*
X152094297Y-109909560D01*
X152136515Y-109999098D01*
X152160799Y-110027313D01*
X152231096Y-110200441D01*
X152220219Y-110309631D01*
X152123918Y-110460987D01*
X151963106Y-110530635D01*
X151789154Y-110502820D01*
X151727313Y-110460799D01*
X151627290Y-110394998D01*
X151548905Y-110430579D01*
X151527371Y-110452897D01*
X151373000Y-110538160D01*
X151203538Y-110517076D01*
X151114875Y-110448525D01*
X151037580Y-110384279D01*
X150957841Y-110426620D01*
X150935284Y-110448525D01*
X150770468Y-110537726D01*
X150597762Y-110517099D01*
X150526666Y-110466666D01*
X150459875Y-110336694D01*
X150446666Y-110246666D01*
X150482769Y-110093678D01*
X150526666Y-110026666D01*
X150656638Y-109959875D01*
X150746666Y-109946666D01*
X150899654Y-109982769D01*
X150966666Y-110026666D01*
X151057385Y-110072340D01*
X151126666Y-110026666D01*
X151256638Y-109959875D01*
X151346666Y-109946666D01*
X151499654Y-109982769D01*
X151566666Y-110026666D01*
X151657385Y-110072340D01*
X151726666Y-110026666D01*
X151772340Y-109935947D01*
X151726666Y-109866666D01*
X151659875Y-109736694D01*
X151646666Y-109646666D01*
X151682769Y-109493678D01*
X151726666Y-109426666D01*
X151772340Y-109335947D01*
X151726666Y-109266666D01*
X151655631Y-109116154D01*
X151664163Y-108937102D01*
X151723841Y-108829492D01*
X151765153Y-108736691D01*
X151717220Y-108651350D01*
X151638109Y-108584884D01*
X151557947Y-108626540D01*
X151535284Y-108648525D01*
X151370716Y-108739364D01*
X151207459Y-108719805D01*
X151086240Y-108606672D01*
X151046666Y-108446666D01*
X151101139Y-108274400D01*
X151235040Y-108167388D01*
X151404092Y-108144361D01*
X151564020Y-108224051D01*
X151566666Y-108226666D01*
X151657385Y-108272340D01*
X151726666Y-108226666D01*
X151772340Y-108135947D01*
X151726666Y-108066666D01*
X151644855Y-107907336D01*
X151666116Y-107738046D01*
X151771716Y-107603071D01*
X151942923Y-107546688D01*
X151946666Y-107546666D01*
X152127046Y-107598840D01*
G37*
G36*
X149127046Y-105798840D02*
G01*
X149228378Y-105928211D01*
X149233835Y-106094051D01*
X149148525Y-106235284D01*
X149084661Y-106323785D01*
X149128711Y-106397773D01*
X149151350Y-106417220D01*
X149257456Y-106465924D01*
X149329492Y-106423841D01*
X149479098Y-106354745D01*
X149658276Y-106365592D01*
X149766666Y-106426666D01*
X149857385Y-106472340D01*
X149926666Y-106426666D01*
X150079937Y-106354450D01*
X150259442Y-106368375D01*
X150379281Y-106445800D01*
X150441967Y-106601393D01*
X150403658Y-106752564D01*
X150294627Y-106871517D01*
X150145145Y-106930455D01*
X149985487Y-106901582D01*
X149927313Y-106860799D01*
X149825141Y-106795877D01*
X149744984Y-106834275D01*
X149732814Y-106847070D01*
X149689552Y-106938821D01*
X149749481Y-107015669D01*
X149837147Y-107163279D01*
X149819522Y-107333812D01*
X149752897Y-107427371D01*
X149694297Y-107509560D01*
X149736515Y-107599098D01*
X149760799Y-107627313D01*
X149831208Y-107782771D01*
X149803025Y-107939793D01*
X149704047Y-108068106D01*
X149562072Y-108137437D01*
X149404895Y-108117513D01*
X149345800Y-108079281D01*
X149261359Y-107934717D01*
X149258677Y-107755457D01*
X149323841Y-107629492D01*
X149365153Y-107536691D01*
X149317220Y-107451350D01*
X149238109Y-107384884D01*
X149157947Y-107426540D01*
X149135284Y-107448525D01*
X148971725Y-107537391D01*
X148801865Y-107517052D01*
X148715669Y-107449481D01*
X148628192Y-107388502D01*
X148547070Y-107432814D01*
X148495116Y-107514361D01*
X148545941Y-107610264D01*
X148560799Y-107627313D01*
X148638374Y-107788354D01*
X148612522Y-107942775D01*
X148511681Y-108064237D01*
X148364290Y-108126399D01*
X148198789Y-108102923D01*
X148110647Y-108044235D01*
X148016181Y-107981975D01*
X147980000Y-108001730D01*
X147923787Y-108078325D01*
X147792735Y-108121195D01*
X147643224Y-108120272D01*
X147545800Y-108079281D01*
X147461359Y-107934717D01*
X147458677Y-107755457D01*
X147523841Y-107629492D01*
X147565153Y-107536691D01*
X147564472Y-107535478D01*
X147897593Y-107535478D01*
X147928182Y-107596666D01*
X148041306Y-107675771D01*
X148138113Y-107625784D01*
X148148471Y-107610413D01*
X148148110Y-107507125D01*
X148113245Y-107446561D01*
X148026704Y-107388074D01*
X147947525Y-107432814D01*
X147897593Y-107535478D01*
X147564472Y-107535478D01*
X147517220Y-107451350D01*
X147438109Y-107384884D01*
X147357947Y-107426540D01*
X147335284Y-107448525D01*
X147171725Y-107537391D01*
X147001865Y-107517052D01*
X146915669Y-107449481D01*
X146828192Y-107388502D01*
X146747070Y-107432814D01*
X146695116Y-107514361D01*
X146745941Y-107610264D01*
X146760799Y-107627313D01*
X146834749Y-107786406D01*
X146806709Y-107942873D01*
X146705437Y-108067957D01*
X146559691Y-108132901D01*
X146398227Y-108108946D01*
X146327313Y-108060799D01*
X146227290Y-107994998D01*
X146148905Y-108030579D01*
X146127371Y-108052897D01*
X145973353Y-108138060D01*
X145804231Y-108117617D01*
X145715669Y-108049481D01*
X145628192Y-107988502D01*
X145547070Y-108032814D01*
X145495116Y-108114361D01*
X145545941Y-108210264D01*
X145560799Y-108227313D01*
X145634749Y-108386406D01*
X145606709Y-108542873D01*
X145505437Y-108667957D01*
X145359691Y-108732901D01*
X145198227Y-108708946D01*
X145127313Y-108660799D01*
X145025141Y-108595877D01*
X144944984Y-108634275D01*
X144932814Y-108647070D01*
X144889552Y-108738821D01*
X144949481Y-108815669D01*
X145037827Y-108963787D01*
X145014933Y-109137867D01*
X144941904Y-109241904D01*
X144774240Y-109336298D01*
X144601308Y-109319014D01*
X144526666Y-109266666D01*
X144459875Y-109136694D01*
X144446666Y-109046666D01*
X144482769Y-108893678D01*
X144526666Y-108826666D01*
X144572340Y-108735947D01*
X144526666Y-108666666D01*
X144444855Y-108507336D01*
X144466116Y-108338046D01*
X144571716Y-108203071D01*
X144742923Y-108146688D01*
X144746666Y-108146666D01*
X144899654Y-108182769D01*
X144966666Y-108226666D01*
X145057385Y-108272340D01*
X145126666Y-108226666D01*
X145172340Y-108135947D01*
X145126666Y-108066666D01*
X145055631Y-107916154D01*
X145064163Y-107737102D01*
X145123841Y-107629492D01*
X145165153Y-107536691D01*
X145117220Y-107451350D01*
X145038109Y-107384884D01*
X144957947Y-107426540D01*
X144935284Y-107448525D01*
X144770716Y-107539364D01*
X144607459Y-107519805D01*
X144486240Y-107406672D01*
X144446666Y-107246666D01*
X144501139Y-107074400D01*
X144635040Y-106967388D01*
X144804092Y-106944361D01*
X144964020Y-107024051D01*
X144966666Y-107026666D01*
X145057385Y-107072340D01*
X145126666Y-107026666D01*
X145256638Y-106959875D01*
X145346666Y-106946666D01*
X145527046Y-106998840D01*
X145628378Y-107128211D01*
X145633835Y-107294051D01*
X145548525Y-107435284D01*
X145484661Y-107523785D01*
X145528711Y-107597773D01*
X145551350Y-107617220D01*
X145657456Y-107665924D01*
X145729492Y-107623841D01*
X145879098Y-107554745D01*
X146058276Y-107565592D01*
X146166666Y-107626666D01*
X146257385Y-107672340D01*
X146326666Y-107626666D01*
X146372340Y-107535947D01*
X146326666Y-107466666D01*
X146259875Y-107336694D01*
X146246666Y-107246666D01*
X146282769Y-107093678D01*
X146326666Y-107026666D01*
X146372340Y-106935947D01*
X146372031Y-106935478D01*
X146697593Y-106935478D01*
X146728182Y-106996666D01*
X146841306Y-107075771D01*
X146938113Y-107025784D01*
X146948471Y-107010413D01*
X146948209Y-106935478D01*
X147297593Y-106935478D01*
X147328182Y-106996666D01*
X147441306Y-107075771D01*
X147538113Y-107025784D01*
X147548471Y-107010413D01*
X147548110Y-106907125D01*
X147513245Y-106846561D01*
X147426704Y-106788074D01*
X147347525Y-106832814D01*
X147297593Y-106935478D01*
X146948209Y-106935478D01*
X146948110Y-106907125D01*
X146913245Y-106846561D01*
X146826704Y-106788074D01*
X146747525Y-106832814D01*
X146697593Y-106935478D01*
X146372031Y-106935478D01*
X146326666Y-106866666D01*
X146244855Y-106707336D01*
X146266116Y-106538046D01*
X146371716Y-106403071D01*
X146542923Y-106346688D01*
X146546666Y-106346666D01*
X146699654Y-106382769D01*
X146766666Y-106426666D01*
X146857385Y-106472340D01*
X146926666Y-106426666D01*
X146972340Y-106335947D01*
X146926666Y-106266666D01*
X146844855Y-106107336D01*
X146866116Y-105938046D01*
X146971716Y-105803071D01*
X147142923Y-105746688D01*
X147146666Y-105746666D01*
X147327046Y-105798840D01*
X147428378Y-105928211D01*
X147433835Y-106094051D01*
X147348525Y-106235284D01*
X147284661Y-106323785D01*
X147328711Y-106397773D01*
X147351350Y-106417220D01*
X147457456Y-106465924D01*
X147529492Y-106423841D01*
X147656770Y-106359497D01*
X147746666Y-106346666D01*
X147927046Y-106398840D01*
X148028378Y-106528211D01*
X148033835Y-106694051D01*
X147948525Y-106835284D01*
X147884661Y-106923785D01*
X147928711Y-106997773D01*
X147951350Y-107017220D01*
X148057456Y-107065924D01*
X148129492Y-107023841D01*
X148279098Y-106954745D01*
X148458276Y-106965592D01*
X148566666Y-107026666D01*
X148657385Y-107072340D01*
X148726666Y-107026666D01*
X148772340Y-106935947D01*
X148772031Y-106935478D01*
X149097593Y-106935478D01*
X149128182Y-106996666D01*
X149241306Y-107075771D01*
X149338113Y-107025784D01*
X149348471Y-107010413D01*
X149348110Y-106907125D01*
X149313245Y-106846561D01*
X149226704Y-106788074D01*
X149147525Y-106832814D01*
X149097593Y-106935478D01*
X148772031Y-106935478D01*
X148726666Y-106866666D01*
X148655176Y-106714366D01*
X148665820Y-106533677D01*
X148726666Y-106426666D01*
X148772340Y-106335947D01*
X148726666Y-106266666D01*
X148659875Y-106136694D01*
X148646666Y-106046666D01*
X148682769Y-105893678D01*
X148726666Y-105826666D01*
X148856638Y-105759875D01*
X148946666Y-105746666D01*
X149127046Y-105798840D01*
G37*
G36*
X150850382Y-107565462D02*
G01*
X150987668Y-107660413D01*
X151046594Y-107815795D01*
X151046666Y-107821904D01*
X150993006Y-107987552D01*
X150861616Y-108100001D01*
X150696877Y-108138361D01*
X150543173Y-108081742D01*
X150526666Y-108066666D01*
X150459875Y-107936694D01*
X150446666Y-107846666D01*
X150482769Y-107693678D01*
X150526666Y-107626666D01*
X150681220Y-107548396D01*
X150850382Y-107565462D01*
G37*
G36*
X151499654Y-106382769D02*
G01*
X151566666Y-106426666D01*
X151657385Y-106472340D01*
X151726666Y-106426666D01*
X151879937Y-106354450D01*
X152059442Y-106368375D01*
X152179281Y-106445800D01*
X152241967Y-106601393D01*
X152203658Y-106752564D01*
X152094627Y-106871517D01*
X151945145Y-106930455D01*
X151785487Y-106901582D01*
X151727313Y-106860799D01*
X151627290Y-106794998D01*
X151548905Y-106830579D01*
X151527371Y-106852897D01*
X151372166Y-106938264D01*
X151200182Y-106917859D01*
X151126666Y-106866666D01*
X151059875Y-106736694D01*
X151046666Y-106646666D01*
X151082769Y-106493678D01*
X151126666Y-106426666D01*
X151256638Y-106359875D01*
X151346666Y-106346666D01*
X151499654Y-106382769D01*
G37*
G36*
X137727046Y-105198840D02*
G01*
X137828378Y-105328211D01*
X137833835Y-105494051D01*
X137748525Y-105635284D01*
X137684279Y-105723506D01*
X137726620Y-105796043D01*
X137748525Y-105814875D01*
X137837671Y-105963566D01*
X137814966Y-106137890D01*
X137741904Y-106241904D01*
X137574240Y-106336298D01*
X137401308Y-106319014D01*
X137326666Y-106266666D01*
X137259875Y-106136694D01*
X137246666Y-106046666D01*
X137282769Y-105893678D01*
X137326666Y-105826666D01*
X137372340Y-105735947D01*
X137326666Y-105666666D01*
X137244855Y-105507336D01*
X137266116Y-105338046D01*
X137371716Y-105203071D01*
X137542923Y-105146688D01*
X137546666Y-105146666D01*
X137727046Y-105198840D01*
G37*
G36*
X140050382Y-105765462D02*
G01*
X140187668Y-105860413D01*
X140246594Y-106015795D01*
X140246666Y-106021904D01*
X140193006Y-106187552D01*
X140061616Y-106300001D01*
X139896877Y-106338361D01*
X139743173Y-106281742D01*
X139726666Y-106266666D01*
X139655176Y-106114366D01*
X139665820Y-105933677D01*
X139726666Y-105826666D01*
X139881220Y-105748396D01*
X140050382Y-105765462D01*
G37*
G36*
X147927046Y-103998840D02*
G01*
X148028378Y-104128211D01*
X148033835Y-104294051D01*
X147948525Y-104435284D01*
X147884279Y-104523506D01*
X147926620Y-104596043D01*
X147948525Y-104614875D01*
X148032932Y-104744094D01*
X148046666Y-104816734D01*
X148001669Y-104962828D01*
X147948525Y-105035284D01*
X147884661Y-105123785D01*
X147928711Y-105197773D01*
X147951350Y-105217220D01*
X148057456Y-105265924D01*
X148129492Y-105223841D01*
X148280902Y-105153850D01*
X148459625Y-105168645D01*
X148579281Y-105245800D01*
X148641967Y-105401393D01*
X148603658Y-105552564D01*
X148494627Y-105671517D01*
X148345145Y-105730455D01*
X148185487Y-105701582D01*
X148127313Y-105660799D01*
X148027290Y-105594998D01*
X147948905Y-105630579D01*
X147927371Y-105652897D01*
X147772166Y-105738264D01*
X147600182Y-105717859D01*
X147526666Y-105666666D01*
X147455631Y-105516154D01*
X147464163Y-105337102D01*
X147523841Y-105229492D01*
X147565153Y-105136691D01*
X147517220Y-105051350D01*
X147438109Y-104984884D01*
X147357947Y-105026540D01*
X147335284Y-105048525D01*
X147170716Y-105139364D01*
X147007459Y-105119805D01*
X146886240Y-105006672D01*
X146846666Y-104846666D01*
X146902621Y-104661331D01*
X147053260Y-104558862D01*
X147146666Y-104546666D01*
X147299654Y-104582769D01*
X147366666Y-104626666D01*
X147457385Y-104672340D01*
X147526666Y-104626666D01*
X147572340Y-104535947D01*
X147526666Y-104466666D01*
X147444855Y-104307336D01*
X147466116Y-104138046D01*
X147571716Y-104003071D01*
X147742923Y-103946688D01*
X147746666Y-103946666D01*
X147927046Y-103998840D01*
G37*
G36*
X149727046Y-104598840D02*
G01*
X149828378Y-104728211D01*
X149833835Y-104894051D01*
X149748525Y-105035284D01*
X149684279Y-105123506D01*
X149726620Y-105196043D01*
X149748525Y-105214875D01*
X149837671Y-105363566D01*
X149814966Y-105537890D01*
X149741904Y-105641904D01*
X149574240Y-105736298D01*
X149401308Y-105719014D01*
X149326666Y-105666666D01*
X149259875Y-105536694D01*
X149246666Y-105446666D01*
X149282769Y-105293678D01*
X149326666Y-105226666D01*
X149372340Y-105135947D01*
X149326666Y-105066666D01*
X149244855Y-104907336D01*
X149266116Y-104738046D01*
X149371716Y-104603071D01*
X149542923Y-104546688D01*
X149546666Y-104546666D01*
X149727046Y-104598840D01*
G37*
G36*
X150850382Y-105165462D02*
G01*
X150987668Y-105260413D01*
X151046594Y-105415795D01*
X151046666Y-105421904D01*
X150993006Y-105587552D01*
X150861616Y-105700001D01*
X150696877Y-105738361D01*
X150543173Y-105681742D01*
X150526666Y-105666666D01*
X150459875Y-105536694D01*
X150446666Y-105446666D01*
X150482769Y-105293678D01*
X150526666Y-105226666D01*
X150681220Y-105148396D01*
X150850382Y-105165462D01*
G37*
G36*
X140650382Y-104565462D02*
G01*
X140787668Y-104660413D01*
X140846594Y-104815795D01*
X140846666Y-104821904D01*
X140793006Y-104987552D01*
X140661616Y-105100001D01*
X140496877Y-105138361D01*
X140343173Y-105081742D01*
X140326666Y-105066666D01*
X140255176Y-104914366D01*
X140265820Y-104733677D01*
X140326666Y-104626666D01*
X140481220Y-104548396D01*
X140650382Y-104565462D01*
G37*
G36*
X146099654Y-103982769D02*
G01*
X146166666Y-104026666D01*
X146257385Y-104072340D01*
X146326666Y-104026666D01*
X146479937Y-103954450D01*
X146659442Y-103968375D01*
X146779281Y-104045800D01*
X146841967Y-104201393D01*
X146803658Y-104352564D01*
X146694627Y-104471517D01*
X146545145Y-104530455D01*
X146385487Y-104501582D01*
X146327313Y-104460799D01*
X146225141Y-104395877D01*
X146144984Y-104434275D01*
X146132814Y-104447070D01*
X146089552Y-104538821D01*
X146149481Y-104615669D01*
X146237827Y-104763787D01*
X146214933Y-104937867D01*
X146141904Y-105041904D01*
X145974240Y-105136298D01*
X145801308Y-105119014D01*
X145726666Y-105066666D01*
X145659875Y-104936694D01*
X145646666Y-104846666D01*
X145682769Y-104693678D01*
X145726666Y-104626666D01*
X145772340Y-104535947D01*
X145726666Y-104466666D01*
X145644855Y-104307336D01*
X145666116Y-104138046D01*
X145771716Y-104003071D01*
X145942923Y-103946688D01*
X145946666Y-103946666D01*
X146099654Y-103982769D01*
G37*
G36*
X152050382Y-104565462D02*
G01*
X152187668Y-104660413D01*
X152246594Y-104815795D01*
X152246666Y-104821904D01*
X152193006Y-104987552D01*
X152061616Y-105100001D01*
X151896877Y-105138361D01*
X151743173Y-105081742D01*
X151726666Y-105066666D01*
X151659875Y-104936694D01*
X151646666Y-104846666D01*
X151682769Y-104693678D01*
X151726666Y-104626666D01*
X151881220Y-104548396D01*
X152050382Y-104565462D01*
G37*
G36*
X144927046Y-102798840D02*
G01*
X145028378Y-102928211D01*
X145033835Y-103094051D01*
X144948525Y-103235284D01*
X144884661Y-103323785D01*
X144928711Y-103397773D01*
X144951350Y-103417220D01*
X145057456Y-103465924D01*
X145129492Y-103423841D01*
X145280902Y-103353850D01*
X145459625Y-103368645D01*
X145579281Y-103445800D01*
X145641967Y-103601393D01*
X145603658Y-103752564D01*
X145494627Y-103871517D01*
X145345145Y-103930455D01*
X145185487Y-103901582D01*
X145127313Y-103860799D01*
X145025141Y-103795877D01*
X144944984Y-103834275D01*
X144932814Y-103847070D01*
X144889552Y-103938821D01*
X144949481Y-104015669D01*
X145037827Y-104163787D01*
X145014933Y-104337867D01*
X144941904Y-104441904D01*
X144774240Y-104536298D01*
X144601308Y-104519014D01*
X144526666Y-104466666D01*
X144459875Y-104336694D01*
X144446666Y-104246666D01*
X144482769Y-104093678D01*
X144526666Y-104026666D01*
X144572340Y-103935947D01*
X144526666Y-103866666D01*
X144459875Y-103736694D01*
X144446666Y-103646666D01*
X144482769Y-103493678D01*
X144526666Y-103426666D01*
X144572340Y-103335947D01*
X144526666Y-103266666D01*
X144444855Y-103107336D01*
X144466116Y-102938046D01*
X144571716Y-102803071D01*
X144742923Y-102746688D01*
X144746666Y-102746666D01*
X144927046Y-102798840D01*
G37*
G36*
X149050382Y-103965462D02*
G01*
X149187668Y-104060413D01*
X149246594Y-104215795D01*
X149246666Y-104221904D01*
X149193006Y-104387552D01*
X149061616Y-104500001D01*
X148896877Y-104538361D01*
X148743173Y-104481742D01*
X148726666Y-104466666D01*
X148659875Y-104336694D01*
X148646666Y-104246666D01*
X148682769Y-104093678D01*
X148726666Y-104026666D01*
X148881220Y-103948396D01*
X149050382Y-103965462D01*
G37*
G36*
X150250382Y-103965462D02*
G01*
X150387668Y-104060413D01*
X150446594Y-104215795D01*
X150446666Y-104221904D01*
X150393006Y-104387552D01*
X150261616Y-104500001D01*
X150096877Y-104538361D01*
X149943173Y-104481742D01*
X149926666Y-104466666D01*
X149859875Y-104336694D01*
X149846666Y-104246666D01*
X149882769Y-104093678D01*
X149926666Y-104026666D01*
X150081220Y-103948396D01*
X150250382Y-103965462D01*
G37*
G36*
X151450382Y-103965462D02*
G01*
X151587668Y-104060413D01*
X151646594Y-104215795D01*
X151646666Y-104221904D01*
X151593006Y-104387552D01*
X151461616Y-104500001D01*
X151296877Y-104538361D01*
X151143173Y-104481742D01*
X151126666Y-104466666D01*
X151059875Y-104336694D01*
X151046666Y-104246666D01*
X151082769Y-104093678D01*
X151126666Y-104026666D01*
X151281220Y-103948396D01*
X151450382Y-103965462D01*
G37*
G36*
X141446666Y-101246666D02*
G01*
X141446666Y-103346666D01*
X139346666Y-103346666D01*
X137246666Y-103346666D01*
X137246666Y-101246666D01*
X137246666Y-99746666D01*
X137846666Y-99746666D01*
X137846666Y-101246666D01*
X137846666Y-102746666D01*
X139346666Y-102746666D01*
X140846666Y-102746666D01*
X140846666Y-101246666D01*
X140846666Y-99746666D01*
X139346666Y-99746666D01*
X137846666Y-99746666D01*
X137246666Y-99746666D01*
X137246666Y-99146666D01*
X139346666Y-99146666D01*
X141446666Y-99146666D01*
X141446666Y-101246666D01*
G37*
G36*
X142527046Y-102198840D02*
G01*
X142628378Y-102328211D01*
X142633835Y-102494051D01*
X142548525Y-102635284D01*
X142484279Y-102723506D01*
X142526620Y-102796043D01*
X142548525Y-102814875D01*
X142637671Y-102963566D01*
X142614966Y-103137890D01*
X142541904Y-103241904D01*
X142374240Y-103336298D01*
X142201308Y-103319014D01*
X142126666Y-103266666D01*
X142059875Y-103136694D01*
X142046666Y-103046666D01*
X142082769Y-102893678D01*
X142126666Y-102826666D01*
X142172340Y-102735947D01*
X142126666Y-102666666D01*
X142044855Y-102507336D01*
X142066116Y-102338046D01*
X142171716Y-102203071D01*
X142342923Y-102146688D01*
X142346666Y-102146666D01*
X142527046Y-102198840D01*
G37*
G36*
X143727046Y-101598840D02*
G01*
X143828378Y-101728211D01*
X143833835Y-101894051D01*
X143748525Y-102035284D01*
X143684279Y-102123506D01*
X143726620Y-102196043D01*
X143748525Y-102214875D01*
X143832932Y-102344094D01*
X143846666Y-102416734D01*
X143801669Y-102562828D01*
X143748525Y-102635284D01*
X143684279Y-102723506D01*
X143726620Y-102796043D01*
X143748525Y-102814875D01*
X143837671Y-102963566D01*
X143814966Y-103137890D01*
X143741904Y-103241904D01*
X143574240Y-103336298D01*
X143401308Y-103319014D01*
X143326666Y-103266666D01*
X143259875Y-103136694D01*
X143246666Y-103046666D01*
X143282769Y-102893678D01*
X143326666Y-102826666D01*
X143372340Y-102735947D01*
X143326666Y-102666666D01*
X143259875Y-102536694D01*
X143246666Y-102446666D01*
X143282769Y-102293678D01*
X143326666Y-102226666D01*
X143372340Y-102135947D01*
X143326666Y-102066666D01*
X143244855Y-101907336D01*
X143266116Y-101738046D01*
X143371716Y-101603071D01*
X143542923Y-101546688D01*
X143546666Y-101546666D01*
X143727046Y-101598840D01*
G37*
G36*
X146127046Y-99198840D02*
G01*
X146228378Y-99328211D01*
X146233835Y-99494051D01*
X146148525Y-99635284D01*
X146084661Y-99723785D01*
X146128711Y-99797773D01*
X146151350Y-99817220D01*
X146257456Y-99865924D01*
X146329492Y-99823841D01*
X146480902Y-99753850D01*
X146659625Y-99768645D01*
X146779281Y-99845800D01*
X146845571Y-100003552D01*
X146809444Y-100152758D01*
X146700749Y-100268039D01*
X146549337Y-100324018D01*
X146385056Y-100295316D01*
X146310647Y-100244235D01*
X146216181Y-100181975D01*
X146180000Y-100201730D01*
X146124435Y-100282680D01*
X145993324Y-100322647D01*
X145840040Y-100314667D01*
X145727313Y-100260799D01*
X145625141Y-100195877D01*
X145544984Y-100234275D01*
X145532814Y-100247070D01*
X145489552Y-100338821D01*
X145549481Y-100415669D01*
X145637637Y-100563836D01*
X145616515Y-100737301D01*
X145548525Y-100835284D01*
X145484661Y-100923785D01*
X145528711Y-100997773D01*
X145551350Y-101017220D01*
X145657456Y-101065924D01*
X145729492Y-101023841D01*
X145879098Y-100954745D01*
X146058276Y-100965592D01*
X146166666Y-101026666D01*
X146257385Y-101072340D01*
X146326666Y-101026666D01*
X146479937Y-100954450D01*
X146659442Y-100968375D01*
X146779281Y-101045800D01*
X146841967Y-101201393D01*
X146803658Y-101352564D01*
X146694627Y-101471517D01*
X146545145Y-101530455D01*
X146385487Y-101501582D01*
X146327313Y-101460799D01*
X146225141Y-101395877D01*
X146144984Y-101434275D01*
X146132814Y-101447070D01*
X146089552Y-101538821D01*
X146149481Y-101615669D01*
X146237637Y-101763836D01*
X146216515Y-101937301D01*
X146148525Y-102035284D01*
X146084279Y-102123506D01*
X146126620Y-102196043D01*
X146148525Y-102214875D01*
X146232932Y-102344094D01*
X146246666Y-102416734D01*
X146201669Y-102562828D01*
X146148525Y-102635284D01*
X146084279Y-102723506D01*
X146126620Y-102796043D01*
X146148525Y-102814875D01*
X146237671Y-102963566D01*
X146214966Y-103137890D01*
X146141904Y-103241904D01*
X145974240Y-103336298D01*
X145801308Y-103319014D01*
X145726666Y-103266666D01*
X145655631Y-103116154D01*
X145664163Y-102937102D01*
X145723841Y-102829492D01*
X145765153Y-102736691D01*
X145717220Y-102651350D01*
X145638109Y-102584884D01*
X145557947Y-102626540D01*
X145535284Y-102648525D01*
X145370716Y-102739364D01*
X145207459Y-102719805D01*
X145086240Y-102606672D01*
X145046666Y-102446666D01*
X145102621Y-102261331D01*
X145253260Y-102158862D01*
X145346666Y-102146666D01*
X145499654Y-102182769D01*
X145566666Y-102226666D01*
X145657385Y-102272340D01*
X145726666Y-102226666D01*
X145772340Y-102135947D01*
X145726666Y-102066666D01*
X145655631Y-101916154D01*
X145664163Y-101737102D01*
X145723841Y-101629492D01*
X145765153Y-101536691D01*
X145717220Y-101451350D01*
X145638109Y-101384884D01*
X145557947Y-101426540D01*
X145535284Y-101448525D01*
X145370716Y-101539364D01*
X145207459Y-101519805D01*
X145086240Y-101406672D01*
X145046666Y-101246666D01*
X145082769Y-101093678D01*
X145126666Y-101026666D01*
X145172340Y-100935947D01*
X145126666Y-100866666D01*
X145055631Y-100716154D01*
X145064163Y-100537102D01*
X145123841Y-100429492D01*
X145165153Y-100336691D01*
X145117220Y-100251350D01*
X145038109Y-100184884D01*
X144957947Y-100226540D01*
X144935284Y-100248525D01*
X144771725Y-100337391D01*
X144601865Y-100317052D01*
X144515669Y-100249481D01*
X144428192Y-100188502D01*
X144347070Y-100232814D01*
X144295116Y-100314361D01*
X144345941Y-100410264D01*
X144360799Y-100427313D01*
X144417843Y-100554957D01*
X144420677Y-100708424D01*
X144376265Y-100834342D01*
X144301730Y-100880000D01*
X144283241Y-100920074D01*
X144344235Y-101010647D01*
X144422415Y-101170529D01*
X144403774Y-101331820D01*
X144313692Y-101464672D01*
X144177547Y-101539233D01*
X144020717Y-101525656D01*
X143945800Y-101479281D01*
X143861359Y-101334717D01*
X143858677Y-101155457D01*
X143923841Y-101029492D01*
X143965153Y-100936691D01*
X143917220Y-100851350D01*
X143838109Y-100784884D01*
X143757947Y-100826540D01*
X143735284Y-100848525D01*
X143571725Y-100937391D01*
X143401865Y-100917052D01*
X143315669Y-100849481D01*
X143228192Y-100788502D01*
X143147070Y-100832814D01*
X143095116Y-100914361D01*
X143145941Y-101010264D01*
X143160799Y-101027313D01*
X143238374Y-101188354D01*
X143212522Y-101342775D01*
X143111681Y-101464237D01*
X142964290Y-101526399D01*
X142798789Y-101502923D01*
X142710647Y-101444235D01*
X142616181Y-101381975D01*
X142580000Y-101401730D01*
X142523787Y-101478325D01*
X142392735Y-101521195D01*
X142243224Y-101520272D01*
X142145800Y-101479281D01*
X142060956Y-101333827D01*
X142059677Y-101153693D01*
X142126666Y-101026666D01*
X142278966Y-100955176D01*
X142459655Y-100965820D01*
X142566666Y-101026666D01*
X142657385Y-101072340D01*
X142726666Y-101026666D01*
X142772340Y-100935947D01*
X142726666Y-100866666D01*
X142655631Y-100716154D01*
X142664163Y-100537102D01*
X142723841Y-100429492D01*
X142765153Y-100336691D01*
X142717220Y-100251350D01*
X142638109Y-100184884D01*
X142557947Y-100226540D01*
X142535284Y-100248525D01*
X142370716Y-100339364D01*
X142207459Y-100319805D01*
X142086240Y-100206672D01*
X142046666Y-100046666D01*
X142101139Y-99874400D01*
X142235040Y-99767388D01*
X142404092Y-99744361D01*
X142564020Y-99824051D01*
X142566666Y-99826666D01*
X142657385Y-99872340D01*
X142726666Y-99826666D01*
X142772340Y-99735947D01*
X142726666Y-99666666D01*
X142644855Y-99507336D01*
X142666116Y-99338046D01*
X142771716Y-99203071D01*
X142942923Y-99146688D01*
X142946666Y-99146666D01*
X143127046Y-99198840D01*
X143228378Y-99328211D01*
X143233835Y-99494051D01*
X143148525Y-99635284D01*
X143084279Y-99723506D01*
X143126620Y-99796043D01*
X143148525Y-99814875D01*
X143232932Y-99944094D01*
X143246666Y-100016734D01*
X143201669Y-100162828D01*
X143148525Y-100235284D01*
X143084661Y-100323785D01*
X143128711Y-100397773D01*
X143151350Y-100417220D01*
X143257456Y-100465924D01*
X143329492Y-100423841D01*
X143479098Y-100354745D01*
X143658276Y-100365592D01*
X143766666Y-100426666D01*
X143857385Y-100472340D01*
X143926666Y-100426666D01*
X143972340Y-100335947D01*
X143926666Y-100266666D01*
X143855176Y-100114366D01*
X143865820Y-99933677D01*
X143926666Y-99826666D01*
X144078966Y-99755176D01*
X144259655Y-99765820D01*
X144366666Y-99826666D01*
X144457385Y-99872340D01*
X144526666Y-99826666D01*
X144678966Y-99755176D01*
X144859655Y-99765820D01*
X144966666Y-99826666D01*
X145057385Y-99872340D01*
X145126666Y-99826666D01*
X145278966Y-99755176D01*
X145459655Y-99765820D01*
X145566666Y-99826666D01*
X145657385Y-99872340D01*
X145726666Y-99826666D01*
X145772340Y-99735947D01*
X145726666Y-99666666D01*
X145644855Y-99507336D01*
X145666116Y-99338046D01*
X145771716Y-99203071D01*
X145942923Y-99146688D01*
X145946666Y-99146666D01*
X146127046Y-99198840D01*
G37*
G36*
X147250382Y-102765462D02*
G01*
X147387668Y-102860413D01*
X147446594Y-103015795D01*
X147446666Y-103021904D01*
X147393006Y-103187552D01*
X147261616Y-103300001D01*
X147096877Y-103338361D01*
X146943173Y-103281742D01*
X146926666Y-103266666D01*
X146859875Y-103136694D01*
X146846666Y-103046666D01*
X146882769Y-102893678D01*
X146926666Y-102826666D01*
X147081220Y-102748396D01*
X147250382Y-102765462D01*
G37*
G36*
X152246666Y-101246666D02*
G01*
X152246666Y-103346666D01*
X150146666Y-103346666D01*
X148046666Y-103346666D01*
X148046666Y-101246666D01*
X148046666Y-99746666D01*
X148646666Y-99746666D01*
X148646666Y-101246666D01*
X148646666Y-102746666D01*
X150146666Y-102746666D01*
X151646666Y-102746666D01*
X151646666Y-101246666D01*
X151646666Y-99746666D01*
X150146666Y-99746666D01*
X148646666Y-99746666D01*
X148046666Y-99746666D01*
X148046666Y-99146666D01*
X150146666Y-99146666D01*
X152246666Y-99146666D01*
X152246666Y-101246666D01*
G37*
G36*
X144850382Y-101565462D02*
G01*
X144987668Y-101660413D01*
X145046594Y-101815795D01*
X145046666Y-101821904D01*
X144993006Y-101987552D01*
X144861616Y-102100001D01*
X144696877Y-102138361D01*
X144543173Y-102081742D01*
X144526666Y-102066666D01*
X144459875Y-101936694D01*
X144446666Y-101846666D01*
X144482769Y-101693678D01*
X144526666Y-101626666D01*
X144681220Y-101548396D01*
X144850382Y-101565462D01*
G37*
G36*
X147250382Y-101565462D02*
G01*
X147387668Y-101660413D01*
X147446594Y-101815795D01*
X147446666Y-101821904D01*
X147393006Y-101987552D01*
X147261616Y-102100001D01*
X147096877Y-102138361D01*
X146943173Y-102081742D01*
X146926666Y-102066666D01*
X146859875Y-101936694D01*
X146846666Y-101846666D01*
X146882769Y-101693678D01*
X146926666Y-101626666D01*
X147081220Y-101548396D01*
X147250382Y-101565462D01*
G37*
G36*
X147250382Y-100365462D02*
G01*
X147387668Y-100460413D01*
X147446594Y-100615795D01*
X147446666Y-100621904D01*
X147393006Y-100787552D01*
X147261616Y-100900001D01*
X147096877Y-100938361D01*
X146943173Y-100881742D01*
X146926666Y-100866666D01*
X146859875Y-100736694D01*
X146846666Y-100646666D01*
X146882769Y-100493678D01*
X146926666Y-100426666D01*
X147081220Y-100348396D01*
X147250382Y-100365462D01*
G37*
G36*
X140246666Y-112046666D02*
G01*
X140246666Y-112946666D01*
X139346666Y-112946666D01*
X138446666Y-112946666D01*
X138446666Y-112046666D01*
X138446666Y-111146666D01*
X139346666Y-111146666D01*
X140246666Y-111146666D01*
X140246666Y-112046666D01*
G37*
G36*
X148450382Y-109965462D02*
G01*
X148587668Y-110060413D01*
X148646594Y-110215795D01*
X148646666Y-110221904D01*
X148593006Y-110387552D01*
X148461616Y-110500001D01*
X148296877Y-110538361D01*
X148143173Y-110481742D01*
X148126666Y-110466666D01*
X148059875Y-110336694D01*
X148046666Y-110246666D01*
X148082769Y-110093678D01*
X148126666Y-110026666D01*
X148281220Y-109948396D01*
X148450382Y-109965462D01*
G37*
G36*
X140246666Y-101246666D02*
G01*
X140246666Y-102146666D01*
X139346666Y-102146666D01*
X138446666Y-102146666D01*
X138446666Y-101246666D01*
X138446666Y-100346666D01*
X139346666Y-100346666D01*
X140246666Y-100346666D01*
X140246666Y-101246666D01*
G37*
G36*
X151046666Y-101246666D02*
G01*
X151046666Y-102146666D01*
X150146666Y-102146666D01*
X149246666Y-102146666D01*
X149246666Y-101246666D01*
X149246666Y-100346666D01*
X150146666Y-100346666D01*
X151046666Y-100346666D01*
X151046666Y-101246666D01*
G37*
%TD*%
D11*
%TO.C,U2*%
X172720000Y-96520000D03*
X175260000Y-96520000D03*
X177800000Y-96520000D03*
X180340000Y-96520000D03*
X180340000Y-88900000D03*
X177800000Y-88900000D03*
X175260000Y-88900000D03*
X172720000Y-88900000D03*
%TD*%
D12*
%TO.C,J3*%
X119380000Y-15240000D03*
D13*
X119380000Y-12700000D03*
X121920000Y-15240000D03*
X121920000Y-12700000D03*
X124460000Y-15240000D03*
X124460000Y-12700000D03*
X127000000Y-15240000D03*
X127000000Y-12700000D03*
X129540000Y-15240000D03*
X129540000Y-12700000D03*
X132080000Y-15240000D03*
X132080000Y-12700000D03*
X134620000Y-15240000D03*
X134620000Y-12700000D03*
X137160000Y-15240000D03*
X137160000Y-12700000D03*
X139700000Y-15240000D03*
X139700000Y-12700000D03*
X142240000Y-15240000D03*
X142240000Y-12700000D03*
X144780000Y-15240000D03*
X144780000Y-12700000D03*
X147320000Y-15240000D03*
X147320000Y-12700000D03*
X149860000Y-15240000D03*
X149860000Y-12700000D03*
%TD*%
D12*
%TO.C,J1*%
X175260000Y-2540000D03*
D13*
X175260000Y0D03*
X177800000Y-2540000D03*
X177800000Y0D03*
X180340000Y-2540000D03*
X180340000Y0D03*
X182880000Y-2540000D03*
X182880000Y0D03*
X185420000Y-2540000D03*
X185420000Y0D03*
%TD*%
D14*
%TO.C,C-raspi1*%
X162560000Y-85030000D03*
D15*
X162560000Y-77530000D03*
%TD*%
D14*
%TO.C,C-card1*%
X195580000Y-8950000D03*
D15*
X195580000Y-16450000D03*
%TD*%
D16*
%TO.C,C1*%
X189240000Y-93980000D03*
D14*
X193040000Y-93980000D03*
%TD*%
%TO.C,C-arduino1*%
X158690000Y-43180000D03*
D15*
X151190000Y-43180000D03*
%TD*%
D12*
%TO.C,J2*%
X119380000Y-2540000D03*
D13*
X119380000Y0D03*
X121920000Y-2540000D03*
X121920000Y0D03*
X124460000Y-2540000D03*
X124460000Y0D03*
X127000000Y-2540000D03*
X127000000Y0D03*
X129540000Y-2540000D03*
X129540000Y0D03*
X132080000Y-2540000D03*
X132080000Y0D03*
X134620000Y-2540000D03*
X134620000Y0D03*
X137160000Y-2540000D03*
X137160000Y0D03*
X139700000Y-2540000D03*
X139700000Y0D03*
X142240000Y-2540000D03*
X142240000Y0D03*
%TD*%
D14*
%TO.C,C-coin1*%
X195580000Y-6290000D03*
D15*
X195580000Y1210000D03*
%TD*%
D17*
%TO.C,J5*%
X195440000Y-111220000D03*
X195440000Y-105220000D03*
D18*
X193040000Y-109220000D03*
X197840000Y-111220000D03*
X197840000Y-104220000D03*
%TD*%
D19*
%TO.C,A3*%
X170180000Y-83400000D03*
X193180000Y-83400000D03*
X170180000Y-25400000D03*
X193180000Y-25400000D03*
D20*
X171450000Y-78530000D03*
D21*
X168910000Y-78530000D03*
X171450000Y-75990000D03*
X168910000Y-75990000D03*
X171450000Y-73450000D03*
X168910000Y-73450000D03*
X171450000Y-70910000D03*
X168910000Y-70910000D03*
X171450000Y-68370000D03*
X168910000Y-68370000D03*
X171450000Y-65830000D03*
X168910000Y-65830000D03*
X171450000Y-63290000D03*
X168910000Y-63290000D03*
X171450000Y-60750000D03*
X168910000Y-60750000D03*
X171450000Y-58210000D03*
X168910000Y-58210000D03*
X171450000Y-55670000D03*
X168910000Y-55670000D03*
X171450000Y-53130000D03*
X168910000Y-53130000D03*
X171450000Y-50590000D03*
X168910000Y-50590000D03*
X171450000Y-48050000D03*
X168910000Y-48050000D03*
X171450000Y-45510000D03*
X168910000Y-45510000D03*
X171450000Y-42970000D03*
X168910000Y-42970000D03*
X171450000Y-40430000D03*
X168910000Y-40430000D03*
X171450000Y-37890000D03*
X168910000Y-37890000D03*
X171450000Y-35350000D03*
X168910000Y-35350000D03*
X171450000Y-32810000D03*
X168910000Y-32810000D03*
X171450000Y-30270000D03*
X168910000Y-30270000D03*
%TD*%
D22*
%TO.C,C3*%
X158760000Y-93980000D03*
D23*
X162560000Y-93980000D03*
%TD*%
D24*
%TO.C,A1*%
X116840000Y-53340000D03*
X116840000Y-68580000D03*
D25*
X142240000Y-68580000D03*
X144780000Y-68580000D03*
D26*
X162560000Y-53340000D03*
D24*
X162560000Y-68580000D03*
D25*
X121920000Y-68580000D03*
X147320000Y-68580000D03*
X127000000Y-68580000D03*
X129540000Y-68580000D03*
X132080000Y-68580000D03*
X134620000Y-68580000D03*
X137160000Y-68580000D03*
X139700000Y-68580000D03*
X124460000Y-68580000D03*
X152400000Y-53340000D03*
X154940000Y-53340000D03*
X144780000Y-53340000D03*
X142240000Y-53340000D03*
X139700000Y-53340000D03*
X137160000Y-53340000D03*
X134620000Y-53340000D03*
X132080000Y-53340000D03*
X129540000Y-53340000D03*
X127000000Y-53340000D03*
X124460000Y-53340000D03*
X121920000Y-53340000D03*
X119380000Y-53340000D03*
X119380000Y-68580000D03*
D27*
X152400000Y-68580000D03*
X147320000Y-53340000D03*
D25*
X157480000Y-68580000D03*
D28*
X160020000Y-53340000D03*
D25*
X149860000Y-68580000D03*
X149860000Y-53340000D03*
X160020000Y-68580000D03*
X157480000Y-53340000D03*
X154940000Y-68580000D03*
%TD*%
D12*
%TO.C,J6*%
X170180000Y-15240000D03*
D13*
X170180000Y-12700000D03*
X172720000Y-15240000D03*
X172720000Y-12700000D03*
X175260000Y-15240000D03*
X175260000Y-12700000D03*
X177800000Y-15240000D03*
X177800000Y-12700000D03*
X180340000Y-15240000D03*
X180340000Y-12700000D03*
X182880000Y-15240000D03*
X182880000Y-12700000D03*
X185420000Y-15240000D03*
X185420000Y-12700000D03*
%TD*%
D24*
%TO.C,A2*%
X116840000Y-22860000D03*
X116840000Y-38100000D03*
D25*
X142240000Y-38100000D03*
X144780000Y-38100000D03*
D26*
X162560000Y-22860000D03*
D24*
X162560000Y-38100000D03*
D25*
X121920000Y-38100000D03*
X147320000Y-38100000D03*
X127000000Y-38100000D03*
X129540000Y-38100000D03*
X132080000Y-38100000D03*
X134620000Y-38100000D03*
X137160000Y-38100000D03*
X139700000Y-38100000D03*
X124460000Y-38100000D03*
X152400000Y-22860000D03*
X154940000Y-22860000D03*
X144780000Y-22860000D03*
X142240000Y-22860000D03*
X139700000Y-22860000D03*
X137160000Y-22860000D03*
X134620000Y-22860000D03*
X132080000Y-22860000D03*
X129540000Y-22860000D03*
X127000000Y-22860000D03*
X124460000Y-22860000D03*
X121920000Y-22860000D03*
X119380000Y-22860000D03*
X119380000Y-38100000D03*
D27*
X152400000Y-38100000D03*
X147320000Y-22860000D03*
D25*
X157480000Y-38100000D03*
D28*
X160020000Y-22860000D03*
D25*
X149860000Y-38100000D03*
X149860000Y-22860000D03*
X160020000Y-38100000D03*
X157480000Y-22860000D03*
X154940000Y-38100000D03*
%TD*%
D24*
%TO.C,R1*%
X144780000Y-41910000D03*
D29*
X144780000Y-49530000D03*
%TD*%
D14*
%TO.C,C4*%
X141030000Y-88900000D03*
D15*
X148530000Y-88900000D03*
%TD*%
D30*
%TO.C,J4*%
X172700000Y-109030000D03*
X180200000Y-109030000D03*
D31*
X174610000Y-102680000D03*
D32*
X175880000Y-100140000D03*
X177150000Y-102680000D03*
X178420000Y-100140000D03*
%TD*%
D24*
%TO.C,R2*%
X142240000Y-41910000D03*
D29*
X142240000Y-49530000D03*
%TD*%
D17*
%TO.C,J7*%
X187820000Y-111260000D03*
X187820000Y-105260000D03*
D18*
X185420000Y-109260000D03*
X190220000Y-111260000D03*
X190220000Y-104260000D03*
%TD*%
D14*
%TO.C,C-arduino-display1*%
X161230000Y-73660000D03*
D15*
X153730000Y-73660000D03*
%TD*%
D33*
%TO.C,U1*%
X115761900Y-113803300D03*
X132932300Y-113803300D03*
X132932300Y-74331700D03*
X115787300Y-74331700D03*
%TD*%
D16*
%TO.C,C2*%
X140980000Y-78740000D03*
D14*
X144780000Y-78740000D03*
%TD*%
M02*
