%TF.GenerationSoftware,KiCad,Pcbnew,9.0.7*%
%TF.CreationDate,2026-02-25T22:15:29-08:00*%
%TF.ProjectId,phonev4,70686f6e-6576-4342-9e6b-696361645f70,rev?*%
%TF.SameCoordinates,Original*%
%TF.FileFunction,Legend,Top*%
%TF.FilePolarity,Positive*%
%FSLAX46Y46*%
G04 Gerber Fmt 4.6, Leading zero omitted, Abs format (unit mm)*
G04 Created by KiCad (PCBNEW 9.0.7) date 2026-02-25 22:15:29*
%MOMM*%
%LPD*%
G01*
G04 APERTURE LIST*
%ADD10C,0.150000*%
%ADD11C,0.120000*%
%ADD12C,0.254000*%
%ADD13C,0.127000*%
G04 APERTURE END LIST*
D10*
X81438095Y-125204819D02*
X82009523Y-125204819D01*
X81723809Y-126204819D02*
X81723809Y-125204819D01*
X82342857Y-126204819D02*
X82342857Y-125204819D01*
X82342857Y-125204819D02*
X82723809Y-125204819D01*
X82723809Y-125204819D02*
X82819047Y-125252438D01*
X82819047Y-125252438D02*
X82866666Y-125300057D01*
X82866666Y-125300057D02*
X82914285Y-125395295D01*
X82914285Y-125395295D02*
X82914285Y-125538152D01*
X82914285Y-125538152D02*
X82866666Y-125633390D01*
X82866666Y-125633390D02*
X82819047Y-125681009D01*
X82819047Y-125681009D02*
X82723809Y-125728628D01*
X82723809Y-125728628D02*
X82342857Y-125728628D01*
X83295238Y-125300057D02*
X83342857Y-125252438D01*
X83342857Y-125252438D02*
X83438095Y-125204819D01*
X83438095Y-125204819D02*
X83676190Y-125204819D01*
X83676190Y-125204819D02*
X83771428Y-125252438D01*
X83771428Y-125252438D02*
X83819047Y-125300057D01*
X83819047Y-125300057D02*
X83866666Y-125395295D01*
X83866666Y-125395295D02*
X83866666Y-125490533D01*
X83866666Y-125490533D02*
X83819047Y-125633390D01*
X83819047Y-125633390D02*
X83247619Y-126204819D01*
X83247619Y-126204819D02*
X83866666Y-126204819D01*
X76728095Y-145374819D02*
X76728095Y-146184342D01*
X76728095Y-146184342D02*
X76775714Y-146279580D01*
X76775714Y-146279580D02*
X76823333Y-146327200D01*
X76823333Y-146327200D02*
X76918571Y-146374819D01*
X76918571Y-146374819D02*
X77109047Y-146374819D01*
X77109047Y-146374819D02*
X77204285Y-146327200D01*
X77204285Y-146327200D02*
X77251904Y-146279580D01*
X77251904Y-146279580D02*
X77299523Y-146184342D01*
X77299523Y-146184342D02*
X77299523Y-145374819D01*
X77728095Y-145470057D02*
X77775714Y-145422438D01*
X77775714Y-145422438D02*
X77870952Y-145374819D01*
X77870952Y-145374819D02*
X78109047Y-145374819D01*
X78109047Y-145374819D02*
X78204285Y-145422438D01*
X78204285Y-145422438D02*
X78251904Y-145470057D01*
X78251904Y-145470057D02*
X78299523Y-145565295D01*
X78299523Y-145565295D02*
X78299523Y-145660533D01*
X78299523Y-145660533D02*
X78251904Y-145803390D01*
X78251904Y-145803390D02*
X77680476Y-146374819D01*
X77680476Y-146374819D02*
X78299523Y-146374819D01*
X110261905Y-138784819D02*
X110261905Y-137784819D01*
X110261905Y-137784819D02*
X110500000Y-137784819D01*
X110500000Y-137784819D02*
X110642857Y-137832438D01*
X110642857Y-137832438D02*
X110738095Y-137927676D01*
X110738095Y-137927676D02*
X110785714Y-138022914D01*
X110785714Y-138022914D02*
X110833333Y-138213390D01*
X110833333Y-138213390D02*
X110833333Y-138356247D01*
X110833333Y-138356247D02*
X110785714Y-138546723D01*
X110785714Y-138546723D02*
X110738095Y-138641961D01*
X110738095Y-138641961D02*
X110642857Y-138737200D01*
X110642857Y-138737200D02*
X110500000Y-138784819D01*
X110500000Y-138784819D02*
X110261905Y-138784819D01*
X111166667Y-137784819D02*
X111785714Y-137784819D01*
X111785714Y-137784819D02*
X111452381Y-138165771D01*
X111452381Y-138165771D02*
X111595238Y-138165771D01*
X111595238Y-138165771D02*
X111690476Y-138213390D01*
X111690476Y-138213390D02*
X111738095Y-138261009D01*
X111738095Y-138261009D02*
X111785714Y-138356247D01*
X111785714Y-138356247D02*
X111785714Y-138594342D01*
X111785714Y-138594342D02*
X111738095Y-138689580D01*
X111738095Y-138689580D02*
X111690476Y-138737200D01*
X111690476Y-138737200D02*
X111595238Y-138784819D01*
X111595238Y-138784819D02*
X111309524Y-138784819D01*
X111309524Y-138784819D02*
X111214286Y-138737200D01*
X111214286Y-138737200D02*
X111166667Y-138689580D01*
X105658095Y-139504819D02*
X105658095Y-138504819D01*
X106229523Y-139504819D02*
X105800952Y-138933390D01*
X106229523Y-138504819D02*
X105658095Y-139076247D01*
X74991905Y-44994819D02*
X74991905Y-43994819D01*
X74991905Y-43994819D02*
X75230000Y-43994819D01*
X75230000Y-43994819D02*
X75372857Y-44042438D01*
X75372857Y-44042438D02*
X75468095Y-44137676D01*
X75468095Y-44137676D02*
X75515714Y-44232914D01*
X75515714Y-44232914D02*
X75563333Y-44423390D01*
X75563333Y-44423390D02*
X75563333Y-44566247D01*
X75563333Y-44566247D02*
X75515714Y-44756723D01*
X75515714Y-44756723D02*
X75468095Y-44851961D01*
X75468095Y-44851961D02*
X75372857Y-44947200D01*
X75372857Y-44947200D02*
X75230000Y-44994819D01*
X75230000Y-44994819D02*
X74991905Y-44994819D01*
X76420476Y-44328152D02*
X76420476Y-44994819D01*
X76182381Y-43947200D02*
X75944286Y-44661485D01*
X75944286Y-44661485D02*
X76563333Y-44661485D01*
X61188095Y-132704819D02*
X61759523Y-132704819D01*
X61473809Y-133704819D02*
X61473809Y-132704819D01*
X62092857Y-133704819D02*
X62092857Y-132704819D01*
X62092857Y-132704819D02*
X62473809Y-132704819D01*
X62473809Y-132704819D02*
X62569047Y-132752438D01*
X62569047Y-132752438D02*
X62616666Y-132800057D01*
X62616666Y-132800057D02*
X62664285Y-132895295D01*
X62664285Y-132895295D02*
X62664285Y-133038152D01*
X62664285Y-133038152D02*
X62616666Y-133133390D01*
X62616666Y-133133390D02*
X62569047Y-133181009D01*
X62569047Y-133181009D02*
X62473809Y-133228628D01*
X62473809Y-133228628D02*
X62092857Y-133228628D01*
X63616666Y-133704819D02*
X63045238Y-133704819D01*
X63330952Y-133704819D02*
X63330952Y-132704819D01*
X63330952Y-132704819D02*
X63235714Y-132847676D01*
X63235714Y-132847676D02*
X63140476Y-132942914D01*
X63140476Y-132942914D02*
X63045238Y-132990533D01*
X62833333Y-111034819D02*
X62500000Y-110558628D01*
X62261905Y-111034819D02*
X62261905Y-110034819D01*
X62261905Y-110034819D02*
X62642857Y-110034819D01*
X62642857Y-110034819D02*
X62738095Y-110082438D01*
X62738095Y-110082438D02*
X62785714Y-110130057D01*
X62785714Y-110130057D02*
X62833333Y-110225295D01*
X62833333Y-110225295D02*
X62833333Y-110368152D01*
X62833333Y-110368152D02*
X62785714Y-110463390D01*
X62785714Y-110463390D02*
X62738095Y-110511009D01*
X62738095Y-110511009D02*
X62642857Y-110558628D01*
X62642857Y-110558628D02*
X62261905Y-110558628D01*
X63690476Y-110368152D02*
X63690476Y-111034819D01*
X63452381Y-109987200D02*
X63214286Y-110701485D01*
X63214286Y-110701485D02*
X63833333Y-110701485D01*
X84124819Y-48976666D02*
X83648628Y-49309999D01*
X84124819Y-49548094D02*
X83124819Y-49548094D01*
X83124819Y-49548094D02*
X83124819Y-49167142D01*
X83124819Y-49167142D02*
X83172438Y-49071904D01*
X83172438Y-49071904D02*
X83220057Y-49024285D01*
X83220057Y-49024285D02*
X83315295Y-48976666D01*
X83315295Y-48976666D02*
X83458152Y-48976666D01*
X83458152Y-48976666D02*
X83553390Y-49024285D01*
X83553390Y-49024285D02*
X83601009Y-49071904D01*
X83601009Y-49071904D02*
X83648628Y-49167142D01*
X83648628Y-49167142D02*
X83648628Y-49548094D01*
X83124819Y-48643332D02*
X83124819Y-48024285D01*
X83124819Y-48024285D02*
X83505771Y-48357618D01*
X83505771Y-48357618D02*
X83505771Y-48214761D01*
X83505771Y-48214761D02*
X83553390Y-48119523D01*
X83553390Y-48119523D02*
X83601009Y-48071904D01*
X83601009Y-48071904D02*
X83696247Y-48024285D01*
X83696247Y-48024285D02*
X83934342Y-48024285D01*
X83934342Y-48024285D02*
X84029580Y-48071904D01*
X84029580Y-48071904D02*
X84077200Y-48119523D01*
X84077200Y-48119523D02*
X84124819Y-48214761D01*
X84124819Y-48214761D02*
X84124819Y-48500475D01*
X84124819Y-48500475D02*
X84077200Y-48595713D01*
X84077200Y-48595713D02*
X84029580Y-48643332D01*
X73633333Y-138279580D02*
X73585714Y-138327200D01*
X73585714Y-138327200D02*
X73442857Y-138374819D01*
X73442857Y-138374819D02*
X73347619Y-138374819D01*
X73347619Y-138374819D02*
X73204762Y-138327200D01*
X73204762Y-138327200D02*
X73109524Y-138231961D01*
X73109524Y-138231961D02*
X73061905Y-138136723D01*
X73061905Y-138136723D02*
X73014286Y-137946247D01*
X73014286Y-137946247D02*
X73014286Y-137803390D01*
X73014286Y-137803390D02*
X73061905Y-137612914D01*
X73061905Y-137612914D02*
X73109524Y-137517676D01*
X73109524Y-137517676D02*
X73204762Y-137422438D01*
X73204762Y-137422438D02*
X73347619Y-137374819D01*
X73347619Y-137374819D02*
X73442857Y-137374819D01*
X73442857Y-137374819D02*
X73585714Y-137422438D01*
X73585714Y-137422438D02*
X73633333Y-137470057D01*
X74585714Y-138374819D02*
X74014286Y-138374819D01*
X74300000Y-138374819D02*
X74300000Y-137374819D01*
X74300000Y-137374819D02*
X74204762Y-137517676D01*
X74204762Y-137517676D02*
X74109524Y-137612914D01*
X74109524Y-137612914D02*
X74014286Y-137660533D01*
X64833333Y-147689580D02*
X64785714Y-147737200D01*
X64785714Y-147737200D02*
X64642857Y-147784819D01*
X64642857Y-147784819D02*
X64547619Y-147784819D01*
X64547619Y-147784819D02*
X64404762Y-147737200D01*
X64404762Y-147737200D02*
X64309524Y-147641961D01*
X64309524Y-147641961D02*
X64261905Y-147546723D01*
X64261905Y-147546723D02*
X64214286Y-147356247D01*
X64214286Y-147356247D02*
X64214286Y-147213390D01*
X64214286Y-147213390D02*
X64261905Y-147022914D01*
X64261905Y-147022914D02*
X64309524Y-146927676D01*
X64309524Y-146927676D02*
X64404762Y-146832438D01*
X64404762Y-146832438D02*
X64547619Y-146784819D01*
X64547619Y-146784819D02*
X64642857Y-146784819D01*
X64642857Y-146784819D02*
X64785714Y-146832438D01*
X64785714Y-146832438D02*
X64833333Y-146880057D01*
X65309524Y-147784819D02*
X65500000Y-147784819D01*
X65500000Y-147784819D02*
X65595238Y-147737200D01*
X65595238Y-147737200D02*
X65642857Y-147689580D01*
X65642857Y-147689580D02*
X65738095Y-147546723D01*
X65738095Y-147546723D02*
X65785714Y-147356247D01*
X65785714Y-147356247D02*
X65785714Y-146975295D01*
X65785714Y-146975295D02*
X65738095Y-146880057D01*
X65738095Y-146880057D02*
X65690476Y-146832438D01*
X65690476Y-146832438D02*
X65595238Y-146784819D01*
X65595238Y-146784819D02*
X65404762Y-146784819D01*
X65404762Y-146784819D02*
X65309524Y-146832438D01*
X65309524Y-146832438D02*
X65261905Y-146880057D01*
X65261905Y-146880057D02*
X65214286Y-146975295D01*
X65214286Y-146975295D02*
X65214286Y-147213390D01*
X65214286Y-147213390D02*
X65261905Y-147308628D01*
X65261905Y-147308628D02*
X65309524Y-147356247D01*
X65309524Y-147356247D02*
X65404762Y-147403866D01*
X65404762Y-147403866D02*
X65595238Y-147403866D01*
X65595238Y-147403866D02*
X65690476Y-147356247D01*
X65690476Y-147356247D02*
X65738095Y-147308628D01*
X65738095Y-147308628D02*
X65785714Y-147213390D01*
X70666666Y-120431009D02*
X70333333Y-120431009D01*
X70333333Y-120954819D02*
X70333333Y-119954819D01*
X70333333Y-119954819D02*
X70809523Y-119954819D01*
X71714285Y-120954819D02*
X71142857Y-120954819D01*
X71428571Y-120954819D02*
X71428571Y-119954819D01*
X71428571Y-119954819D02*
X71333333Y-120097676D01*
X71333333Y-120097676D02*
X71238095Y-120192914D01*
X71238095Y-120192914D02*
X71142857Y-120240533D01*
X63757142Y-146109580D02*
X63709523Y-146157200D01*
X63709523Y-146157200D02*
X63566666Y-146204819D01*
X63566666Y-146204819D02*
X63471428Y-146204819D01*
X63471428Y-146204819D02*
X63328571Y-146157200D01*
X63328571Y-146157200D02*
X63233333Y-146061961D01*
X63233333Y-146061961D02*
X63185714Y-145966723D01*
X63185714Y-145966723D02*
X63138095Y-145776247D01*
X63138095Y-145776247D02*
X63138095Y-145633390D01*
X63138095Y-145633390D02*
X63185714Y-145442914D01*
X63185714Y-145442914D02*
X63233333Y-145347676D01*
X63233333Y-145347676D02*
X63328571Y-145252438D01*
X63328571Y-145252438D02*
X63471428Y-145204819D01*
X63471428Y-145204819D02*
X63566666Y-145204819D01*
X63566666Y-145204819D02*
X63709523Y-145252438D01*
X63709523Y-145252438D02*
X63757142Y-145300057D01*
X64709523Y-146204819D02*
X64138095Y-146204819D01*
X64423809Y-146204819D02*
X64423809Y-145204819D01*
X64423809Y-145204819D02*
X64328571Y-145347676D01*
X64328571Y-145347676D02*
X64233333Y-145442914D01*
X64233333Y-145442914D02*
X64138095Y-145490533D01*
X65661904Y-146204819D02*
X65090476Y-146204819D01*
X65376190Y-146204819D02*
X65376190Y-145204819D01*
X65376190Y-145204819D02*
X65280952Y-145347676D01*
X65280952Y-145347676D02*
X65185714Y-145442914D01*
X65185714Y-145442914D02*
X65090476Y-145490533D01*
X110261905Y-131784819D02*
X110261905Y-130784819D01*
X110261905Y-130784819D02*
X110500000Y-130784819D01*
X110500000Y-130784819D02*
X110642857Y-130832438D01*
X110642857Y-130832438D02*
X110738095Y-130927676D01*
X110738095Y-130927676D02*
X110785714Y-131022914D01*
X110785714Y-131022914D02*
X110833333Y-131213390D01*
X110833333Y-131213390D02*
X110833333Y-131356247D01*
X110833333Y-131356247D02*
X110785714Y-131546723D01*
X110785714Y-131546723D02*
X110738095Y-131641961D01*
X110738095Y-131641961D02*
X110642857Y-131737200D01*
X110642857Y-131737200D02*
X110500000Y-131784819D01*
X110500000Y-131784819D02*
X110261905Y-131784819D01*
X111785714Y-131784819D02*
X111214286Y-131784819D01*
X111500000Y-131784819D02*
X111500000Y-130784819D01*
X111500000Y-130784819D02*
X111404762Y-130927676D01*
X111404762Y-130927676D02*
X111309524Y-131022914D01*
X111309524Y-131022914D02*
X111214286Y-131070533D01*
X105658095Y-132504819D02*
X105658095Y-131504819D01*
X106229523Y-132504819D02*
X105800952Y-131933390D01*
X106229523Y-131504819D02*
X105658095Y-132076247D01*
X64261905Y-115034819D02*
X64261905Y-114034819D01*
X64261905Y-114034819D02*
X64500000Y-114034819D01*
X64500000Y-114034819D02*
X64642857Y-114082438D01*
X64642857Y-114082438D02*
X64738095Y-114177676D01*
X64738095Y-114177676D02*
X64785714Y-114272914D01*
X64785714Y-114272914D02*
X64833333Y-114463390D01*
X64833333Y-114463390D02*
X64833333Y-114606247D01*
X64833333Y-114606247D02*
X64785714Y-114796723D01*
X64785714Y-114796723D02*
X64738095Y-114891961D01*
X64738095Y-114891961D02*
X64642857Y-114987200D01*
X64642857Y-114987200D02*
X64500000Y-115034819D01*
X64500000Y-115034819D02*
X64261905Y-115034819D01*
X65214286Y-114130057D02*
X65261905Y-114082438D01*
X65261905Y-114082438D02*
X65357143Y-114034819D01*
X65357143Y-114034819D02*
X65595238Y-114034819D01*
X65595238Y-114034819D02*
X65690476Y-114082438D01*
X65690476Y-114082438D02*
X65738095Y-114130057D01*
X65738095Y-114130057D02*
X65785714Y-114225295D01*
X65785714Y-114225295D02*
X65785714Y-114320533D01*
X65785714Y-114320533D02*
X65738095Y-114463390D01*
X65738095Y-114463390D02*
X65166667Y-115034819D01*
X65166667Y-115034819D02*
X65785714Y-115034819D01*
X59658095Y-115754819D02*
X59658095Y-114754819D01*
X60229523Y-115754819D02*
X59800952Y-115183390D01*
X60229523Y-114754819D02*
X59658095Y-115326247D01*
X51704819Y-88311904D02*
X51704819Y-87740476D01*
X52704819Y-88026190D02*
X51704819Y-88026190D01*
X52704819Y-87407142D02*
X51704819Y-87407142D01*
X51704819Y-87407142D02*
X51704819Y-87026190D01*
X51704819Y-87026190D02*
X51752438Y-86930952D01*
X51752438Y-86930952D02*
X51800057Y-86883333D01*
X51800057Y-86883333D02*
X51895295Y-86835714D01*
X51895295Y-86835714D02*
X52038152Y-86835714D01*
X52038152Y-86835714D02*
X52133390Y-86883333D01*
X52133390Y-86883333D02*
X52181009Y-86930952D01*
X52181009Y-86930952D02*
X52228628Y-87026190D01*
X52228628Y-87026190D02*
X52228628Y-87407142D01*
X52038152Y-85978571D02*
X52704819Y-85978571D01*
X51657200Y-86216666D02*
X52371485Y-86454761D01*
X52371485Y-86454761D02*
X52371485Y-85835714D01*
X94974428Y-121743892D02*
X94974428Y-122201507D01*
X94974428Y-121972699D02*
X94173601Y-121972699D01*
X94173601Y-121972699D02*
X94288005Y-122048969D01*
X94288005Y-122048969D02*
X94364274Y-122125238D01*
X94364274Y-122125238D02*
X94402409Y-122201507D01*
X87007142Y-148359580D02*
X86959523Y-148407200D01*
X86959523Y-148407200D02*
X86816666Y-148454819D01*
X86816666Y-148454819D02*
X86721428Y-148454819D01*
X86721428Y-148454819D02*
X86578571Y-148407200D01*
X86578571Y-148407200D02*
X86483333Y-148311961D01*
X86483333Y-148311961D02*
X86435714Y-148216723D01*
X86435714Y-148216723D02*
X86388095Y-148026247D01*
X86388095Y-148026247D02*
X86388095Y-147883390D01*
X86388095Y-147883390D02*
X86435714Y-147692914D01*
X86435714Y-147692914D02*
X86483333Y-147597676D01*
X86483333Y-147597676D02*
X86578571Y-147502438D01*
X86578571Y-147502438D02*
X86721428Y-147454819D01*
X86721428Y-147454819D02*
X86816666Y-147454819D01*
X86816666Y-147454819D02*
X86959523Y-147502438D01*
X86959523Y-147502438D02*
X87007142Y-147550057D01*
X87959523Y-148454819D02*
X87388095Y-148454819D01*
X87673809Y-148454819D02*
X87673809Y-147454819D01*
X87673809Y-147454819D02*
X87578571Y-147597676D01*
X87578571Y-147597676D02*
X87483333Y-147692914D01*
X87483333Y-147692914D02*
X87388095Y-147740533D01*
X88340476Y-147550057D02*
X88388095Y-147502438D01*
X88388095Y-147502438D02*
X88483333Y-147454819D01*
X88483333Y-147454819D02*
X88721428Y-147454819D01*
X88721428Y-147454819D02*
X88816666Y-147502438D01*
X88816666Y-147502438D02*
X88864285Y-147550057D01*
X88864285Y-147550057D02*
X88911904Y-147645295D01*
X88911904Y-147645295D02*
X88911904Y-147740533D01*
X88911904Y-147740533D02*
X88864285Y-147883390D01*
X88864285Y-147883390D02*
X88292857Y-148454819D01*
X88292857Y-148454819D02*
X88911904Y-148454819D01*
X39695714Y-90489104D02*
X40171904Y-90489104D01*
X39600476Y-90774819D02*
X39933809Y-89774819D01*
X39933809Y-89774819D02*
X40267142Y-90774819D01*
X41124285Y-90774819D02*
X40552857Y-90774819D01*
X40838571Y-90774819D02*
X40838571Y-89774819D01*
X40838571Y-89774819D02*
X40743333Y-89917676D01*
X40743333Y-89917676D02*
X40648095Y-90012914D01*
X40648095Y-90012914D02*
X40552857Y-90060533D01*
X72583333Y-111034819D02*
X72250000Y-110558628D01*
X72011905Y-111034819D02*
X72011905Y-110034819D01*
X72011905Y-110034819D02*
X72392857Y-110034819D01*
X72392857Y-110034819D02*
X72488095Y-110082438D01*
X72488095Y-110082438D02*
X72535714Y-110130057D01*
X72535714Y-110130057D02*
X72583333Y-110225295D01*
X72583333Y-110225295D02*
X72583333Y-110368152D01*
X72583333Y-110368152D02*
X72535714Y-110463390D01*
X72535714Y-110463390D02*
X72488095Y-110511009D01*
X72488095Y-110511009D02*
X72392857Y-110558628D01*
X72392857Y-110558628D02*
X72011905Y-110558628D01*
X73488095Y-110034819D02*
X73011905Y-110034819D01*
X73011905Y-110034819D02*
X72964286Y-110511009D01*
X72964286Y-110511009D02*
X73011905Y-110463390D01*
X73011905Y-110463390D02*
X73107143Y-110415771D01*
X73107143Y-110415771D02*
X73345238Y-110415771D01*
X73345238Y-110415771D02*
X73440476Y-110463390D01*
X73440476Y-110463390D02*
X73488095Y-110511009D01*
X73488095Y-110511009D02*
X73535714Y-110606247D01*
X73535714Y-110606247D02*
X73535714Y-110844342D01*
X73535714Y-110844342D02*
X73488095Y-110939580D01*
X73488095Y-110939580D02*
X73440476Y-110987200D01*
X73440476Y-110987200D02*
X73345238Y-111034819D01*
X73345238Y-111034819D02*
X73107143Y-111034819D01*
X73107143Y-111034819D02*
X73011905Y-110987200D01*
X73011905Y-110987200D02*
X72964286Y-110939580D01*
X77704819Y-88311904D02*
X77704819Y-87740476D01*
X78704819Y-88026190D02*
X77704819Y-88026190D01*
X78704819Y-87407142D02*
X77704819Y-87407142D01*
X77704819Y-87407142D02*
X77704819Y-87026190D01*
X77704819Y-87026190D02*
X77752438Y-86930952D01*
X77752438Y-86930952D02*
X77800057Y-86883333D01*
X77800057Y-86883333D02*
X77895295Y-86835714D01*
X77895295Y-86835714D02*
X78038152Y-86835714D01*
X78038152Y-86835714D02*
X78133390Y-86883333D01*
X78133390Y-86883333D02*
X78181009Y-86930952D01*
X78181009Y-86930952D02*
X78228628Y-87026190D01*
X78228628Y-87026190D02*
X78228628Y-87407142D01*
X77704819Y-85930952D02*
X77704819Y-86407142D01*
X77704819Y-86407142D02*
X78181009Y-86454761D01*
X78181009Y-86454761D02*
X78133390Y-86407142D01*
X78133390Y-86407142D02*
X78085771Y-86311904D01*
X78085771Y-86311904D02*
X78085771Y-86073809D01*
X78085771Y-86073809D02*
X78133390Y-85978571D01*
X78133390Y-85978571D02*
X78181009Y-85930952D01*
X78181009Y-85930952D02*
X78276247Y-85883333D01*
X78276247Y-85883333D02*
X78514342Y-85883333D01*
X78514342Y-85883333D02*
X78609580Y-85930952D01*
X78609580Y-85930952D02*
X78657200Y-85978571D01*
X78657200Y-85978571D02*
X78704819Y-86073809D01*
X78704819Y-86073809D02*
X78704819Y-86311904D01*
X78704819Y-86311904D02*
X78657200Y-86407142D01*
X78657200Y-86407142D02*
X78609580Y-86454761D01*
X39675714Y-66739104D02*
X40151904Y-66739104D01*
X39580476Y-67024819D02*
X39913809Y-66024819D01*
X39913809Y-66024819D02*
X40247142Y-67024819D01*
X40532857Y-66120057D02*
X40580476Y-66072438D01*
X40580476Y-66072438D02*
X40675714Y-66024819D01*
X40675714Y-66024819D02*
X40913809Y-66024819D01*
X40913809Y-66024819D02*
X41009047Y-66072438D01*
X41009047Y-66072438D02*
X41056666Y-66120057D01*
X41056666Y-66120057D02*
X41104285Y-66215295D01*
X41104285Y-66215295D02*
X41104285Y-66310533D01*
X41104285Y-66310533D02*
X41056666Y-66453390D01*
X41056666Y-66453390D02*
X40485238Y-67024819D01*
X40485238Y-67024819D02*
X41104285Y-67024819D01*
X77333333Y-145029580D02*
X77285714Y-145077200D01*
X77285714Y-145077200D02*
X77142857Y-145124819D01*
X77142857Y-145124819D02*
X77047619Y-145124819D01*
X77047619Y-145124819D02*
X76904762Y-145077200D01*
X76904762Y-145077200D02*
X76809524Y-144981961D01*
X76809524Y-144981961D02*
X76761905Y-144886723D01*
X76761905Y-144886723D02*
X76714286Y-144696247D01*
X76714286Y-144696247D02*
X76714286Y-144553390D01*
X76714286Y-144553390D02*
X76761905Y-144362914D01*
X76761905Y-144362914D02*
X76809524Y-144267676D01*
X76809524Y-144267676D02*
X76904762Y-144172438D01*
X76904762Y-144172438D02*
X77047619Y-144124819D01*
X77047619Y-144124819D02*
X77142857Y-144124819D01*
X77142857Y-144124819D02*
X77285714Y-144172438D01*
X77285714Y-144172438D02*
X77333333Y-144220057D01*
X78190476Y-144124819D02*
X78000000Y-144124819D01*
X78000000Y-144124819D02*
X77904762Y-144172438D01*
X77904762Y-144172438D02*
X77857143Y-144220057D01*
X77857143Y-144220057D02*
X77761905Y-144362914D01*
X77761905Y-144362914D02*
X77714286Y-144553390D01*
X77714286Y-144553390D02*
X77714286Y-144934342D01*
X77714286Y-144934342D02*
X77761905Y-145029580D01*
X77761905Y-145029580D02*
X77809524Y-145077200D01*
X77809524Y-145077200D02*
X77904762Y-145124819D01*
X77904762Y-145124819D02*
X78095238Y-145124819D01*
X78095238Y-145124819D02*
X78190476Y-145077200D01*
X78190476Y-145077200D02*
X78238095Y-145029580D01*
X78238095Y-145029580D02*
X78285714Y-144934342D01*
X78285714Y-144934342D02*
X78285714Y-144696247D01*
X78285714Y-144696247D02*
X78238095Y-144601009D01*
X78238095Y-144601009D02*
X78190476Y-144553390D01*
X78190476Y-144553390D02*
X78095238Y-144505771D01*
X78095238Y-144505771D02*
X77904762Y-144505771D01*
X77904762Y-144505771D02*
X77809524Y-144553390D01*
X77809524Y-144553390D02*
X77761905Y-144601009D01*
X77761905Y-144601009D02*
X77714286Y-144696247D01*
X87483333Y-136109580D02*
X87435714Y-136157200D01*
X87435714Y-136157200D02*
X87292857Y-136204819D01*
X87292857Y-136204819D02*
X87197619Y-136204819D01*
X87197619Y-136204819D02*
X87054762Y-136157200D01*
X87054762Y-136157200D02*
X86959524Y-136061961D01*
X86959524Y-136061961D02*
X86911905Y-135966723D01*
X86911905Y-135966723D02*
X86864286Y-135776247D01*
X86864286Y-135776247D02*
X86864286Y-135633390D01*
X86864286Y-135633390D02*
X86911905Y-135442914D01*
X86911905Y-135442914D02*
X86959524Y-135347676D01*
X86959524Y-135347676D02*
X87054762Y-135252438D01*
X87054762Y-135252438D02*
X87197619Y-135204819D01*
X87197619Y-135204819D02*
X87292857Y-135204819D01*
X87292857Y-135204819D02*
X87435714Y-135252438D01*
X87435714Y-135252438D02*
X87483333Y-135300057D01*
X87816667Y-135204819D02*
X88483333Y-135204819D01*
X88483333Y-135204819D02*
X88054762Y-136204819D01*
X66938095Y-132704819D02*
X67509523Y-132704819D01*
X67223809Y-133704819D02*
X67223809Y-132704819D01*
X67842857Y-133704819D02*
X67842857Y-132704819D01*
X67842857Y-132704819D02*
X68223809Y-132704819D01*
X68223809Y-132704819D02*
X68319047Y-132752438D01*
X68319047Y-132752438D02*
X68366666Y-132800057D01*
X68366666Y-132800057D02*
X68414285Y-132895295D01*
X68414285Y-132895295D02*
X68414285Y-133038152D01*
X68414285Y-133038152D02*
X68366666Y-133133390D01*
X68366666Y-133133390D02*
X68319047Y-133181009D01*
X68319047Y-133181009D02*
X68223809Y-133228628D01*
X68223809Y-133228628D02*
X67842857Y-133228628D01*
X68747619Y-132704819D02*
X69366666Y-132704819D01*
X69366666Y-132704819D02*
X69033333Y-133085771D01*
X69033333Y-133085771D02*
X69176190Y-133085771D01*
X69176190Y-133085771D02*
X69271428Y-133133390D01*
X69271428Y-133133390D02*
X69319047Y-133181009D01*
X69319047Y-133181009D02*
X69366666Y-133276247D01*
X69366666Y-133276247D02*
X69366666Y-133514342D01*
X69366666Y-133514342D02*
X69319047Y-133609580D01*
X69319047Y-133609580D02*
X69271428Y-133657200D01*
X69271428Y-133657200D02*
X69176190Y-133704819D01*
X69176190Y-133704819D02*
X68890476Y-133704819D01*
X68890476Y-133704819D02*
X68795238Y-133657200D01*
X68795238Y-133657200D02*
X68747619Y-133609580D01*
X92154761Y-136900057D02*
X92059523Y-136852438D01*
X92059523Y-136852438D02*
X91964285Y-136757200D01*
X91964285Y-136757200D02*
X91821428Y-136614342D01*
X91821428Y-136614342D02*
X91726190Y-136566723D01*
X91726190Y-136566723D02*
X91630952Y-136566723D01*
X91678571Y-136804819D02*
X91583333Y-136757200D01*
X91583333Y-136757200D02*
X91488095Y-136661961D01*
X91488095Y-136661961D02*
X91440476Y-136471485D01*
X91440476Y-136471485D02*
X91440476Y-136138152D01*
X91440476Y-136138152D02*
X91488095Y-135947676D01*
X91488095Y-135947676D02*
X91583333Y-135852438D01*
X91583333Y-135852438D02*
X91678571Y-135804819D01*
X91678571Y-135804819D02*
X91869047Y-135804819D01*
X91869047Y-135804819D02*
X91964285Y-135852438D01*
X91964285Y-135852438D02*
X92059523Y-135947676D01*
X92059523Y-135947676D02*
X92107142Y-136138152D01*
X92107142Y-136138152D02*
X92107142Y-136471485D01*
X92107142Y-136471485D02*
X92059523Y-136661961D01*
X92059523Y-136661961D02*
X91964285Y-136757200D01*
X91964285Y-136757200D02*
X91869047Y-136804819D01*
X91869047Y-136804819D02*
X91678571Y-136804819D01*
X93059523Y-136804819D02*
X92488095Y-136804819D01*
X92773809Y-136804819D02*
X92773809Y-135804819D01*
X92773809Y-135804819D02*
X92678571Y-135947676D01*
X92678571Y-135947676D02*
X92583333Y-136042914D01*
X92583333Y-136042914D02*
X92488095Y-136090533D01*
X82883333Y-129609580D02*
X82835714Y-129657200D01*
X82835714Y-129657200D02*
X82692857Y-129704819D01*
X82692857Y-129704819D02*
X82597619Y-129704819D01*
X82597619Y-129704819D02*
X82454762Y-129657200D01*
X82454762Y-129657200D02*
X82359524Y-129561961D01*
X82359524Y-129561961D02*
X82311905Y-129466723D01*
X82311905Y-129466723D02*
X82264286Y-129276247D01*
X82264286Y-129276247D02*
X82264286Y-129133390D01*
X82264286Y-129133390D02*
X82311905Y-128942914D01*
X82311905Y-128942914D02*
X82359524Y-128847676D01*
X82359524Y-128847676D02*
X82454762Y-128752438D01*
X82454762Y-128752438D02*
X82597619Y-128704819D01*
X82597619Y-128704819D02*
X82692857Y-128704819D01*
X82692857Y-128704819D02*
X82835714Y-128752438D01*
X82835714Y-128752438D02*
X82883333Y-128800057D01*
X83454762Y-129133390D02*
X83359524Y-129085771D01*
X83359524Y-129085771D02*
X83311905Y-129038152D01*
X83311905Y-129038152D02*
X83264286Y-128942914D01*
X83264286Y-128942914D02*
X83264286Y-128895295D01*
X83264286Y-128895295D02*
X83311905Y-128800057D01*
X83311905Y-128800057D02*
X83359524Y-128752438D01*
X83359524Y-128752438D02*
X83454762Y-128704819D01*
X83454762Y-128704819D02*
X83645238Y-128704819D01*
X83645238Y-128704819D02*
X83740476Y-128752438D01*
X83740476Y-128752438D02*
X83788095Y-128800057D01*
X83788095Y-128800057D02*
X83835714Y-128895295D01*
X83835714Y-128895295D02*
X83835714Y-128942914D01*
X83835714Y-128942914D02*
X83788095Y-129038152D01*
X83788095Y-129038152D02*
X83740476Y-129085771D01*
X83740476Y-129085771D02*
X83645238Y-129133390D01*
X83645238Y-129133390D02*
X83454762Y-129133390D01*
X83454762Y-129133390D02*
X83359524Y-129181009D01*
X83359524Y-129181009D02*
X83311905Y-129228628D01*
X83311905Y-129228628D02*
X83264286Y-129323866D01*
X83264286Y-129323866D02*
X83264286Y-129514342D01*
X83264286Y-129514342D02*
X83311905Y-129609580D01*
X83311905Y-129609580D02*
X83359524Y-129657200D01*
X83359524Y-129657200D02*
X83454762Y-129704819D01*
X83454762Y-129704819D02*
X83645238Y-129704819D01*
X83645238Y-129704819D02*
X83740476Y-129657200D01*
X83740476Y-129657200D02*
X83788095Y-129609580D01*
X83788095Y-129609580D02*
X83835714Y-129514342D01*
X83835714Y-129514342D02*
X83835714Y-129323866D01*
X83835714Y-129323866D02*
X83788095Y-129228628D01*
X83788095Y-129228628D02*
X83740476Y-129181009D01*
X83740476Y-129181009D02*
X83645238Y-129133390D01*
X64357142Y-153939580D02*
X64309523Y-153987200D01*
X64309523Y-153987200D02*
X64166666Y-154034819D01*
X64166666Y-154034819D02*
X64071428Y-154034819D01*
X64071428Y-154034819D02*
X63928571Y-153987200D01*
X63928571Y-153987200D02*
X63833333Y-153891961D01*
X63833333Y-153891961D02*
X63785714Y-153796723D01*
X63785714Y-153796723D02*
X63738095Y-153606247D01*
X63738095Y-153606247D02*
X63738095Y-153463390D01*
X63738095Y-153463390D02*
X63785714Y-153272914D01*
X63785714Y-153272914D02*
X63833333Y-153177676D01*
X63833333Y-153177676D02*
X63928571Y-153082438D01*
X63928571Y-153082438D02*
X64071428Y-153034819D01*
X64071428Y-153034819D02*
X64166666Y-153034819D01*
X64166666Y-153034819D02*
X64309523Y-153082438D01*
X64309523Y-153082438D02*
X64357142Y-153130057D01*
X65309523Y-154034819D02*
X64738095Y-154034819D01*
X65023809Y-154034819D02*
X65023809Y-153034819D01*
X65023809Y-153034819D02*
X64928571Y-153177676D01*
X64928571Y-153177676D02*
X64833333Y-153272914D01*
X64833333Y-153272914D02*
X64738095Y-153320533D01*
X65928571Y-153034819D02*
X66023809Y-153034819D01*
X66023809Y-153034819D02*
X66119047Y-153082438D01*
X66119047Y-153082438D02*
X66166666Y-153130057D01*
X66166666Y-153130057D02*
X66214285Y-153225295D01*
X66214285Y-153225295D02*
X66261904Y-153415771D01*
X66261904Y-153415771D02*
X66261904Y-153653866D01*
X66261904Y-153653866D02*
X66214285Y-153844342D01*
X66214285Y-153844342D02*
X66166666Y-153939580D01*
X66166666Y-153939580D02*
X66119047Y-153987200D01*
X66119047Y-153987200D02*
X66023809Y-154034819D01*
X66023809Y-154034819D02*
X65928571Y-154034819D01*
X65928571Y-154034819D02*
X65833333Y-153987200D01*
X65833333Y-153987200D02*
X65785714Y-153939580D01*
X65785714Y-153939580D02*
X65738095Y-153844342D01*
X65738095Y-153844342D02*
X65690476Y-153653866D01*
X65690476Y-153653866D02*
X65690476Y-153415771D01*
X65690476Y-153415771D02*
X65738095Y-153225295D01*
X65738095Y-153225295D02*
X65785714Y-153130057D01*
X65785714Y-153130057D02*
X65833333Y-153082438D01*
X65833333Y-153082438D02*
X65928571Y-153034819D01*
D11*
%TO.C,TP2*%
X83500000Y-123250000D02*
G75*
G02*
X80500000Y-123250000I-1500000J0D01*
G01*
X80500000Y-123250000D02*
G75*
G02*
X83500000Y-123250000I1500000J0D01*
G01*
%TO.C,U2*%
X74840000Y-146920000D02*
X74840000Y-157200000D01*
X74840000Y-157200000D02*
X80140000Y-157200000D01*
X76490000Y-146920000D02*
X74840000Y-146920000D01*
X80140000Y-146920000D02*
X78490000Y-146920000D01*
X80140000Y-157200000D02*
X80140000Y-146920000D01*
X78490000Y-146920000D02*
G75*
G02*
X76490000Y-146920000I-1000000J0D01*
G01*
%TO.C,D3*%
X107080000Y-139330000D02*
X114920000Y-139330000D01*
X107080000Y-139810000D02*
X107080000Y-139330000D01*
X107080000Y-142690000D02*
X107080000Y-143170000D01*
X107080000Y-143170000D02*
X114920000Y-143170000D01*
X108220000Y-139330000D02*
X108220000Y-143170000D01*
X108340000Y-139330000D02*
X108340000Y-143170000D01*
X108460000Y-139330000D02*
X108460000Y-143170000D01*
X114920000Y-139330000D02*
X114920000Y-139810000D01*
X114920000Y-143170000D02*
X114920000Y-142690000D01*
%TO.C,D4*%
X73170000Y-46955000D02*
X73170000Y-50045000D01*
X73170000Y-46955170D02*
G75*
G02*
X78720000Y-48500000I2560000J-1544830D01*
G01*
X78720000Y-48500000D02*
G75*
G02*
X73170000Y-50044830I-2990000J0D01*
G01*
X78230000Y-48500000D02*
G75*
G02*
X73230000Y-48500000I-2500000J0D01*
G01*
X73230000Y-48500000D02*
G75*
G02*
X78230000Y-48500000I2500000J0D01*
G01*
%TO.C,J3*%
X37290000Y-55210000D02*
X78190000Y-55210000D01*
X37290000Y-64330000D02*
X37290000Y-55210000D01*
X38590000Y-56520000D02*
X76890000Y-56520000D01*
X38590000Y-63020000D02*
X38590000Y-56520000D01*
X42000000Y-65720000D02*
X43000000Y-65720000D01*
X42500000Y-64720000D02*
X42000000Y-65720000D01*
X43000000Y-65720000D02*
X42500000Y-64720000D01*
X55690000Y-63020000D02*
X38590000Y-63020000D01*
X55690000Y-64330000D02*
X55690000Y-63020000D01*
X59790000Y-63020000D02*
X59790000Y-64330000D01*
X76890000Y-56520000D02*
X76890000Y-63020000D01*
X76890000Y-63020000D02*
X59790000Y-63020000D01*
X78190000Y-55210000D02*
X78190000Y-64330000D01*
X78190000Y-64330000D02*
X37290000Y-64330000D01*
%TO.C,J1*%
X85540000Y-44170000D02*
X106120000Y-44170000D01*
X85540000Y-53290000D02*
X85540000Y-44170000D01*
X86840000Y-45480000D02*
X104820000Y-45480000D01*
X86840000Y-51980000D02*
X86840000Y-45480000D01*
X90250000Y-54680000D02*
X91250000Y-54680000D01*
X90750000Y-53680000D02*
X90250000Y-54680000D01*
X91250000Y-54680000D02*
X90750000Y-53680000D01*
X93780000Y-51980000D02*
X86840000Y-51980000D01*
X93780000Y-53290000D02*
X93780000Y-51980000D01*
X97880000Y-51980000D02*
X97880000Y-53290000D01*
X104820000Y-45480000D02*
X104820000Y-51980000D01*
X104820000Y-51980000D02*
X97880000Y-51980000D01*
X106120000Y-44170000D02*
X106120000Y-53290000D01*
X106120000Y-53290000D02*
X85540000Y-53290000D01*
%TO.C,TP1*%
X63250000Y-130750000D02*
G75*
G02*
X60250000Y-130750000I-1500000J0D01*
G01*
X60250000Y-130750000D02*
G75*
G02*
X63250000Y-130750000I1500000J0D01*
G01*
%TO.C,R4*%
X60130000Y-112500000D02*
X61080000Y-112500000D01*
X65870000Y-112500000D02*
X64920000Y-112500000D01*
X61080000Y-111580000D02*
X64920000Y-111580000D01*
X64920000Y-113420000D01*
X61080000Y-113420000D01*
X61080000Y-111580000D01*
D12*
%TO.C,J7*%
X104740000Y-145050000D02*
X110740000Y-145050000D01*
X104750000Y-151376000D02*
X104740000Y-145050000D01*
X104750000Y-156350000D02*
X104750000Y-153124000D01*
X104750000Y-156350000D02*
X110750000Y-156350000D01*
X105250000Y-156350000D02*
X105250000Y-159150000D01*
X105250000Y-159150000D02*
X110250000Y-159150000D01*
X110250000Y-156350000D02*
X110250000Y-159150000D01*
X110750000Y-146376000D02*
X110760000Y-145100000D01*
X110750000Y-153376000D02*
X110750000Y-148124000D01*
X110750000Y-156350000D02*
X110750000Y-155124000D01*
D11*
%TO.C,R3*%
X81750000Y-45940000D02*
X81750000Y-46890000D01*
X81750000Y-51680000D02*
X81750000Y-50730000D01*
X82670000Y-46890000D02*
X80830000Y-46890000D01*
X80830000Y-50730000D01*
X82670000Y-50730000D01*
X82670000Y-46890000D01*
%TO.C,C5*%
X82500000Y-111790000D02*
X82500000Y-112480000D01*
X82500000Y-117210000D02*
X82500000Y-116520000D01*
X81080000Y-116520000D02*
X83920000Y-116520000D01*
X83920000Y-112480000D01*
X81080000Y-112480000D01*
X81080000Y-116520000D01*
%TO.C,C3*%
X109660000Y-57000000D02*
X109660000Y-57690000D01*
X109660000Y-62420000D02*
X109660000Y-61730000D01*
X111080000Y-57690000D02*
X108240000Y-57690000D01*
X108240000Y-61730000D01*
X111080000Y-61730000D01*
X111080000Y-57690000D01*
%TO.C,C1*%
X71090000Y-135500000D02*
X71780000Y-135500000D01*
X76510000Y-135500000D02*
X75820000Y-135500000D01*
X75820000Y-136920000D02*
X71780000Y-136920000D01*
X71780000Y-134080000D01*
X75820000Y-134080000D01*
X75820000Y-136920000D01*
%TO.C,C9*%
X62290000Y-149750000D02*
X62980000Y-149750000D01*
X67710000Y-149750000D02*
X67020000Y-149750000D01*
X62980000Y-148330000D02*
X67020000Y-148330000D01*
X67020000Y-151170000D01*
X62980000Y-151170000D01*
X62980000Y-148330000D01*
%TO.C,F1*%
X71000000Y-124250000D02*
X72000000Y-124250000D01*
X71500000Y-123750000D02*
X71500000Y-124750000D01*
X73000000Y-124250000D02*
X77000000Y-124250000D01*
X76500000Y-123750000D02*
X76500000Y-124750000D01*
X77000000Y-124250000D02*
X78500000Y-124250000D01*
X80000000Y-125250000D02*
G75*
G02*
X70000000Y-125250000I-5000000J0D01*
G01*
X70000000Y-125250000D02*
G75*
G02*
X80000000Y-125250000I5000000J0D01*
G01*
%TO.C,C11*%
X60320000Y-141033000D02*
X60320000Y-139967000D01*
X60360000Y-141268000D02*
X60360000Y-139732000D01*
X60400000Y-141447000D02*
X60400000Y-139553000D01*
X60440000Y-141597000D02*
X60440000Y-139403000D01*
X60480000Y-141728000D02*
X60480000Y-139272000D01*
X60520000Y-141846000D02*
X60520000Y-139154000D01*
X60560000Y-141953000D02*
X60560000Y-139047000D01*
X60600000Y-142052000D02*
X60600000Y-138948000D01*
X60640000Y-142144000D02*
X60640000Y-138856000D01*
X60680000Y-142231000D02*
X60680000Y-138769000D01*
X60720000Y-142313000D02*
X60720000Y-138687000D01*
X60760000Y-142390000D02*
X60760000Y-138610000D01*
X60800000Y-142464000D02*
X60800000Y-138536000D01*
X60840000Y-142534000D02*
X60840000Y-138466000D01*
X60880000Y-142601000D02*
X60880000Y-138399000D01*
X60920000Y-142665000D02*
X60920000Y-138335000D01*
X60960000Y-142727000D02*
X60960000Y-138273000D01*
X61000000Y-142787000D02*
X61000000Y-138213000D01*
X61040000Y-142844000D02*
X61040000Y-138156000D01*
X61080000Y-142900000D02*
X61080000Y-138100000D01*
X61120000Y-142953000D02*
X61120000Y-138047000D01*
X61160000Y-143005000D02*
X61160000Y-137995000D01*
X61200000Y-143055000D02*
X61200000Y-137945000D01*
X61240000Y-143104000D02*
X61240000Y-137896000D01*
X61280000Y-143151000D02*
X61280000Y-137849000D01*
X61320000Y-143196000D02*
X61320000Y-137804000D01*
X61360000Y-143241000D02*
X61360000Y-137759000D01*
X61400000Y-143284000D02*
X61400000Y-137716000D01*
X61440000Y-143326000D02*
X61440000Y-137674000D01*
X61480000Y-139460000D02*
X61480000Y-137633000D01*
X61480000Y-143367000D02*
X61480000Y-141540000D01*
X61520000Y-139460000D02*
X61520000Y-137594000D01*
X61520000Y-143406000D02*
X61520000Y-141540000D01*
X61560000Y-139460000D02*
X61560000Y-137555000D01*
X61560000Y-143445000D02*
X61560000Y-141540000D01*
X61600000Y-139460000D02*
X61600000Y-137518000D01*
X61600000Y-143482000D02*
X61600000Y-141540000D01*
X61640000Y-139460000D02*
X61640000Y-137481000D01*
X61640000Y-143519000D02*
X61640000Y-141540000D01*
X61680000Y-139460000D02*
X61680000Y-137445000D01*
X61680000Y-143555000D02*
X61680000Y-141540000D01*
X61720000Y-139460000D02*
X61720000Y-137411000D01*
X61720000Y-143589000D02*
X61720000Y-141540000D01*
X61760000Y-139460000D02*
X61760000Y-137377000D01*
X61760000Y-143623000D02*
X61760000Y-141540000D01*
X61800000Y-139460000D02*
X61800000Y-137344000D01*
X61800000Y-143656000D02*
X61800000Y-141540000D01*
X61840000Y-139460000D02*
X61840000Y-137312000D01*
X61840000Y-143688000D02*
X61840000Y-141540000D01*
X61880000Y-139460000D02*
X61880000Y-137281000D01*
X61880000Y-143719000D02*
X61880000Y-141540000D01*
X61920000Y-139460000D02*
X61920000Y-137250000D01*
X61920000Y-143750000D02*
X61920000Y-141540000D01*
X61960000Y-139460000D02*
X61960000Y-137220000D01*
X61960000Y-143780000D02*
X61960000Y-141540000D01*
X62000000Y-139460000D02*
X62000000Y-137191000D01*
X62000000Y-143809000D02*
X62000000Y-141540000D01*
X62040000Y-139460000D02*
X62040000Y-137163000D01*
X62040000Y-143837000D02*
X62040000Y-141540000D01*
X62080000Y-139460000D02*
X62080000Y-137135000D01*
X62080000Y-143865000D02*
X62080000Y-141540000D01*
X62120000Y-139460000D02*
X62120000Y-137108000D01*
X62120000Y-143892000D02*
X62120000Y-141540000D01*
X62160000Y-139460000D02*
X62160000Y-137082000D01*
X62160000Y-143918000D02*
X62160000Y-141540000D01*
X62200000Y-139460000D02*
X62200000Y-137057000D01*
X62200000Y-143943000D02*
X62200000Y-141540000D01*
X62240000Y-139460000D02*
X62240000Y-137032000D01*
X62240000Y-143968000D02*
X62240000Y-141540000D01*
X62280000Y-139460000D02*
X62280000Y-137007000D01*
X62280000Y-143993000D02*
X62280000Y-141540000D01*
X62320000Y-139460000D02*
X62320000Y-136984000D01*
X62320000Y-144016000D02*
X62320000Y-141540000D01*
X62360000Y-139460000D02*
X62360000Y-136961000D01*
X62360000Y-144039000D02*
X62360000Y-141540000D01*
X62400000Y-139460000D02*
X62400000Y-136938000D01*
X62400000Y-144062000D02*
X62400000Y-141540000D01*
X62440000Y-139460000D02*
X62440000Y-136916000D01*
X62440000Y-144084000D02*
X62440000Y-141540000D01*
X62480000Y-139460000D02*
X62480000Y-136895000D01*
X62480000Y-144105000D02*
X62480000Y-141540000D01*
X62520000Y-139460000D02*
X62520000Y-136874000D01*
X62520000Y-144126000D02*
X62520000Y-141540000D01*
X62560000Y-139460000D02*
X62560000Y-136854000D01*
X62560000Y-144146000D02*
X62560000Y-141540000D01*
X62600000Y-139460000D02*
X62600000Y-136834000D01*
X62600000Y-144166000D02*
X62600000Y-141540000D01*
X62640000Y-139460000D02*
X62640000Y-136815000D01*
X62640000Y-144185000D02*
X62640000Y-141540000D01*
X62680000Y-139460000D02*
X62680000Y-136796000D01*
X62680000Y-144204000D02*
X62680000Y-141540000D01*
X62720000Y-139460000D02*
X62720000Y-136778000D01*
X62720000Y-144222000D02*
X62720000Y-141540000D01*
X62760000Y-139460000D02*
X62760000Y-136760000D01*
X62760000Y-144240000D02*
X62760000Y-141540000D01*
X62800000Y-139460000D02*
X62800000Y-136743000D01*
X62800000Y-144257000D02*
X62800000Y-141540000D01*
X62840000Y-139460000D02*
X62840000Y-136727000D01*
X62840000Y-144273000D02*
X62840000Y-141540000D01*
X62880000Y-139460000D02*
X62880000Y-136711000D01*
X62880000Y-144289000D02*
X62880000Y-141540000D01*
X62920000Y-139460000D02*
X62920000Y-136695000D01*
X62920000Y-144305000D02*
X62920000Y-141540000D01*
X62960000Y-139460000D02*
X62960000Y-136680000D01*
X62960000Y-144320000D02*
X62960000Y-141540000D01*
X63000000Y-139460000D02*
X63000000Y-136665000D01*
X63000000Y-144335000D02*
X63000000Y-141540000D01*
X63040000Y-139460000D02*
X63040000Y-136651000D01*
X63040000Y-144349000D02*
X63040000Y-141540000D01*
X63080000Y-139460000D02*
X63080000Y-136637000D01*
X63080000Y-144363000D02*
X63080000Y-141540000D01*
X63120000Y-139460000D02*
X63120000Y-136624000D01*
X63120000Y-144376000D02*
X63120000Y-141540000D01*
X63160000Y-139460000D02*
X63160000Y-136611000D01*
X63160000Y-144389000D02*
X63160000Y-141540000D01*
X63200000Y-139460000D02*
X63200000Y-136599000D01*
X63200000Y-144401000D02*
X63200000Y-141540000D01*
X63240000Y-139460000D02*
X63240000Y-136587000D01*
X63240000Y-144413000D02*
X63240000Y-141540000D01*
X63280000Y-139460000D02*
X63280000Y-136575000D01*
X63280000Y-144425000D02*
X63280000Y-141540000D01*
X63320000Y-139460000D02*
X63320000Y-136564000D01*
X63320000Y-144436000D02*
X63320000Y-141540000D01*
X63360000Y-139460000D02*
X63360000Y-136553000D01*
X63360000Y-144447000D02*
X63360000Y-141540000D01*
X63400000Y-139460000D02*
X63400000Y-136543000D01*
X63400000Y-144457000D02*
X63400000Y-141540000D01*
X63440000Y-139460000D02*
X63440000Y-136533000D01*
X63440000Y-144467000D02*
X63440000Y-141540000D01*
X63480000Y-139460000D02*
X63480000Y-136524000D01*
X63480000Y-144476000D02*
X63480000Y-141540000D01*
X63520000Y-139460000D02*
X63520000Y-136515000D01*
X63520000Y-144485000D02*
X63520000Y-141540000D01*
X63560000Y-144493000D02*
X63560000Y-136507000D01*
X63600000Y-144502000D02*
X63600000Y-136498000D01*
X63640000Y-144509000D02*
X63640000Y-136491000D01*
X63680000Y-144517000D02*
X63680000Y-136483000D01*
X63720000Y-144523000D02*
X63720000Y-136477000D01*
X63760000Y-144530000D02*
X63760000Y-136470000D01*
X63800000Y-144536000D02*
X63800000Y-136464000D01*
X63840000Y-144542000D02*
X63840000Y-136458000D01*
X63880000Y-144547000D02*
X63880000Y-136453000D01*
X63920000Y-144552000D02*
X63920000Y-136448000D01*
X63960000Y-144556000D02*
X63960000Y-136444000D01*
X64000000Y-144561000D02*
X64000000Y-136439000D01*
X64040000Y-144564000D02*
X64040000Y-136436000D01*
X64080000Y-144568000D02*
X64080000Y-136432000D01*
X64120000Y-144570000D02*
X64120000Y-136430000D01*
X64160000Y-144573000D02*
X64160000Y-136427000D01*
X64200000Y-144575000D02*
X64200000Y-136425000D01*
X64240000Y-144577000D02*
X64240000Y-136423000D01*
X64280000Y-144578000D02*
X64280000Y-136422000D01*
X64320000Y-144579000D02*
X64320000Y-136421000D01*
X64360000Y-144580000D02*
X64360000Y-136420000D01*
X64400000Y-144580000D02*
X64400000Y-136420000D01*
X68409698Y-143215000D02*
X68409698Y-142415000D01*
X68809698Y-142815000D02*
X68009698Y-142815000D01*
X68520000Y-140500000D02*
G75*
G02*
X60280000Y-140500000I-4120000J0D01*
G01*
X60280000Y-140500000D02*
G75*
G02*
X68520000Y-140500000I4120000J0D01*
G01*
%TO.C,J2*%
X37290000Y-44170000D02*
X70570000Y-44170000D01*
X37290000Y-53290000D02*
X37290000Y-44170000D01*
X38590000Y-45480000D02*
X69270000Y-45480000D01*
X38590000Y-51980000D02*
X38590000Y-45480000D01*
X42000000Y-54680000D02*
X43000000Y-54680000D01*
X42500000Y-53680000D02*
X42000000Y-54680000D01*
X43000000Y-54680000D02*
X42500000Y-53680000D01*
X51880000Y-51980000D02*
X38590000Y-51980000D01*
X51880000Y-53290000D02*
X51880000Y-51980000D01*
X55980000Y-51980000D02*
X55980000Y-53290000D01*
X69270000Y-45480000D02*
X69270000Y-51980000D01*
X69270000Y-51980000D02*
X55980000Y-51980000D01*
X70570000Y-44170000D02*
X70570000Y-53290000D01*
X70570000Y-53290000D02*
X37290000Y-53290000D01*
%TO.C,D1*%
X107080000Y-132330000D02*
X114920000Y-132330000D01*
X107080000Y-132810000D02*
X107080000Y-132330000D01*
X107080000Y-135690000D02*
X107080000Y-136170000D01*
X107080000Y-136170000D02*
X114920000Y-136170000D01*
X108220000Y-132330000D02*
X108220000Y-136170000D01*
X108340000Y-132330000D02*
X108340000Y-136170000D01*
X108460000Y-132330000D02*
X108460000Y-136170000D01*
X114920000Y-132330000D02*
X114920000Y-132810000D01*
X114920000Y-136170000D02*
X114920000Y-135690000D01*
%TO.C,C4*%
X109660000Y-46090000D02*
X109660000Y-46780000D01*
X109660000Y-51510000D02*
X109660000Y-50820000D01*
X108240000Y-50820000D02*
X111080000Y-50820000D01*
X111080000Y-46780000D01*
X108240000Y-46780000D01*
X108240000Y-50820000D01*
D12*
%TO.C,J5*%
X111240000Y-145050000D02*
X117240000Y-145050000D01*
X111250000Y-151376000D02*
X111240000Y-145050000D01*
X111250000Y-156350000D02*
X111250000Y-153124000D01*
X111250000Y-156350000D02*
X117250000Y-156350000D01*
X111750000Y-156350000D02*
X111750000Y-159150000D01*
X111750000Y-159150000D02*
X116750000Y-159150000D01*
X116750000Y-156350000D02*
X116750000Y-159150000D01*
X117250000Y-146376000D02*
X117260000Y-145100000D01*
X117250000Y-153376000D02*
X117250000Y-148124000D01*
X117250000Y-156350000D02*
X117250000Y-155124000D01*
D11*
%TO.C,D2*%
X61080000Y-115580000D02*
X68920000Y-115580000D01*
X61080000Y-116060000D02*
X61080000Y-115580000D01*
X61080000Y-118940000D02*
X61080000Y-119420000D01*
X61080000Y-119420000D02*
X68920000Y-119420000D01*
X62220000Y-115580000D02*
X62220000Y-119420000D01*
X62340000Y-115580000D02*
X62340000Y-119420000D01*
X62460000Y-115580000D02*
X62460000Y-119420000D01*
X68920000Y-115580000D02*
X68920000Y-116060000D01*
X68920000Y-119420000D02*
X68920000Y-118940000D01*
%TO.C,TP4*%
X51250000Y-87750000D02*
G75*
G02*
X48250000Y-87750000I-1500000J0D01*
G01*
X48250000Y-87750000D02*
G75*
G02*
X51250000Y-87750000I1500000J0D01*
G01*
D13*
%TO.C,A3*%
X86980000Y-68000000D02*
X86980000Y-127000000D01*
X89980000Y-130000000D02*
X113980000Y-130000000D01*
X113980000Y-65000000D02*
X89980000Y-65000000D01*
X116980000Y-80500000D02*
X116980000Y-72150000D01*
X116980000Y-93100000D02*
X116980000Y-84750000D01*
X116980000Y-127000000D02*
X116980000Y-68000000D01*
X86980000Y-68000000D02*
G75*
G02*
X89980000Y-65000000I3000000J0D01*
G01*
X89980000Y-130000000D02*
G75*
G02*
X86980000Y-127000000I1J3000001D01*
G01*
X113980000Y-65000000D02*
G75*
G02*
X116980000Y-68000000I0J-3000000D01*
G01*
X116980000Y-127000000D02*
G75*
G02*
X113980000Y-130000000I-3000001J1D01*
G01*
D11*
%TO.C,C12*%
X83240302Y-150935000D02*
X84040302Y-150935000D01*
X83640302Y-150535000D02*
X83640302Y-151335000D01*
X87650000Y-149170000D02*
X87650000Y-157330000D01*
X87690000Y-149170000D02*
X87690000Y-157330000D01*
X87730000Y-149171000D02*
X87730000Y-157329000D01*
X87770000Y-149172000D02*
X87770000Y-157328000D01*
X87810000Y-149173000D02*
X87810000Y-157327000D01*
X87850000Y-149175000D02*
X87850000Y-157325000D01*
X87890000Y-149177000D02*
X87890000Y-157323000D01*
X87930000Y-149180000D02*
X87930000Y-157320000D01*
X87970000Y-149182000D02*
X87970000Y-157318000D01*
X88010000Y-149186000D02*
X88010000Y-157314000D01*
X88050000Y-149189000D02*
X88050000Y-157311000D01*
X88090000Y-149194000D02*
X88090000Y-157306000D01*
X88130000Y-149198000D02*
X88130000Y-157302000D01*
X88170000Y-149203000D02*
X88170000Y-157297000D01*
X88210000Y-149208000D02*
X88210000Y-157292000D01*
X88250000Y-149214000D02*
X88250000Y-157286000D01*
X88290000Y-149220000D02*
X88290000Y-157280000D01*
X88330000Y-149227000D02*
X88330000Y-157273000D01*
X88370000Y-149233000D02*
X88370000Y-157267000D01*
X88410000Y-149241000D02*
X88410000Y-157259000D01*
X88450000Y-149248000D02*
X88450000Y-157252000D01*
X88490000Y-149257000D02*
X88490000Y-157243000D01*
X88530000Y-149265000D02*
X88530000Y-152210000D01*
X88530000Y-154290000D02*
X88530000Y-157235000D01*
X88570000Y-149274000D02*
X88570000Y-152210000D01*
X88570000Y-154290000D02*
X88570000Y-157226000D01*
X88610000Y-149283000D02*
X88610000Y-152210000D01*
X88610000Y-154290000D02*
X88610000Y-157217000D01*
X88650000Y-149293000D02*
X88650000Y-152210000D01*
X88650000Y-154290000D02*
X88650000Y-157207000D01*
X88690000Y-149303000D02*
X88690000Y-152210000D01*
X88690000Y-154290000D02*
X88690000Y-157197000D01*
X88730000Y-149314000D02*
X88730000Y-152210000D01*
X88730000Y-154290000D02*
X88730000Y-157186000D01*
X88770000Y-149325000D02*
X88770000Y-152210000D01*
X88770000Y-154290000D02*
X88770000Y-157175000D01*
X88810000Y-149337000D02*
X88810000Y-152210000D01*
X88810000Y-154290000D02*
X88810000Y-157163000D01*
X88850000Y-149349000D02*
X88850000Y-152210000D01*
X88850000Y-154290000D02*
X88850000Y-157151000D01*
X88890000Y-149361000D02*
X88890000Y-152210000D01*
X88890000Y-154290000D02*
X88890000Y-157139000D01*
X88930000Y-149374000D02*
X88930000Y-152210000D01*
X88930000Y-154290000D02*
X88930000Y-157126000D01*
X88970000Y-149387000D02*
X88970000Y-152210000D01*
X88970000Y-154290000D02*
X88970000Y-157113000D01*
X89010000Y-149401000D02*
X89010000Y-152210000D01*
X89010000Y-154290000D02*
X89010000Y-157099000D01*
X89050000Y-149415000D02*
X89050000Y-152210000D01*
X89050000Y-154290000D02*
X89050000Y-157085000D01*
X89090000Y-149430000D02*
X89090000Y-152210000D01*
X89090000Y-154290000D02*
X89090000Y-157070000D01*
X89130000Y-149445000D02*
X89130000Y-152210000D01*
X89130000Y-154290000D02*
X89130000Y-157055000D01*
X89170000Y-149461000D02*
X89170000Y-152210000D01*
X89170000Y-154290000D02*
X89170000Y-157039000D01*
X89210000Y-149477000D02*
X89210000Y-152210000D01*
X89210000Y-154290000D02*
X89210000Y-157023000D01*
X89250000Y-149493000D02*
X89250000Y-152210000D01*
X89250000Y-154290000D02*
X89250000Y-157007000D01*
X89290000Y-149510000D02*
X89290000Y-152210000D01*
X89290000Y-154290000D02*
X89290000Y-156990000D01*
X89330000Y-149528000D02*
X89330000Y-152210000D01*
X89330000Y-154290000D02*
X89330000Y-156972000D01*
X89370000Y-149546000D02*
X89370000Y-152210000D01*
X89370000Y-154290000D02*
X89370000Y-156954000D01*
X89410000Y-149565000D02*
X89410000Y-152210000D01*
X89410000Y-154290000D02*
X89410000Y-156935000D01*
X89450000Y-149584000D02*
X89450000Y-152210000D01*
X89450000Y-154290000D02*
X89450000Y-156916000D01*
X89490000Y-149604000D02*
X89490000Y-152210000D01*
X89490000Y-154290000D02*
X89490000Y-156896000D01*
X89530000Y-149624000D02*
X89530000Y-152210000D01*
X89530000Y-154290000D02*
X89530000Y-156876000D01*
X89570000Y-149645000D02*
X89570000Y-152210000D01*
X89570000Y-154290000D02*
X89570000Y-156855000D01*
X89610000Y-149666000D02*
X89610000Y-152210000D01*
X89610000Y-154290000D02*
X89610000Y-156834000D01*
X89650000Y-149688000D02*
X89650000Y-152210000D01*
X89650000Y-154290000D02*
X89650000Y-156812000D01*
X89690000Y-149711000D02*
X89690000Y-152210000D01*
X89690000Y-154290000D02*
X89690000Y-156789000D01*
X89730000Y-149734000D02*
X89730000Y-152210000D01*
X89730000Y-154290000D02*
X89730000Y-156766000D01*
X89770000Y-149757000D02*
X89770000Y-152210000D01*
X89770000Y-154290000D02*
X89770000Y-156743000D01*
X89810000Y-149782000D02*
X89810000Y-152210000D01*
X89810000Y-154290000D02*
X89810000Y-156718000D01*
X89850000Y-149807000D02*
X89850000Y-152210000D01*
X89850000Y-154290000D02*
X89850000Y-156693000D01*
X89890000Y-149832000D02*
X89890000Y-152210000D01*
X89890000Y-154290000D02*
X89890000Y-156668000D01*
X89930000Y-149858000D02*
X89930000Y-152210000D01*
X89930000Y-154290000D02*
X89930000Y-156642000D01*
X89970000Y-149885000D02*
X89970000Y-152210000D01*
X89970000Y-154290000D02*
X89970000Y-156615000D01*
X90010000Y-149913000D02*
X90010000Y-152210000D01*
X90010000Y-154290000D02*
X90010000Y-156587000D01*
X90050000Y-149941000D02*
X90050000Y-152210000D01*
X90050000Y-154290000D02*
X90050000Y-156559000D01*
X90090000Y-149970000D02*
X90090000Y-152210000D01*
X90090000Y-154290000D02*
X90090000Y-156530000D01*
X90130000Y-150000000D02*
X90130000Y-152210000D01*
X90130000Y-154290000D02*
X90130000Y-156500000D01*
X90170000Y-150031000D02*
X90170000Y-152210000D01*
X90170000Y-154290000D02*
X90170000Y-156469000D01*
X90210000Y-150062000D02*
X90210000Y-152210000D01*
X90210000Y-154290000D02*
X90210000Y-156438000D01*
X90250000Y-150094000D02*
X90250000Y-152210000D01*
X90250000Y-154290000D02*
X90250000Y-156406000D01*
X90290000Y-150127000D02*
X90290000Y-152210000D01*
X90290000Y-154290000D02*
X90290000Y-156373000D01*
X90330000Y-150161000D02*
X90330000Y-152210000D01*
X90330000Y-154290000D02*
X90330000Y-156339000D01*
X90370000Y-150195000D02*
X90370000Y-152210000D01*
X90370000Y-154290000D02*
X90370000Y-156305000D01*
X90410000Y-150231000D02*
X90410000Y-152210000D01*
X90410000Y-154290000D02*
X90410000Y-156269000D01*
X90450000Y-150268000D02*
X90450000Y-152210000D01*
X90450000Y-154290000D02*
X90450000Y-156232000D01*
X90490000Y-150305000D02*
X90490000Y-152210000D01*
X90490000Y-154290000D02*
X90490000Y-156195000D01*
X90530000Y-150344000D02*
X90530000Y-152210000D01*
X90530000Y-154290000D02*
X90530000Y-156156000D01*
X90570000Y-150383000D02*
X90570000Y-152210000D01*
X90570000Y-154290000D02*
X90570000Y-156117000D01*
X90610000Y-150424000D02*
X90610000Y-156076000D01*
X90650000Y-150466000D02*
X90650000Y-156034000D01*
X90690000Y-150509000D02*
X90690000Y-155991000D01*
X90730000Y-150554000D02*
X90730000Y-155946000D01*
X90770000Y-150599000D02*
X90770000Y-155901000D01*
X90810000Y-150646000D02*
X90810000Y-155854000D01*
X90850000Y-150695000D02*
X90850000Y-155805000D01*
X90890000Y-150745000D02*
X90890000Y-155755000D01*
X90930000Y-150797000D02*
X90930000Y-155703000D01*
X90970000Y-150850000D02*
X90970000Y-155650000D01*
X91010000Y-150906000D02*
X91010000Y-155594000D01*
X91050000Y-150963000D02*
X91050000Y-155537000D01*
X91090000Y-151023000D02*
X91090000Y-155477000D01*
X91130000Y-151085000D02*
X91130000Y-155415000D01*
X91170000Y-151149000D02*
X91170000Y-155351000D01*
X91210000Y-151216000D02*
X91210000Y-155284000D01*
X91250000Y-151286000D02*
X91250000Y-155214000D01*
X91290000Y-151360000D02*
X91290000Y-155140000D01*
X91330000Y-151437000D02*
X91330000Y-155063000D01*
X91370000Y-151519000D02*
X91370000Y-154981000D01*
X91410000Y-151606000D02*
X91410000Y-154894000D01*
X91450000Y-151698000D02*
X91450000Y-154802000D01*
X91490000Y-151797000D02*
X91490000Y-154703000D01*
X91530000Y-151904000D02*
X91530000Y-154596000D01*
X91570000Y-152022000D02*
X91570000Y-154478000D01*
X91610000Y-152153000D02*
X91610000Y-154347000D01*
X91650000Y-152303000D02*
X91650000Y-154197000D01*
X91690000Y-152482000D02*
X91690000Y-154018000D01*
X91730000Y-152717000D02*
X91730000Y-153783000D01*
X91770000Y-153250000D02*
G75*
G02*
X83530000Y-153250000I-4120000J0D01*
G01*
X83530000Y-153250000D02*
G75*
G02*
X91770000Y-153250000I4120000J0D01*
G01*
D10*
%TO.C,A1*%
X37870000Y-91336000D02*
X86350000Y-91336000D01*
X37870000Y-91370000D02*
X37870000Y-109370000D01*
X37870000Y-109370000D02*
X86350000Y-109370000D01*
X86350000Y-91370000D02*
X86350000Y-109370000D01*
D11*
%TO.C,R5*%
X69880000Y-112500000D02*
X70830000Y-112500000D01*
X75620000Y-112500000D02*
X74670000Y-112500000D01*
X70830000Y-111580000D02*
X74670000Y-111580000D01*
X74670000Y-113420000D01*
X70830000Y-113420000D01*
X70830000Y-111580000D01*
%TO.C,J6*%
X80660000Y-55170000D02*
X106320000Y-55170000D01*
X80660000Y-64290000D02*
X80660000Y-55170000D01*
X81960000Y-56480000D02*
X105020000Y-56480000D01*
X81960000Y-62980000D02*
X81960000Y-56480000D01*
X85370000Y-65680000D02*
X86370000Y-65680000D01*
X85870000Y-64680000D02*
X85370000Y-65680000D01*
X86370000Y-65680000D02*
X85870000Y-64680000D01*
X91440000Y-62980000D02*
X81960000Y-62980000D01*
X91440000Y-64290000D02*
X91440000Y-62980000D01*
X95540000Y-62980000D02*
X95540000Y-64290000D01*
X105020000Y-56480000D02*
X105020000Y-62980000D01*
X105020000Y-62980000D02*
X95540000Y-62980000D01*
X106320000Y-55170000D02*
X106320000Y-64290000D01*
X106320000Y-64290000D02*
X80660000Y-64290000D01*
%TO.C,TP5*%
X77250000Y-87750000D02*
G75*
G02*
X74250000Y-87750000I-1500000J0D01*
G01*
X74250000Y-87750000D02*
G75*
G02*
X77250000Y-87750000I1500000J0D01*
G01*
D10*
%TO.C,A2*%
X37850000Y-67586000D02*
X86330000Y-67586000D01*
X37850000Y-67620000D02*
X37850000Y-85620000D01*
X37850000Y-85620000D02*
X86330000Y-85620000D01*
X86330000Y-67620000D02*
X86330000Y-85620000D01*
D11*
%TO.C,R1*%
X64630000Y-87000000D02*
X65580000Y-87000000D01*
X70370000Y-87000000D02*
X69420000Y-87000000D01*
X65580000Y-86080000D02*
X69420000Y-86080000D01*
X69420000Y-87920000D01*
X65580000Y-87920000D01*
X65580000Y-86080000D01*
%TO.C,C6*%
X74790000Y-142250000D02*
X75480000Y-142250000D01*
X80210000Y-142250000D02*
X79520000Y-142250000D01*
X79520000Y-143670000D02*
X75480000Y-143670000D01*
X75480000Y-140830000D01*
X79520000Y-140830000D01*
X79520000Y-143670000D01*
%TO.C,J4*%
X92330000Y-145415000D02*
X92330000Y-143885000D01*
X92620000Y-140790000D02*
X103940000Y-140790000D01*
X92620000Y-149700000D02*
X92620000Y-140790000D01*
X103940000Y-140790000D02*
X103940000Y-149700000D01*
%TO.C,R2*%
X54900000Y-87000000D02*
X55850000Y-87000000D01*
X60640000Y-87000000D02*
X59690000Y-87000000D01*
X55850000Y-86080000D02*
X59690000Y-86080000D01*
X59690000Y-87920000D01*
X55850000Y-87920000D01*
X55850000Y-86080000D01*
%TO.C,C7*%
X83240302Y-138685000D02*
X84040302Y-138685000D01*
X83640302Y-138285000D02*
X83640302Y-139085000D01*
X87650000Y-136920000D02*
X87650000Y-145080000D01*
X87690000Y-136920000D02*
X87690000Y-145080000D01*
X87730000Y-136921000D02*
X87730000Y-145079000D01*
X87770000Y-136922000D02*
X87770000Y-145078000D01*
X87810000Y-136923000D02*
X87810000Y-145077000D01*
X87850000Y-136925000D02*
X87850000Y-145075000D01*
X87890000Y-136927000D02*
X87890000Y-145073000D01*
X87930000Y-136930000D02*
X87930000Y-145070000D01*
X87970000Y-136932000D02*
X87970000Y-145068000D01*
X88010000Y-136936000D02*
X88010000Y-145064000D01*
X88050000Y-136939000D02*
X88050000Y-145061000D01*
X88090000Y-136944000D02*
X88090000Y-145056000D01*
X88130000Y-136948000D02*
X88130000Y-145052000D01*
X88170000Y-136953000D02*
X88170000Y-145047000D01*
X88210000Y-136958000D02*
X88210000Y-145042000D01*
X88250000Y-136964000D02*
X88250000Y-145036000D01*
X88290000Y-136970000D02*
X88290000Y-145030000D01*
X88330000Y-136977000D02*
X88330000Y-145023000D01*
X88370000Y-136983000D02*
X88370000Y-145017000D01*
X88410000Y-136991000D02*
X88410000Y-145009000D01*
X88450000Y-136998000D02*
X88450000Y-145002000D01*
X88490000Y-137007000D02*
X88490000Y-144993000D01*
X88530000Y-137015000D02*
X88530000Y-139960000D01*
X88530000Y-142040000D02*
X88530000Y-144985000D01*
X88570000Y-137024000D02*
X88570000Y-139960000D01*
X88570000Y-142040000D02*
X88570000Y-144976000D01*
X88610000Y-137033000D02*
X88610000Y-139960000D01*
X88610000Y-142040000D02*
X88610000Y-144967000D01*
X88650000Y-137043000D02*
X88650000Y-139960000D01*
X88650000Y-142040000D02*
X88650000Y-144957000D01*
X88690000Y-137053000D02*
X88690000Y-139960000D01*
X88690000Y-142040000D02*
X88690000Y-144947000D01*
X88730000Y-137064000D02*
X88730000Y-139960000D01*
X88730000Y-142040000D02*
X88730000Y-144936000D01*
X88770000Y-137075000D02*
X88770000Y-139960000D01*
X88770000Y-142040000D02*
X88770000Y-144925000D01*
X88810000Y-137087000D02*
X88810000Y-139960000D01*
X88810000Y-142040000D02*
X88810000Y-144913000D01*
X88850000Y-137099000D02*
X88850000Y-139960000D01*
X88850000Y-142040000D02*
X88850000Y-144901000D01*
X88890000Y-137111000D02*
X88890000Y-139960000D01*
X88890000Y-142040000D02*
X88890000Y-144889000D01*
X88930000Y-137124000D02*
X88930000Y-139960000D01*
X88930000Y-142040000D02*
X88930000Y-144876000D01*
X88970000Y-137137000D02*
X88970000Y-139960000D01*
X88970000Y-142040000D02*
X88970000Y-144863000D01*
X89010000Y-137151000D02*
X89010000Y-139960000D01*
X89010000Y-142040000D02*
X89010000Y-144849000D01*
X89050000Y-137165000D02*
X89050000Y-139960000D01*
X89050000Y-142040000D02*
X89050000Y-144835000D01*
X89090000Y-137180000D02*
X89090000Y-139960000D01*
X89090000Y-142040000D02*
X89090000Y-144820000D01*
X89130000Y-137195000D02*
X89130000Y-139960000D01*
X89130000Y-142040000D02*
X89130000Y-144805000D01*
X89170000Y-137211000D02*
X89170000Y-139960000D01*
X89170000Y-142040000D02*
X89170000Y-144789000D01*
X89210000Y-137227000D02*
X89210000Y-139960000D01*
X89210000Y-142040000D02*
X89210000Y-144773000D01*
X89250000Y-137243000D02*
X89250000Y-139960000D01*
X89250000Y-142040000D02*
X89250000Y-144757000D01*
X89290000Y-137260000D02*
X89290000Y-139960000D01*
X89290000Y-142040000D02*
X89290000Y-144740000D01*
X89330000Y-137278000D02*
X89330000Y-139960000D01*
X89330000Y-142040000D02*
X89330000Y-144722000D01*
X89370000Y-137296000D02*
X89370000Y-139960000D01*
X89370000Y-142040000D02*
X89370000Y-144704000D01*
X89410000Y-137315000D02*
X89410000Y-139960000D01*
X89410000Y-142040000D02*
X89410000Y-144685000D01*
X89450000Y-137334000D02*
X89450000Y-139960000D01*
X89450000Y-142040000D02*
X89450000Y-144666000D01*
X89490000Y-137354000D02*
X89490000Y-139960000D01*
X89490000Y-142040000D02*
X89490000Y-144646000D01*
X89530000Y-137374000D02*
X89530000Y-139960000D01*
X89530000Y-142040000D02*
X89530000Y-144626000D01*
X89570000Y-137395000D02*
X89570000Y-139960000D01*
X89570000Y-142040000D02*
X89570000Y-144605000D01*
X89610000Y-137416000D02*
X89610000Y-139960000D01*
X89610000Y-142040000D02*
X89610000Y-144584000D01*
X89650000Y-137438000D02*
X89650000Y-139960000D01*
X89650000Y-142040000D02*
X89650000Y-144562000D01*
X89690000Y-137461000D02*
X89690000Y-139960000D01*
X89690000Y-142040000D02*
X89690000Y-144539000D01*
X89730000Y-137484000D02*
X89730000Y-139960000D01*
X89730000Y-142040000D02*
X89730000Y-144516000D01*
X89770000Y-137507000D02*
X89770000Y-139960000D01*
X89770000Y-142040000D02*
X89770000Y-144493000D01*
X89810000Y-137532000D02*
X89810000Y-139960000D01*
X89810000Y-142040000D02*
X89810000Y-144468000D01*
X89850000Y-137557000D02*
X89850000Y-139960000D01*
X89850000Y-142040000D02*
X89850000Y-144443000D01*
X89890000Y-137582000D02*
X89890000Y-139960000D01*
X89890000Y-142040000D02*
X89890000Y-144418000D01*
X89930000Y-137608000D02*
X89930000Y-139960000D01*
X89930000Y-142040000D02*
X89930000Y-144392000D01*
X89970000Y-137635000D02*
X89970000Y-139960000D01*
X89970000Y-142040000D02*
X89970000Y-144365000D01*
X90010000Y-137663000D02*
X90010000Y-139960000D01*
X90010000Y-142040000D02*
X90010000Y-144337000D01*
X90050000Y-137691000D02*
X90050000Y-139960000D01*
X90050000Y-142040000D02*
X90050000Y-144309000D01*
X90090000Y-137720000D02*
X90090000Y-139960000D01*
X90090000Y-142040000D02*
X90090000Y-144280000D01*
X90130000Y-137750000D02*
X90130000Y-139960000D01*
X90130000Y-142040000D02*
X90130000Y-144250000D01*
X90170000Y-137781000D02*
X90170000Y-139960000D01*
X90170000Y-142040000D02*
X90170000Y-144219000D01*
X90210000Y-137812000D02*
X90210000Y-139960000D01*
X90210000Y-142040000D02*
X90210000Y-144188000D01*
X90250000Y-137844000D02*
X90250000Y-139960000D01*
X90250000Y-142040000D02*
X90250000Y-144156000D01*
X90290000Y-137877000D02*
X90290000Y-139960000D01*
X90290000Y-142040000D02*
X90290000Y-144123000D01*
X90330000Y-137911000D02*
X90330000Y-139960000D01*
X90330000Y-142040000D02*
X90330000Y-144089000D01*
X90370000Y-137945000D02*
X90370000Y-139960000D01*
X90370000Y-142040000D02*
X90370000Y-144055000D01*
X90410000Y-137981000D02*
X90410000Y-139960000D01*
X90410000Y-142040000D02*
X90410000Y-144019000D01*
X90450000Y-138018000D02*
X90450000Y-139960000D01*
X90450000Y-142040000D02*
X90450000Y-143982000D01*
X90490000Y-138055000D02*
X90490000Y-139960000D01*
X90490000Y-142040000D02*
X90490000Y-143945000D01*
X90530000Y-138094000D02*
X90530000Y-139960000D01*
X90530000Y-142040000D02*
X90530000Y-143906000D01*
X90570000Y-138133000D02*
X90570000Y-139960000D01*
X90570000Y-142040000D02*
X90570000Y-143867000D01*
X90610000Y-138174000D02*
X90610000Y-143826000D01*
X90650000Y-138216000D02*
X90650000Y-143784000D01*
X90690000Y-138259000D02*
X90690000Y-143741000D01*
X90730000Y-138304000D02*
X90730000Y-143696000D01*
X90770000Y-138349000D02*
X90770000Y-143651000D01*
X90810000Y-138396000D02*
X90810000Y-143604000D01*
X90850000Y-138445000D02*
X90850000Y-143555000D01*
X90890000Y-138495000D02*
X90890000Y-143505000D01*
X90930000Y-138547000D02*
X90930000Y-143453000D01*
X90970000Y-138600000D02*
X90970000Y-143400000D01*
X91010000Y-138656000D02*
X91010000Y-143344000D01*
X91050000Y-138713000D02*
X91050000Y-143287000D01*
X91090000Y-138773000D02*
X91090000Y-143227000D01*
X91130000Y-138835000D02*
X91130000Y-143165000D01*
X91170000Y-138899000D02*
X91170000Y-143101000D01*
X91210000Y-138966000D02*
X91210000Y-143034000D01*
X91250000Y-139036000D02*
X91250000Y-142964000D01*
X91290000Y-139110000D02*
X91290000Y-142890000D01*
X91330000Y-139187000D02*
X91330000Y-142813000D01*
X91370000Y-139269000D02*
X91370000Y-142731000D01*
X91410000Y-139356000D02*
X91410000Y-142644000D01*
X91450000Y-139448000D02*
X91450000Y-142552000D01*
X91490000Y-139547000D02*
X91490000Y-142453000D01*
X91530000Y-139654000D02*
X91530000Y-142346000D01*
X91570000Y-139772000D02*
X91570000Y-142228000D01*
X91610000Y-139903000D02*
X91610000Y-142097000D01*
X91650000Y-140053000D02*
X91650000Y-141947000D01*
X91690000Y-140232000D02*
X91690000Y-141768000D01*
X91730000Y-140467000D02*
X91730000Y-141533000D01*
X91770000Y-141000000D02*
G75*
G02*
X83530000Y-141000000I-4120000J0D01*
G01*
X83530000Y-141000000D02*
G75*
G02*
X91770000Y-141000000I4120000J0D01*
G01*
%TO.C,TP3*%
X69000000Y-130750000D02*
G75*
G02*
X66000000Y-130750000I-1500000J0D01*
G01*
X66000000Y-130750000D02*
G75*
G02*
X69000000Y-130750000I1500000J0D01*
G01*
%TO.C,C2*%
X79250000Y-111790000D02*
X79250000Y-112480000D01*
X79250000Y-117210000D02*
X79250000Y-116520000D01*
X77830000Y-116520000D02*
X80670000Y-116520000D01*
X80670000Y-112480000D01*
X77830000Y-112480000D01*
X77830000Y-116520000D01*
%TO.C,Q1*%
X93350000Y-135490000D02*
X103570000Y-135490000D01*
X93350000Y-136870000D02*
X103570000Y-136870000D01*
X93350000Y-140110000D02*
X93350000Y-135490000D01*
X96610000Y-135490000D02*
X96610000Y-136870000D01*
X100310000Y-135490000D02*
X100310000Y-136870000D01*
X103570000Y-135490000D02*
X103570000Y-140110000D01*
X103570000Y-140110000D02*
X93350000Y-140110000D01*
%TO.C,C8*%
X80245225Y-131525000D02*
X80745225Y-131525000D01*
X80495225Y-131275000D02*
X80495225Y-131775000D01*
X83050000Y-130420000D02*
X83050000Y-131960000D01*
X83050000Y-134040000D02*
X83050000Y-135580000D01*
X83090000Y-130420000D02*
X83090000Y-131960000D01*
X83090000Y-134040000D02*
X83090000Y-135580000D01*
X83130000Y-130421000D02*
X83130000Y-131960000D01*
X83130000Y-134040000D02*
X83130000Y-135579000D01*
X83170000Y-130423000D02*
X83170000Y-131960000D01*
X83170000Y-134040000D02*
X83170000Y-135577000D01*
X83210000Y-130425000D02*
X83210000Y-131960000D01*
X83210000Y-134040000D02*
X83210000Y-135575000D01*
X83250000Y-130428000D02*
X83250000Y-131960000D01*
X83250000Y-134040000D02*
X83250000Y-135572000D01*
X83290000Y-130431000D02*
X83290000Y-131960000D01*
X83290000Y-134040000D02*
X83290000Y-135569000D01*
X83330000Y-130435000D02*
X83330000Y-131960000D01*
X83330000Y-134040000D02*
X83330000Y-135565000D01*
X83370000Y-130440000D02*
X83370000Y-131960000D01*
X83370000Y-134040000D02*
X83370000Y-135560000D01*
X83410000Y-130445000D02*
X83410000Y-131960000D01*
X83410000Y-134040000D02*
X83410000Y-135555000D01*
X83450000Y-130451000D02*
X83450000Y-131960000D01*
X83450000Y-134040000D02*
X83450000Y-135549000D01*
X83490000Y-130457000D02*
X83490000Y-131960000D01*
X83490000Y-134040000D02*
X83490000Y-135543000D01*
X83530000Y-130464000D02*
X83530000Y-131960000D01*
X83530000Y-134040000D02*
X83530000Y-135536000D01*
X83570000Y-130472000D02*
X83570000Y-131960000D01*
X83570000Y-134040000D02*
X83570000Y-135528000D01*
X83610000Y-130481000D02*
X83610000Y-131960000D01*
X83610000Y-134040000D02*
X83610000Y-135519000D01*
X83650000Y-130490000D02*
X83650000Y-131960000D01*
X83650000Y-134040000D02*
X83650000Y-135510000D01*
X83690000Y-130499000D02*
X83690000Y-131960000D01*
X83690000Y-134040000D02*
X83690000Y-135501000D01*
X83730000Y-130510000D02*
X83730000Y-131960000D01*
X83730000Y-134040000D02*
X83730000Y-135490000D01*
X83770000Y-130521000D02*
X83770000Y-131960000D01*
X83770000Y-134040000D02*
X83770000Y-135479000D01*
X83810000Y-130533000D02*
X83810000Y-131960000D01*
X83810000Y-134040000D02*
X83810000Y-135467000D01*
X83850000Y-130545000D02*
X83850000Y-131960000D01*
X83850000Y-134040000D02*
X83850000Y-135455000D01*
X83890000Y-130558000D02*
X83890000Y-131960000D01*
X83890000Y-134040000D02*
X83890000Y-135442000D01*
X83930000Y-130572000D02*
X83930000Y-131960000D01*
X83930000Y-134040000D02*
X83930000Y-135428000D01*
X83970000Y-130587000D02*
X83970000Y-131960000D01*
X83970000Y-134040000D02*
X83970000Y-135413000D01*
X84010000Y-130602000D02*
X84010000Y-131960000D01*
X84010000Y-134040000D02*
X84010000Y-135398000D01*
X84050000Y-130618000D02*
X84050000Y-131960000D01*
X84050000Y-134040000D02*
X84050000Y-135382000D01*
X84090000Y-130635000D02*
X84090000Y-131960000D01*
X84090000Y-134040000D02*
X84090000Y-135365000D01*
X84130000Y-130653000D02*
X84130000Y-131960000D01*
X84130000Y-134040000D02*
X84130000Y-135347000D01*
X84170000Y-130671000D02*
X84170000Y-131960000D01*
X84170000Y-134040000D02*
X84170000Y-135329000D01*
X84210000Y-130691000D02*
X84210000Y-131960000D01*
X84210000Y-134040000D02*
X84210000Y-135309000D01*
X84250000Y-130711000D02*
X84250000Y-131960000D01*
X84250000Y-134040000D02*
X84250000Y-135289000D01*
X84290000Y-130732000D02*
X84290000Y-131960000D01*
X84290000Y-134040000D02*
X84290000Y-135268000D01*
X84330000Y-130754000D02*
X84330000Y-131960000D01*
X84330000Y-134040000D02*
X84330000Y-135246000D01*
X84370000Y-130777000D02*
X84370000Y-131960000D01*
X84370000Y-134040000D02*
X84370000Y-135223000D01*
X84410000Y-130801000D02*
X84410000Y-131960000D01*
X84410000Y-134040000D02*
X84410000Y-135199000D01*
X84450000Y-130825000D02*
X84450000Y-131960000D01*
X84450000Y-134040000D02*
X84450000Y-135175000D01*
X84490000Y-130851000D02*
X84490000Y-131960000D01*
X84490000Y-134040000D02*
X84490000Y-135149000D01*
X84530000Y-130878000D02*
X84530000Y-131960000D01*
X84530000Y-134040000D02*
X84530000Y-135122000D01*
X84570000Y-130906000D02*
X84570000Y-131960000D01*
X84570000Y-134040000D02*
X84570000Y-135094000D01*
X84610000Y-130935000D02*
X84610000Y-131960000D01*
X84610000Y-134040000D02*
X84610000Y-135065000D01*
X84650000Y-130965000D02*
X84650000Y-131960000D01*
X84650000Y-134040000D02*
X84650000Y-135035000D01*
X84690000Y-130997000D02*
X84690000Y-131960000D01*
X84690000Y-134040000D02*
X84690000Y-135003000D01*
X84730000Y-131030000D02*
X84730000Y-131960000D01*
X84730000Y-134040000D02*
X84730000Y-134970000D01*
X84770000Y-131064000D02*
X84770000Y-131960000D01*
X84770000Y-134040000D02*
X84770000Y-134936000D01*
X84810000Y-131099000D02*
X84810000Y-131960000D01*
X84810000Y-134040000D02*
X84810000Y-134901000D01*
X84850000Y-131136000D02*
X84850000Y-131960000D01*
X84850000Y-134040000D02*
X84850000Y-134864000D01*
X84890000Y-131175000D02*
X84890000Y-131960000D01*
X84890000Y-134040000D02*
X84890000Y-134825000D01*
X84930000Y-131215000D02*
X84930000Y-131960000D01*
X84930000Y-134040000D02*
X84930000Y-134785000D01*
X84970000Y-131257000D02*
X84970000Y-131960000D01*
X84970000Y-134040000D02*
X84970000Y-134743000D01*
X85010000Y-131301000D02*
X85010000Y-131960000D01*
X85010000Y-134040000D02*
X85010000Y-134699000D01*
X85050000Y-131348000D02*
X85050000Y-131960000D01*
X85050000Y-134040000D02*
X85050000Y-134652000D01*
X85090000Y-131396000D02*
X85090000Y-134604000D01*
X85130000Y-131447000D02*
X85130000Y-134553000D01*
X85170000Y-131501000D02*
X85170000Y-134499000D01*
X85210000Y-131557000D02*
X85210000Y-134443000D01*
X85250000Y-131617000D02*
X85250000Y-134383000D01*
X85290000Y-131681000D02*
X85290000Y-134319000D01*
X85330000Y-131749000D02*
X85330000Y-134251000D01*
X85370000Y-131823000D02*
X85370000Y-134177000D01*
X85410000Y-131902000D02*
X85410000Y-134098000D01*
X85450000Y-131989000D02*
X85450000Y-134011000D01*
X85490000Y-132086000D02*
X85490000Y-133914000D01*
X85530000Y-132195000D02*
X85530000Y-133805000D01*
X85570000Y-132323000D02*
X85570000Y-133677000D01*
X85610000Y-132483000D02*
X85610000Y-133517000D01*
X85650000Y-132717000D02*
X85650000Y-133283000D01*
X85670000Y-133000000D02*
G75*
G02*
X80430000Y-133000000I-2620000J0D01*
G01*
X80430000Y-133000000D02*
G75*
G02*
X85670000Y-133000000I2620000J0D01*
G01*
D10*
%TO.C,U1*%
X36871500Y-153075800D02*
X36871500Y-109895800D01*
X38395500Y-132247800D02*
X38395500Y-141391800D01*
X38395500Y-141391800D02*
X41951500Y-141391800D01*
X38903500Y-121071800D02*
X42967500Y-121071800D01*
X38903500Y-125135800D02*
X42967500Y-125135800D01*
X40427500Y-140883800D02*
X39411500Y-139867800D01*
X40935500Y-121071800D02*
X38903500Y-125135800D01*
X41443500Y-132755800D02*
X41951500Y-132755800D01*
X41443500Y-140883800D02*
X41443500Y-132755800D01*
X41951500Y-132247800D02*
X38395500Y-132247800D01*
X41951500Y-132755800D02*
X41951500Y-132247800D01*
X41951500Y-140883800D02*
X41443500Y-140883800D01*
X41951500Y-141391800D02*
X41951500Y-140883800D01*
X42967500Y-125135800D02*
X40935500Y-121071800D01*
X43983500Y-112435800D02*
X45507500Y-110403800D01*
X43983500Y-115483800D02*
X43983500Y-112435800D01*
X43983500Y-146471800D02*
X43983500Y-149519800D01*
X43983500Y-149519800D02*
X45507500Y-151043800D01*
X45507500Y-110403800D02*
X51095500Y-110403800D01*
X45507500Y-117515800D02*
X43983500Y-115483800D01*
X45507500Y-144947800D02*
X43983500Y-146471800D01*
X45507500Y-151043800D02*
X50079500Y-151043800D01*
X46015500Y-132755800D02*
X47539500Y-132755800D01*
X46015500Y-143931800D02*
X46015500Y-132755800D01*
X47031500Y-132755800D02*
X57191500Y-132755800D01*
X50079500Y-144947800D02*
X45507500Y-144947800D01*
X50079500Y-151043800D02*
X50079500Y-144947800D01*
X51095500Y-110403800D02*
X51095500Y-117515800D01*
X51095500Y-117515800D02*
X45507500Y-117515800D01*
X57191500Y-132755800D02*
X57191500Y-140883800D01*
X57191500Y-140883800D02*
X57191500Y-142915800D01*
X57191500Y-142915800D02*
X57191500Y-143931800D01*
X57191500Y-143931800D02*
X46015500Y-143931800D01*
X57953500Y-109895800D02*
X36871500Y-109895800D01*
X57953500Y-109895800D02*
X57953500Y-153075800D01*
X57953500Y-153075800D02*
X36871500Y-153075800D01*
X41506038Y-146471800D02*
G75*
G02*
X37316962Y-146471800I-2094538J0D01*
G01*
X37316962Y-146471800D02*
G75*
G02*
X41506038Y-146471800I2094538J0D01*
G01*
X40935500Y-146471800D02*
G75*
G02*
X37887500Y-146471800I-1524000J0D01*
G01*
X37887500Y-146471800D02*
G75*
G02*
X40935500Y-146471800I1524000J0D01*
G01*
X40637920Y-140375800D02*
G75*
G02*
X39201080Y-140375800I-718420J0D01*
G01*
X39201080Y-140375800D02*
G75*
G02*
X40637920Y-140375800I718420J0D01*
G01*
X49993624Y-147995800D02*
G75*
G02*
X44069376Y-147995800I-2962124J0D01*
G01*
X44069376Y-147995800D02*
G75*
G02*
X49993624Y-147995800I2962124J0D01*
G01*
X50947268Y-113959800D02*
G75*
G02*
X44131732Y-113959800I-3407768J0D01*
G01*
X44131732Y-113959800D02*
G75*
G02*
X50947268Y-113959800I3407768J0D01*
G01*
X56937500Y-116499800D02*
G75*
G02*
X53889500Y-116499800I-1524000J0D01*
G01*
X53889500Y-116499800D02*
G75*
G02*
X56937500Y-116499800I1524000J0D01*
G01*
X57583677Y-116499800D02*
G75*
G02*
X53243323Y-116499800I-2170177J0D01*
G01*
X53243323Y-116499800D02*
G75*
G02*
X57583677Y-116499800I2170177J0D01*
G01*
D11*
%TO.C,C10*%
X62290000Y-156000000D02*
X62980000Y-156000000D01*
X67710000Y-156000000D02*
X67020000Y-156000000D01*
X62980000Y-154580000D02*
X67020000Y-154580000D01*
X67020000Y-157420000D01*
X62980000Y-157420000D01*
X62980000Y-154580000D01*
%TD*%
M02*
