M48
; DRILL file {KiCad 9.0.7} date 2026-02-23T13:49:51-0800
; FORMAT={-:-/ absolute / metric / decimal}
; #@! TF.CreationDate,2026-02-23T13:49:51-08:00
; #@! TF.GenerationSoftware,Kicad,Pcbnew,9.0.7
; #@! TF.FileFunction,Plated,1,2,PTH
FMAT,2
METRIC
; #@! TA.AperFunction,Plated,PTH,ViaDrill
T1C0.400
; #@! TA.AperFunction,Plated,PTH,ComponentDrill
T2C0.700
; #@! TA.AperFunction,Plated,PTH,ComponentDrill
T3C0.800
; #@! TA.AperFunction,Plated,PTH,ComponentDrill
T4C0.813
; #@! TA.AperFunction,Plated,PTH,ComponentDrill
T5C0.900
; #@! TA.AperFunction,Plated,PTH,ComponentDrill
T6C1.000
; #@! TA.AperFunction,Plated,PTH,ComponentDrill
T7C1.016
%
G90
G05
T1
X147.32Y-60.96
X150.372Y-28.452
T2
X142.24Y-41.91
X142.24Y-49.53
X144.78Y-41.91
X144.78Y-49.53
T3
X140.98Y-78.74
X141.03Y-88.9
X144.78Y-78.74
X148.53Y-88.9
X151.19Y-43.18
X153.73Y-73.66
X158.69Y-43.18
X161.23Y-73.66
X162.56Y-77.53
X162.56Y-85.03
X189.24Y-93.98
X193.04Y-93.98
X195.58Y1.21
X195.58Y-6.29
X195.58Y-8.95
X195.58Y-16.45
T4
X172.72Y-88.9
X172.72Y-96.52
X175.26Y-88.9
X175.26Y-96.52
X177.8Y-88.9
X177.8Y-96.52
X180.34Y-88.9
X180.34Y-96.52
T5
X174.61Y-102.68
X175.88Y-100.14
X177.15Y-102.68
X178.42Y-100.14
T6
X115.762Y-113.803
X115.787Y-74.332
X119.38Y0.0
X119.38Y-2.54
X119.38Y-12.7
X119.38Y-15.24
X121.92Y0.0
X121.92Y-2.54
X121.92Y-12.7
X121.92Y-15.24
X124.46Y0.0
X124.46Y-2.54
X124.46Y-12.7
X124.46Y-15.24
X127.0Y0.0
X127.0Y-2.54
X127.0Y-12.7
X127.0Y-15.24
X129.54Y0.0
X129.54Y-2.54
X129.54Y-12.7
X129.54Y-15.24
X132.08Y0.0
X132.08Y-2.54
X132.08Y-12.7
X132.08Y-15.24
X132.932Y-74.332
X132.932Y-113.803
X134.62Y0.0
X134.62Y-2.54
X134.62Y-12.7
X134.62Y-15.24
X137.16Y0.0
X137.16Y-2.54
X137.16Y-12.7
X137.16Y-15.24
X139.7Y0.0
X139.7Y-2.54
X139.7Y-12.7
X139.7Y-15.24
X142.24Y0.0
X142.24Y-2.54
X142.24Y-12.7
X142.24Y-15.24
X144.78Y-12.7
X144.78Y-15.24
X147.32Y-12.7
X147.32Y-15.24
X149.86Y-12.7
X149.86Y-15.24
X158.76Y-93.98
X162.56Y-93.98
X168.91Y-30.27
X168.91Y-32.81
X168.91Y-35.35
X168.91Y-37.89
X168.91Y-40.43
X168.91Y-42.97
X168.91Y-45.51
X168.91Y-48.05
X168.91Y-50.59
X168.91Y-53.13
X168.91Y-55.67
X168.91Y-58.21
X168.91Y-60.75
X168.91Y-63.29
X168.91Y-65.83
X168.91Y-68.37
X168.91Y-70.91
X168.91Y-73.45
X168.91Y-75.99
X168.91Y-78.53
X170.18Y-12.7
X170.18Y-15.24
X171.45Y-30.27
X171.45Y-32.81
X171.45Y-35.35
X171.45Y-37.89
X171.45Y-40.43
X171.45Y-42.97
X171.45Y-45.51
X171.45Y-48.05
X171.45Y-50.59
X171.45Y-53.13
X171.45Y-55.67
X171.45Y-58.21
X171.45Y-60.75
X171.45Y-63.29
X171.45Y-65.83
X171.45Y-68.37
X171.45Y-70.91
X171.45Y-73.45
X171.45Y-75.99
X171.45Y-78.53
X172.72Y-12.7
X172.72Y-15.24
X175.26Y0.0
X175.26Y-2.54
X175.26Y-12.7
X175.26Y-15.24
X177.8Y0.0
X177.8Y-2.54
X177.8Y-12.7
X177.8Y-15.24
X180.34Y0.0
X180.34Y-2.54
X180.34Y-12.7
X180.34Y-15.24
X182.88Y0.0
X182.88Y-2.54
X182.88Y-12.7
X182.88Y-15.24
X185.42Y0.0
X185.42Y-2.54
X185.42Y-12.7
X185.42Y-15.24
T7
X119.38Y-22.86
X119.38Y-38.1
X119.38Y-53.34
X119.38Y-68.58
X121.92Y-22.86
X121.92Y-38.1
X121.92Y-53.34
X121.92Y-68.58
X124.46Y-22.86
X124.46Y-38.1
X124.46Y-53.34
X124.46Y-68.58
X127.0Y-22.86
X127.0Y-38.1
X127.0Y-53.34
X127.0Y-68.58
X129.54Y-22.86
X129.54Y-38.1
X129.54Y-53.34
X129.54Y-68.58
X132.08Y-22.86
X132.08Y-38.1
X132.08Y-53.34
X132.08Y-68.58
X134.62Y-22.86
X134.62Y-38.1
X134.62Y-53.34
X134.62Y-68.58
X137.16Y-22.86
X137.16Y-38.1
X137.16Y-53.34
X137.16Y-68.58
X139.7Y-22.86
X139.7Y-38.1
X139.7Y-53.34
X139.7Y-68.58
X142.24Y-22.86
X142.24Y-38.1
X142.24Y-53.34
X142.24Y-68.58
X144.78Y-22.86
X144.78Y-38.1
X144.78Y-53.34
X144.78Y-68.58
X147.32Y-22.86
X147.32Y-38.1
X147.32Y-53.34
X147.32Y-68.58
X149.86Y-22.86
X149.86Y-38.1
X149.86Y-53.34
X149.86Y-68.58
X152.4Y-22.86
X152.4Y-38.1
X152.4Y-53.34
X152.4Y-68.58
X154.94Y-22.86
X154.94Y-38.1
X154.94Y-53.34
X154.94Y-68.58
X157.48Y-22.86
X157.48Y-38.1
X157.48Y-53.34
X157.48Y-68.58
X160.02Y-22.86
X160.02Y-38.1
X160.02Y-53.34
X160.02Y-68.58
T2
X185.42Y-108.96G85X185.42Y-109.56
G05
X190.22Y-103.96G85X190.22Y-104.56
G05
X190.22Y-110.96G85X190.22Y-111.56
G05
X193.04Y-108.92G85X193.04Y-109.52
G05
X197.84Y-103.92G85X197.84Y-104.52
G05
X197.84Y-110.92G85X197.84Y-111.52
G05
M30
